<svg id="svg" version="1.1" xmlns="http://www.w3.org/2000/svg" xmlns:xlink="http://www.w3.org/1999/xlink" width="400" height="400" viewBox="0, 0, 400,400"><g id="svgg"><path id="path0" d="M167.214 0.437 C 166.231 0.630,164.554 1.331,163.487 1.994 C 161.745 3.077,161.213 3.201,158.273 3.206 C 156.473 3.209,155.206 3.344,155.458 3.506 C 155.710 3.668,154.606 3.811,153.004 3.824 C 150.093 3.847,148.283 4.516,147.480 5.863 C 147.304 6.158,146.889 6.400,146.557 6.400 C 146.224 6.400,146.037 6.535,146.139 6.700 C 146.242 6.865,145.275 6.940,143.991 6.866 C 140.761 6.680,137.615 7.416,135.421 8.869 C 134.150 9.711,132.624 10.261,130.566 10.618 C 128.072 11.051,127.296 11.382,125.981 12.570 C 124.836 13.604,124.031 14.000,123.071 14.000 C 120.913 14.000,117.861 15.096,116.410 16.391 C 115.665 17.056,114.898 17.600,114.704 17.600 C 114.511 17.600,114.481 17.808,114.638 18.062 C 114.820 18.357,114.747 18.415,114.436 18.222 C 113.564 17.683,111.258 18.402,109.464 19.772 C 108.499 20.509,106.735 21.395,105.544 21.741 C 104.353 22.087,102.663 22.968,101.789 23.698 C 100.915 24.428,99.695 25.246,99.077 25.515 C 98.397 25.811,98.067 26.185,98.239 26.464 C 98.418 26.753,98.347 26.814,98.046 26.628 C 97.761 26.452,97.240 26.750,96.755 27.366 C 96.308 27.935,95.550 28.404,95.071 28.409 C 93.733 28.422,90.905 29.841,90.322 30.791 C 90.035 31.259,89.080 31.967,88.200 32.365 C 87.320 32.762,86.052 33.619,85.383 34.268 C 84.714 34.917,83.316 35.860,82.276 36.363 C 81.237 36.866,80.203 37.620,79.980 38.038 C 79.756 38.456,78.844 39.169,77.954 39.624 C 77.063 40.078,76.034 40.977,75.667 41.622 C 75.300 42.267,74.752 42.796,74.449 42.797 C 74.146 42.799,73.066 43.598,72.049 44.574 C 69.370 47.144,66.019 50.070,64.344 51.303 C 63.543 51.892,62.363 52.875,61.721 53.487 C 61.079 54.099,60.204 54.894,59.777 55.253 C 59.350 55.611,58.010 57.029,56.800 58.402 C 55.590 59.775,54.088 61.372,53.463 61.949 C 52.837 62.527,51.644 63.990,50.811 65.200 C 49.979 66.410,48.920 67.739,48.458 68.153 C 47.997 68.568,47.714 69.061,47.830 69.249 C 47.946 69.437,47.770 69.487,47.438 69.359 C 47.024 69.201,46.752 69.453,46.575 70.157 C 46.433 70.723,45.727 71.551,45.005 71.997 C 44.284 72.442,43.469 73.350,43.194 74.014 C 42.919 74.678,42.161 75.600,41.510 76.064 C 40.858 76.528,39.987 77.697,39.573 78.662 C 39.160 79.627,38.560 80.517,38.242 80.639 C 37.923 80.762,37.087 82.018,36.385 83.431 C 35.682 84.844,34.976 86.000,34.815 86.000 C 34.154 86.000,32.763 87.587,32.327 88.838 C 32.070 89.574,31.278 90.938,30.567 91.870 C 29.856 92.802,29.054 94.248,28.786 95.082 C 28.518 95.917,28.051 96.885,27.749 97.232 C 27.446 97.580,27.328 97.995,27.487 98.154 C 27.646 98.312,27.491 98.333,27.144 98.200 C 26.382 97.908,25.421 99.753,25.006 102.300 C 24.854 103.235,24.574 104.000,24.383 104.000 C 23.125 104.000,21.246 107.300,21.752 108.620 C 21.889 108.977,21.822 109.137,21.595 108.997 C 21.370 108.858,21.200 109.250,21.200 109.912 C 21.200 110.767,20.932 111.194,20.179 111.537 C 19.011 112.069,17.848 114.494,18.109 115.856 C 18.205 116.362,18.130 116.681,17.942 116.564 C 17.754 116.448,17.600 116.735,17.600 117.203 C 17.600 117.671,16.994 118.627,16.253 119.327 C 14.860 120.644,14.000 123.268,14.000 126.206 C 14.000 127.135,13.635 127.993,12.859 128.886 C 11.146 130.857,10.792 131.747,10.539 134.702 C 10.378 136.578,10.023 137.826,9.373 138.800 C 7.652 141.375,7.111 143.275,6.895 147.505 C 6.731 150.698,6.522 151.798,5.953 152.455 C 4.168 154.512,3.574 157.369,3.316 165.144 C 3.087 172.035,3.003 172.654,2.135 173.934 C 0.256 176.703,0.200 177.406,0.200 198.200 C 0.200 219.201,0.349 220.807,2.505 222.962 C 2.936 223.393,3.132 225.348,3.317 231.065 C 3.575 238.978,3.813 240.214,5.670 243.244 C 6.572 244.716,6.800 245.564,6.802 247.444 C 6.806 251.477,7.457 254.248,8.980 256.716 C 10.048 258.445,10.402 259.461,10.406 260.808 C 10.411 262.101,10.519 262.433,10.795 262.000 C 11.055 261.592,11.097 261.899,10.926 262.962 C 10.764 263.973,10.818 264.436,11.080 264.274 C 11.325 264.123,11.414 264.394,11.305 264.963 C 11.167 265.682,11.462 266.159,12.563 266.999 C 13.823 267.960,14.000 268.309,14.000 269.828 C 14.000 273.039,14.809 275.689,16.219 277.099 C 17.103 277.983,17.623 278.965,17.811 280.106 C 18.272 282.910,19.088 284.529,19.886 284.222 C 20.265 284.077,20.446 284.088,20.287 284.246 C 20.128 284.405,20.242 284.820,20.541 285.168 C 20.839 285.515,21.287 286.880,21.535 288.200 C 21.898 290.133,22.253 290.836,23.358 291.812 C 24.376 292.712,24.888 293.638,25.348 295.412 C 25.772 297.045,26.340 298.135,27.144 298.859 C 27.791 299.441,28.453 300.341,28.616 300.859 C 28.779 301.376,29.592 302.824,30.422 304.076 C 31.252 305.329,32.063 306.769,32.223 307.276 C 32.663 308.668,33.591 309.943,34.336 310.180 C 34.701 310.297,35.450 311.246,36.000 312.290 C 36.550 313.335,37.471 314.732,38.046 315.395 C 38.622 316.058,39.479 317.362,39.951 318.294 C 40.424 319.226,41.251 320.277,41.790 320.630 C 42.328 320.983,42.880 321.621,43.015 322.049 C 43.294 322.926,45.049 324.800,45.593 324.800 C 45.789 324.800,46.356 325.525,46.855 326.412 C 47.412 327.404,47.969 327.944,48.301 327.817 C 48.637 327.688,48.733 327.785,48.555 328.073 C 48.364 328.381,48.489 328.451,48.930 328.282 C 49.293 328.143,49.556 328.157,49.513 328.314 C 49.372 328.833,50.705 330.983,51.798 332.000 C 52.389 332.550,53.507 333.862,54.282 334.916 C 56.663 338.152,61.147 342.506,61.829 342.244 C 62.166 342.115,62.345 342.165,62.227 342.356 C 62.109 342.547,62.955 343.526,64.106 344.533 C 67.614 347.600,69.704 349.507,71.850 351.600 C 72.978 352.700,74.148 353.601,74.450 353.603 C 74.753 353.604,75.299 354.131,75.665 354.774 C 76.031 355.417,76.931 356.253,77.665 356.630 C 78.399 357.008,79.777 357.999,80.727 358.833 C 81.677 359.666,82.977 360.463,83.617 360.604 C 84.301 360.754,85.298 361.514,86.039 362.449 C 86.801 363.411,87.757 364.131,88.459 364.272 C 89.097 364.399,89.972 364.998,90.402 365.603 C 91.364 366.954,93.757 368.140,95.030 367.896 C 95.550 367.797,95.881 367.870,95.764 368.058 C 95.648 368.246,95.833 368.400,96.176 368.400 C 96.519 368.400,96.800 368.555,96.800 368.745 C 96.800 369.392,98.826 371.120,99.901 371.390 C 100.490 371.538,101.819 372.280,102.853 373.039 C 103.887 373.798,105.693 374.738,106.866 375.128 C 108.040 375.517,109.786 376.409,110.747 377.109 C 111.708 377.809,113.148 378.499,113.947 378.643 C 115.729 378.965,116.572 379.380,118.492 380.885 C 119.565 381.726,120.742 382.175,122.692 382.486 C 124.788 382.821,125.658 383.175,126.544 384.056 C 127.805 385.309,130.334 386.159,132.051 385.907 C 132.660 385.818,133.067 385.892,132.955 386.072 C 132.844 386.253,133.277 386.400,133.918 386.400 C 134.622 386.400,135.533 386.817,136.219 387.453 C 137.900 389.010,139.445 389.516,143.422 389.811 C 145.832 389.989,147.326 390.304,148.000 390.776 C 150.829 392.757,154.755 393.600,161.154 393.600 C 163.767 393.600,164.354 393.744,165.968 394.779 C 168.951 396.694,170.846 396.843,195.021 397.072 C 224.859 397.355,230.857 396.982,234.400 394.623 C 235.636 393.800,236.434 393.664,241.200 393.461 C 247.101 393.209,250.222 392.498,251.788 391.047 C 252.615 390.280,253.389 390.078,256.303 389.871 C 260.478 389.575,262.222 389.032,263.682 387.576 C 264.558 386.703,265.283 386.443,267.482 386.214 C 270.527 385.896,273.022 384.942,274.162 383.658 C 274.581 383.186,275.357 382.800,275.886 382.800 C 276.414 382.800,276.752 382.646,276.636 382.458 C 276.519 382.270,276.855 382.198,277.382 382.299 C 278.688 382.548,280.907 381.763,282.149 380.612 C 282.714 380.089,283.856 379.444,284.688 379.180 C 288.642 377.922,289.637 377.472,290.871 376.384 C 291.602 375.740,292.563 375.210,293.006 375.206 C 293.953 375.199,296.656 373.831,297.803 372.779 C 298.245 372.374,299.325 371.799,300.203 371.500 C 301.081 371.201,301.757 370.748,301.705 370.493 C 301.652 370.238,301.854 370.123,302.153 370.237 C 302.702 370.448,303.359 369.381,303.019 368.831 C 302.918 368.667,303.052 368.531,303.318 368.529 C 305.114 368.512,308.527 367.039,309.665 365.789 C 310.360 365.025,311.189 364.400,311.508 364.400 C 311.827 364.400,312.871 363.606,313.828 362.635 C 314.785 361.665,316.081 360.758,316.708 360.620 C 317.335 360.482,318.766 359.567,319.889 358.585 C 321.011 357.603,322.106 356.800,322.323 356.800 C 322.540 356.800,323.308 356.125,324.030 355.300 C 324.752 354.475,325.831 353.592,326.426 353.338 C 327.022 353.084,327.839 352.319,328.241 351.638 C 328.644 350.956,329.319 350.289,329.742 350.155 C 330.165 350.021,331.350 349.076,332.376 348.055 C 333.401 347.035,335.172 345.411,336.312 344.448 C 337.451 343.484,338.287 342.541,338.171 342.352 C 338.054 342.164,338.194 342.100,338.482 342.210 C 339.092 342.444,342.000 340.170,342.000 339.459 C 342.000 339.194,342.380 338.712,342.843 338.388 C 343.307 338.065,344.309 336.990,345.069 336.000 C 346.747 333.813,349.594 330.571,351.941 328.171 C 353.051 327.037,353.596 326.168,353.446 325.775 C 353.310 325.422,353.378 325.263,353.605 325.403 C 353.822 325.537,354.000 325.457,354.000 325.224 C 354.000 324.991,354.254 324.800,354.564 324.800 C 355.219 324.800,357.030 322.766,357.393 321.623 C 357.529 321.193,357.995 320.729,358.427 320.591 C 358.860 320.454,359.596 319.590,360.064 318.671 C 360.532 317.752,361.508 316.305,362.235 315.454 C 362.961 314.604,363.907 313.159,364.338 312.243 C 364.768 311.327,365.583 310.330,366.148 310.028 C 366.825 309.666,367.398 308.810,367.824 307.526 C 368.181 306.453,368.882 305.086,369.382 304.488 C 369.882 303.889,370.695 302.590,371.188 301.600 C 371.682 300.610,372.590 299.260,373.205 298.600 C 373.856 297.903,374.608 296.372,375.002 294.946 C 375.488 293.185,375.948 292.349,376.631 291.984 C 377.605 291.462,378.567 289.325,378.980 286.764 C 379.134 285.811,379.531 285.158,380.162 284.820 C 381.307 284.208,381.760 283.281,382.383 280.283 C 382.648 279.007,383.165 277.785,383.560 277.503 C 384.884 276.557,385.542 275.000,386.055 271.600 C 386.451 268.970,386.786 267.981,387.532 267.234 C 388.872 265.891,389.472 264.259,389.815 261.020 C 390.041 258.896,390.380 257.868,391.256 256.659 C 392.695 254.673,393.094 253.169,393.447 248.409 C 393.680 245.266,393.924 244.286,394.868 242.685 C 396.438 240.022,396.739 238.338,397.037 230.556 C 397.285 224.058,397.343 223.701,398.547 221.209 L 399.800 218.618 399.913 199.609 C 400.033 179.488,399.886 177.274,398.228 174.266 C 397.406 172.775,397.281 171.855,397.034 165.504 C 396.744 158.013,396.241 155.385,394.610 152.842 C 393.898 151.731,393.625 150.573,393.422 147.800 C 393.091 143.268,392.702 141.798,391.247 139.576 C 390.411 138.301,390.004 137.067,389.801 135.200 C 389.487 132.307,388.680 130.261,387.311 128.882 C 386.768 128.334,386.400 127.477,386.400 126.758 C 386.400 126.095,386.246 125.648,386.058 125.764 C 385.870 125.881,385.802 125.526,385.907 124.977 C 386.223 123.319,385.166 120.393,383.733 118.960 C 382.833 118.060,382.400 117.249,382.400 116.462 C 382.400 114.808,381.392 112.609,380.207 111.677 C 379.506 111.126,379.075 110.249,378.806 108.830 C 378.327 106.307,377.905 105.489,376.584 104.526 C 375.912 104.037,375.421 103.157,375.168 101.988 C 374.582 99.280,374.037 98.155,373.058 97.631 C 372.534 97.351,371.769 96.149,371.196 94.708 C 370.662 93.362,369.851 91.887,369.394 91.430 C 368.938 90.974,368.283 89.880,367.938 89.000 C 367.589 88.110,366.767 87.045,366.086 86.600 C 365.411 86.160,364.751 85.388,364.618 84.884 C 364.485 84.380,364.204 84.074,363.993 84.204 C 363.779 84.337,363.715 84.166,363.849 83.818 C 364.126 83.096,363.067 81.327,361.726 80.271 C 361.217 79.870,360.800 79.293,360.800 78.988 C 360.800 78.683,360.063 77.661,359.162 76.717 C 358.261 75.773,357.258 74.489,356.934 73.865 C 356.609 73.241,355.816 72.431,355.171 72.065 C 354.526 71.699,353.895 71.082,353.770 70.694 C 353.645 70.306,353.377 70.090,353.176 70.215 C 352.974 70.340,352.899 70.207,353.008 69.921 C 353.118 69.634,352.530 68.668,351.704 67.773 C 349.435 65.318,347.958 63.609,346.196 61.400 C 345.318 60.300,343.835 58.642,342.900 57.715 C 341.965 56.788,341.200 55.855,341.200 55.642 C 341.200 55.428,340.852 55.143,340.426 55.008 C 340.000 54.873,338.840 54.006,337.849 53.081 C 333.234 48.777,331.196 47.155,330.750 47.431 C 330.431 47.628,330.383 47.551,330.604 47.194 C 330.841 46.810,330.749 46.734,330.270 46.918 C 329.907 47.057,329.652 47.039,329.705 46.878 C 329.757 46.716,329.572 46.317,329.293 45.992 C 329.014 45.666,328.474 45.022,328.093 44.559 C 327.712 44.097,326.815 43.417,326.100 43.049 C 325.385 42.681,324.800 42.212,324.800 42.008 C 324.800 41.458,322.843 39.600,322.264 39.600 C 321.990 39.600,321.083 38.880,320.249 38.000 C 319.415 37.120,318.493 36.400,318.200 36.400 C 317.908 36.400,316.361 35.410,314.764 34.200 C 313.167 32.990,311.657 32.000,311.409 32.000 C 311.160 32.000,310.364 31.389,309.640 30.641 C 308.835 29.811,307.599 29.085,306.461 28.775 C 305.369 28.478,303.902 27.635,302.909 26.734 C 301.979 25.890,300.885 25.200,300.479 25.200 C 300.072 25.200,299.303 24.732,298.770 24.161 C 297.569 22.875,295.433 21.755,293.481 21.389 C 292.667 21.236,292.000 20.954,292.000 20.761 C 292.000 20.121,289.028 18.454,287.000 17.955 C 285.900 17.685,284.350 16.944,283.555 16.309 C 281.952 15.028,278.995 14.000,276.914 14.000 C 275.934 14.000,275.255 13.680,274.477 12.850 C 272.999 11.272,272.066 10.858,269.342 10.567 C 267.693 10.391,266.508 9.974,265.336 9.159 C 263.152 7.641,259.390 6.701,256.163 6.867 C 254.752 6.940,253.599 6.846,253.599 6.657 C 253.600 6.469,253.332 6.417,253.005 6.543 C 252.677 6.668,252.429 6.643,252.452 6.486 C 252.740 4.556,248.105 3.200,241.225 3.200 C 239.209 3.200,238.262 3.012,237.554 2.469 C 234.476 0.112,235.949 0.205,201.000 0.143 C 183.400 0.111,168.196 0.243,167.214 0.437 M210.597 11.399 C 214.995 11.722,219.945 12.254,221.597 12.580 C 223.249 12.907,226.760 13.361,229.400 13.591 C 235.005 14.078,237.868 14.607,240.504 15.643 C 241.552 16.055,244.342 16.742,246.704 17.170 C 249.067 17.599,252.196 18.402,253.658 18.955 C 255.120 19.509,257.810 20.343,259.635 20.809 C 261.460 21.275,263.684 22.079,264.577 22.597 C 265.470 23.114,267.280 23.845,268.600 24.220 C 269.920 24.596,272.170 25.485,273.600 26.197 C 275.030 26.908,276.920 27.718,277.800 27.997 C 278.680 28.276,280.390 29.105,281.600 29.840 C 282.810 30.575,284.577 31.448,285.526 31.780 C 286.476 32.112,287.741 32.731,288.338 33.156 C 288.935 33.581,290.228 34.368,291.211 34.905 C 301.319 40.427,313.569 49.000,322.185 56.581 C 332.051 65.262,342.701 76.446,347.534 83.200 C 348.242 84.190,349.713 86.170,350.802 87.600 C 352.971 90.448,357.324 96.919,359.735 100.879 C 360.580 102.265,361.880 104.390,362.626 105.600 C 363.371 106.810,364.350 108.610,364.800 109.600 C 365.250 110.590,365.913 111.940,366.273 112.600 C 368.499 116.684,372.400 124.968,372.400 125.612 C 372.400 125.948,373.038 127.554,373.818 129.182 C 374.598 130.809,375.566 133.332,375.970 134.789 C 376.374 136.245,377.151 138.328,377.697 139.418 C 378.640 141.299,379.229 143.411,379.812 147.000 C 379.954 147.880,380.604 150.130,381.255 152.000 C 381.906 153.870,382.713 157.380,383.049 159.800 C 383.385 162.220,384.194 166.622,384.849 169.582 C 387.585 181.966,387.581 214.900,384.841 226.685 C 384.187 229.498,383.448 233.600,383.199 235.800 C 382.926 238.213,382.211 241.387,381.398 243.800 C 380.657 246.000,379.774 249.312,379.436 251.160 C 379.098 253.007,378.367 255.388,377.812 256.449 C 377.257 257.510,376.421 259.779,375.953 261.489 C 375.486 263.200,374.603 265.595,373.991 266.810 C 373.380 268.026,372.664 269.826,372.400 270.810 C 372.136 271.795,371.313 273.689,370.571 275.019 C 369.829 276.350,368.961 278.177,368.642 279.080 C 368.324 279.983,367.611 281.414,367.058 282.261 C 366.505 283.107,365.740 284.610,365.358 285.600 C 364.976 286.590,364.109 288.207,363.431 289.192 C 362.754 290.178,361.830 291.708,361.377 292.592 C 360.466 294.372,358.320 297.947,357.053 299.797 C 356.602 300.455,355.373 302.255,354.323 303.797 C 348.285 312.658,342.878 319.274,334.229 328.378 C 328.610 334.293,317.833 343.773,312.151 347.800 C 306.805 351.588,303.167 354.159,301.400 355.398 C 300.300 356.170,298.346 357.334,297.058 357.987 C 295.769 358.639,294.509 359.339,294.258 359.543 C 291.192 362.030,271.877 371.419,267.879 372.367 C 266.822 372.617,264.752 373.426,263.279 374.164 C 261.805 374.903,259.253 375.802,257.606 376.163 C 255.959 376.525,253.529 377.253,252.206 377.782 C 250.883 378.310,248.090 379.033,246.000 379.387 C 243.910 379.741,240.850 380.462,239.200 380.988 C 235.349 382.216,234.885 382.300,228.200 382.989 C 225.120 383.306,220.080 383.835,217.000 384.165 C 203.139 385.648,200.483 385.711,189.991 384.808 C 184.606 384.344,179.840 383.884,179.400 383.785 C 178.960 383.686,175.799 383.335,172.375 383.004 C 168.951 382.673,164.811 382.028,163.175 381.571 C 161.539 381.114,157.770 380.228,154.800 379.602 C 151.830 378.976,148.574 378.109,147.565 377.674 C 146.556 377.240,144.340 376.503,142.641 376.037 C 140.943 375.571,138.680 374.747,137.613 374.206 C 136.546 373.666,134.295 372.854,132.611 372.403 C 130.928 371.952,126.636 370.163,123.075 368.427 C 119.514 366.691,116.150 365.140,115.600 364.980 C 114.553 364.674,109.810 362.054,105.910 359.626 C 104.651 358.842,102.173 357.300,100.403 356.200 C 94.767 352.698,90.636 349.923,89.400 348.812 C 88.740 348.218,86.670 346.606,84.800 345.228 C 75.442 338.334,58.471 321.335,52.600 312.975 C 51.940 312.035,50.311 309.856,48.981 308.133 C 45.802 304.016,40.062 295.260,38.391 291.979 C 37.892 291.001,37.075 289.660,36.574 289.000 C 36.073 288.340,35.292 286.855,34.838 285.701 C 34.384 284.546,33.580 282.926,33.052 282.101 C 32.523 281.275,31.765 279.700,31.367 278.600 C 30.969 277.500,30.232 275.966,29.729 275.191 C 29.226 274.416,28.387 272.526,27.865 270.991 C 27.343 269.456,26.466 267.300,25.918 266.200 C 25.369 265.100,24.622 262.988,24.257 261.506 C 23.893 260.025,23.068 257.775,22.424 256.506 C 21.781 255.238,21.050 252.940,20.799 251.400 C 20.549 249.860,19.738 246.800,18.997 244.600 C 18.206 242.250,17.401 238.703,17.046 236.000 C 16.713 233.470,15.990 229.510,15.438 227.200 C 12.536 215.038,12.624 182.154,15.596 168.400 C 16.237 165.430,16.961 161.380,17.204 159.400 C 17.446 157.420,18.172 154.257,18.816 152.372 C 19.460 150.487,20.331 147.233,20.752 145.141 C 21.172 143.049,21.964 140.452,22.512 139.369 C 23.059 138.286,23.827 136.230,24.218 134.800 C 24.608 133.370,25.419 131.210,26.019 130.000 C 26.619 128.790,27.379 126.900,27.708 125.800 C 28.036 124.700,29.047 122.396,29.953 120.681 C 30.859 118.966,31.600 117.335,31.600 117.057 C 31.600 116.780,32.193 115.568,32.918 114.364 C 33.643 113.161,34.651 111.153,35.158 109.904 C 35.665 108.654,36.347 107.410,36.674 107.139 C 37.000 106.868,37.889 105.466,38.649 104.023 C 39.409 102.580,40.601 100.500,41.297 99.400 C 44.357 94.563,47.013 90.615,48.247 89.069 C 50.408 86.361,52.279 83.933,53.849 81.800 C 59.493 74.131,75.280 58.253,83.157 52.323 C 84.123 51.595,85.852 50.280,86.998 49.400 C 92.909 44.864,95.387 43.090,96.916 42.302 C 97.842 41.825,99.700 40.707,101.045 39.817 C 106.456 36.238,114.341 31.597,114.999 31.605 C 115.379 31.610,120.718 29.092,126.400 26.227 C 127.830 25.506,130.170 24.599,131.600 24.212 C 133.030 23.824,135.044 23.080,136.076 22.559 C 137.108 22.037,139.300 21.241,140.948 20.789 C 142.595 20.337,145.030 19.526,146.358 18.986 C 147.686 18.446,150.444 17.725,152.486 17.382 C 154.529 17.040,157.820 16.245,159.800 15.615 C 164.505 14.119,164.538 14.113,170.600 13.612 C 173.460 13.375,177.240 12.894,179.000 12.542 C 186.638 11.017,199.207 10.562,210.597 11.399 M182.305 396.675 C 181.922 396.775,181.202 396.779,180.705 396.683 C 180.207 396.587,180.520 396.505,181.400 396.501 C 182.280 396.496,182.687 396.575,182.305 396.675 M219.905 396.675 C 219.522 396.775,218.802 396.779,218.305 396.683 C 217.807 396.587,218.120 396.505,219.000 396.501 C 219.880 396.496,220.287 396.575,219.905 396.675 " stroke="none" fill="#686262" fill-rule="evenodd"></path><path id="path1" d="M122.610 136.881 C 120.415 137.085,117.625 137.611,116.410 138.051 C 115.194 138.490,112.490 139.448,110.400 140.178 C 102.228 143.035,91.331 151.214,87.308 157.511 C 86.926 158.110,85.845 159.655,84.906 160.944 C 83.968 162.233,83.200 163.493,83.199 163.744 C 83.198 163.995,82.573 165.236,81.809 166.503 C 81.045 167.770,80.131 169.930,79.777 171.303 C 79.423 172.676,78.589 175.044,77.924 176.564 C 74.783 183.745,74.356 214.341,77.284 222.400 C 77.724 223.610,78.592 226.063,79.213 227.850 C 81.205 233.584,85.870 241.341,90.128 246.000 C 93.358 249.534,101.223 256.000,102.292 256.000 C 102.489 256.000,103.834 256.714,105.280 257.586 C 106.727 258.459,109.146 259.527,110.655 259.961 C 112.165 260.396,114.552 261.230,115.960 261.815 C 121.301 264.037,143.086 264.167,149.000 262.013 C 150.320 261.532,153.047 260.635,155.059 260.020 C 157.072 259.406,159.322 258.450,160.059 257.897 C 160.797 257.344,162.210 256.485,163.200 255.988 C 167.686 253.737,175.187 246.340,177.387 241.997 C 177.776 241.229,178.546 239.998,179.097 239.261 C 179.649 238.525,180.603 236.617,181.217 235.021 C 181.832 233.425,182.709 231.420,183.167 230.566 C 184.019 228.976,184.224 227.372,183.685 226.523 C 183.093 225.593,177.354 223.207,174.319 222.631 C 172.625 222.309,169.985 221.496,168.452 220.823 C 164.078 218.903,162.449 219.289,161.794 222.400 C 160.512 228.488,153.211 238.130,147.057 241.865 C 140.646 245.755,123.809 246.209,118.391 242.638 C 117.616 242.127,116.236 241.329,115.324 240.863 C 110.408 238.355,103.849 230.327,102.376 225.017 C 101.996 223.647,101.384 221.942,101.015 221.228 C 98.149 215.686,97.891 185.636,100.653 179.073 C 101.212 177.745,102.010 175.565,102.426 174.229 C 106.335 161.671,125.838 150.809,138.003 154.414 C 138.771 154.642,141.043 155.261,143.050 155.790 C 149.007 157.359,156.101 162.696,158.482 167.400 C 160.275 170.942,162.139 173.672,162.981 173.993 C 164.373 174.522,170.267 173.640,173.694 172.389 C 175.396 171.768,178.156 171.039,179.826 170.770 C 184.348 170.040,184.892 169.083,182.848 165.449 C 182.214 164.322,181.482 162.733,181.222 161.917 C 180.098 158.393,173.939 150.411,170.470 147.984 C 169.441 147.264,168.060 146.191,167.400 145.600 C 164.917 143.374,158.958 140.594,151.000 137.950 C 146.813 136.559,132.064 136.003,122.610 136.881 M212.988 138.413 C 212.212 139.270,212.198 140.228,212.096 199.046 C 211.982 264.900,211.847 261.229,214.405 261.741 C 216.571 262.174,231.375 262.037,232.711 261.571 C 234.779 260.850,234.800 260.587,234.800 235.599 L 234.800 212.518 235.705 211.175 C 237.372 208.702,239.953 208.458,252.114 209.620 C 256.257 210.016,257.198 210.366,260.954 212.910 C 264.295 215.171,269.928 221.477,272.895 226.276 C 273.277 226.894,274.177 228.147,274.895 229.059 C 275.613 229.972,277.010 231.911,278.000 233.368 C 280.394 236.890,283.284 241.005,284.846 243.114 C 285.544 244.057,286.675 245.710,287.358 246.787 C 288.041 247.864,289.399 249.882,290.376 251.273 C 291.353 252.663,292.933 254.969,293.887 256.398 C 297.583 261.933,298.163 262.110,312.039 261.928 C 324.363 261.768,324.726 261.579,321.736 256.894 C 320.302 254.648,318.549 251.916,315.062 246.500 C 314.106 245.015,312.403 242.360,311.277 240.600 C 310.151 238.840,308.818 236.871,308.315 236.225 C 307.812 235.578,306.845 234.134,306.167 233.016 C 301.410 225.170,292.782 215.804,286.980 212.188 C 281.429 208.728,283.530 205.422,292.895 202.881 C 295.257 202.240,297.867 201.266,298.695 200.716 C 299.523 200.165,301.010 199.252,302.000 198.685 C 320.250 188.233,319.747 153.461,301.209 144.005 C 300.224 143.502,298.750 142.649,297.934 142.109 C 296.828 141.377,294.997 140.878,290.725 140.146 C 278.392 138.032,276.236 137.921,243.988 137.726 L 213.776 137.543 212.988 138.413 M278.000 156.426 C 283.188 157.264,289.371 161.963,290.544 165.958 C 293.687 176.663,290.665 185.332,282.400 189.320 C 279.418 190.759,271.536 191.305,253.000 191.359 C 232.960 191.418,234.723 193.222,234.886 172.820 C 235.013 156.888,234.949 157.248,237.767 156.430 C 239.541 155.915,274.816 155.912,278.000 156.426 M180.705 396.683 C 181.202 396.779,181.922 396.775,182.305 396.675 C 182.687 396.575,182.280 396.496,181.400 396.501 C 180.520 396.505,180.207 396.587,180.705 396.683 M218.305 396.683 C 218.802 396.779,219.522 396.775,219.905 396.675 C 220.287 396.575,219.880 396.496,219.000 396.501 C 218.120 396.505,217.807 396.587,218.305 396.683 " stroke="none" fill="#fbc8c8" fill-rule="evenodd"></path><path id="path2" d="M186.600 14.828 C 177.312 15.220,172.405 15.782,167.585 17.004 C 165.445 17.546,161.827 18.282,159.547 18.639 C 157.266 18.995,153.870 19.816,152.000 20.463 C 150.130 21.110,147.340 21.906,145.800 22.232 C 144.260 22.558,141.650 23.441,140.000 24.194 C 138.350 24.947,135.863 25.841,134.474 26.180 C 133.085 26.519,131.195 27.227,130.274 27.753 C 129.353 28.279,127.681 29.006,126.558 29.368 C 125.435 29.730,123.714 30.534,122.735 31.155 C 121.755 31.777,119.884 32.682,118.577 33.166 C 117.269 33.651,115.545 34.475,114.745 34.999 C 113.945 35.523,112.595 36.242,111.745 36.597 C 110.895 36.951,109.300 37.835,108.200 38.559 C 107.100 39.284,104.788 40.805,103.063 41.939 C 101.337 43.072,99.678 44.000,99.376 44.000 C 99.075 44.000,98.237 44.514,97.514 45.141 C 96.791 45.769,95.480 46.758,94.600 47.339 C 93.136 48.305,90.153 50.482,85.571 53.927 C 83.171 55.731,69.435 68.203,68.140 69.754 C 67.567 70.439,65.339 72.890,63.188 75.200 C 58.917 79.787,56.854 82.233,54.414 85.600 C 53.537 86.810,52.013 88.880,51.028 90.200 C 48.890 93.064,44.585 99.433,42.962 102.135 C 39.937 107.171,37.912 110.789,36.993 112.800 C 36.440 114.010,35.710 115.450,35.370 116.000 C 35.030 116.550,34.309 117.990,33.768 119.200 C 33.228 120.410,32.171 122.586,31.420 124.036 C 30.669 125.485,29.761 127.806,29.402 129.192 C 29.043 130.578,28.317 132.542,27.788 133.556 C 27.259 134.570,26.368 136.988,25.807 138.929 C 25.246 140.870,24.412 143.193,23.953 144.091 C 23.495 144.990,22.781 147.643,22.367 149.987 C 21.954 152.331,21.089 155.858,20.446 157.825 C 19.606 160.393,19.095 163.174,18.634 167.699 C 18.280 171.163,17.723 175.123,17.396 176.499 C 15.164 185.870,15.260 208.156,17.588 220.800 C 18.013 223.110,18.563 227.250,18.810 230.000 C 19.141 233.681,19.608 236.055,20.581 239.000 C 21.308 241.200,22.020 243.900,22.164 245.000 C 22.609 248.415,23.272 250.926,24.239 252.856 C 24.751 253.877,25.473 255.947,25.845 257.456 C 26.217 258.965,27.021 261.204,27.632 262.432 C 28.243 263.660,29.036 265.820,29.393 267.232 C 29.751 268.644,30.553 270.633,31.175 271.651 C 31.797 272.668,32.684 274.514,33.147 275.751 C 33.610 276.988,34.434 278.675,34.979 279.500 C 35.523 280.325,36.232 281.749,36.554 282.664 C 37.148 284.354,38.909 287.554,41.800 292.198 C 42.680 293.611,44.300 296.221,45.400 297.997 C 48.139 302.418,58.026 315.770,59.620 317.200 C 59.988 317.530,62.316 320.050,64.794 322.800 C 67.271 325.550,70.311 328.758,71.549 329.929 C 76.676 334.780,83.644 340.958,85.318 342.138 C 86.303 342.832,88.506 344.480,90.213 345.800 C 91.920 347.120,93.695 348.458,94.158 348.774 C 94.621 349.090,95.900 350.022,97.001 350.846 C 98.102 351.670,99.478 352.525,100.060 352.747 C 100.641 352.968,102.295 353.925,103.733 354.874 C 108.634 358.107,110.997 359.462,115.400 361.564 C 117.820 362.719,121.420 364.452,123.400 365.415 C 130.314 368.776,133.308 370.007,136.515 370.805 C 138.291 371.247,140.520 372.063,141.468 372.619 C 142.416 373.174,144.859 373.983,146.896 374.416 C 148.933 374.850,151.686 375.637,153.013 376.166 C 154.340 376.694,157.850 377.521,160.813 378.003 C 163.776 378.485,168.540 379.397,171.400 380.028 C 183.234 382.641,218.675 382.528,229.800 379.842 C 232.000 379.310,236.146 378.505,239.013 378.052 C 241.881 377.600,245.469 376.762,246.987 376.191 C 248.504 375.619,251.448 374.802,253.528 374.374 C 255.607 373.946,258.679 372.984,260.354 372.237 C 262.029 371.490,264.030 370.752,264.800 370.597 C 265.570 370.442,267.100 369.866,268.200 369.318 C 269.300 368.770,271.454 367.866,272.987 367.310 C 274.520 366.755,276.452 365.872,277.280 365.350 C 278.107 364.827,279.553 364.095,280.492 363.723 C 283.527 362.520,295.595 355.906,297.766 354.256 C 298.445 353.741,299.599 353.010,300.331 352.633 C 301.877 351.837,302.800 351.178,312.665 343.837 C 323.813 335.541,338.941 320.151,347.485 308.414 C 348.852 306.536,350.524 304.280,351.202 303.400 C 352.853 301.254,355.100 297.762,356.092 295.800 C 356.537 294.920,357.501 293.376,358.234 292.368 C 358.968 291.361,359.756 290.042,359.986 289.438 C 360.215 288.834,360.926 287.579,361.566 286.649 C 362.206 285.720,363.182 283.845,363.735 282.482 C 364.289 281.120,365.119 279.476,365.579 278.829 C 366.040 278.182,366.690 276.877,367.025 275.930 C 367.359 274.982,368.186 273.226,368.863 272.027 C 369.540 270.827,370.438 268.605,370.858 267.088 C 371.278 265.570,372.072 263.442,372.621 262.358 C 373.170 261.275,373.903 259.265,374.249 257.894 C 374.596 256.522,375.386 254.230,376.006 252.800 C 376.625 251.370,377.501 248.130,377.952 245.600 C 378.404 243.070,379.236 239.862,379.802 238.471 C 380.587 236.540,380.968 234.502,381.413 229.859 C 381.734 226.513,382.360 221.802,382.804 219.388 C 384.969 207.627,384.967 189.198,382.799 177.000 C 382.369 174.580,381.759 169.990,381.443 166.800 C 381.020 162.538,380.545 160.045,379.651 157.400 C 378.982 155.420,378.154 152.118,377.811 150.063 C 377.468 148.008,376.678 145.128,376.056 143.663 C 375.434 142.198,374.696 140.010,374.416 138.800 C 374.136 137.590,373.396 135.576,372.772 134.323 C 372.147 133.071,371.348 131.001,370.996 129.723 C 370.453 127.753,369.433 125.416,366.230 118.800 C 365.963 118.250,365.359 117.080,364.888 116.200 C 364.416 115.320,363.564 113.610,362.995 112.400 C 361.712 109.671,359.280 105.342,358.151 103.777 C 357.685 103.130,356.828 101.700,356.247 100.600 C 355.209 98.634,353.576 96.159,351.231 93.000 C 347.525 88.008,346.124 86.079,345.469 85.065 C 340.846 77.910,320.072 57.528,310.600 50.855 C 309.280 49.925,307.120 48.362,305.800 47.381 C 302.874 45.207,300.952 43.947,296.985 41.600 C 295.311 40.610,293.100 39.243,292.071 38.563 C 291.042 37.882,289.307 36.930,288.215 36.447 C 287.123 35.964,285.944 35.311,285.594 34.995 C 285.245 34.679,283.657 33.883,282.065 33.227 C 280.472 32.570,278.680 31.684,278.081 31.257 C 277.482 30.831,275.909 30.127,274.586 29.692 C 273.263 29.258,271.105 28.363,269.790 27.703 C 268.476 27.043,266.320 26.194,265.000 25.816 C 263.680 25.439,261.396 24.604,259.924 23.961 C 258.453 23.318,255.843 22.502,254.124 22.148 C 252.406 21.793,249.641 21.003,247.980 20.391 C 246.319 19.779,243.529 19.068,241.780 18.811 C 240.031 18.553,236.324 17.823,233.543 17.188 C 222.997 14.780,206.887 13.970,186.600 14.828 M140.103 133.208 C 146.112 133.896,155.484 135.928,157.601 137.000 C 158.692 137.553,160.533 138.378,161.692 138.835 C 169.452 141.887,180.066 151.904,183.005 158.949 C 183.361 159.800,184.075 161.168,184.592 161.987 C 186.785 165.462,187.377 169.859,185.856 171.380 C 184.671 172.565,177.345 174.963,173.000 175.587 C 171.240 175.840,168.493 176.396,166.896 176.823 C 161.625 178.233,159.854 177.185,157.009 170.976 C 149.868 155.391,125.015 152.301,111.839 165.360 C 107.099 170.058,105.190 173.712,103.126 182.037 L 101.400 189.000 101.400 199.400 L 101.400 209.800 103.121 216.989 C 107.366 234.729,117.172 242.810,133.861 242.320 L 139.522 242.154 143.761 240.093 C 149.427 237.339,155.336 231.402,156.596 227.200 C 156.885 226.234,159.665 220.002,160.334 218.820 C 161.768 216.284,165.560 216.394,173.000 219.186 C 175.200 220.012,178.166 220.910,179.590 221.181 C 187.711 222.731,188.748 226.410,183.880 236.400 C 177.931 248.608,168.677 257.811,158.400 261.737 C 156.970 262.284,155.065 263.096,154.166 263.543 C 146.290 267.457,119.853 267.367,111.316 263.396 C 110.042 262.804,108.010 261.972,106.801 261.547 C 105.591 261.122,103.967 260.355,103.192 259.842 C 102.416 259.329,101.004 258.512,100.053 258.027 C 94.618 255.254,84.168 244.649,81.306 239.000 C 80.748 237.900,79.967 236.585,79.571 236.077 C 79.174 235.570,78.543 234.220,78.169 233.077 C 77.795 231.935,76.984 229.991,76.368 228.759 C 75.752 227.526,74.949 224.923,74.584 222.974 C 74.219 221.026,73.476 217.534,72.933 215.216 C 71.160 207.640,71.205 192.528,73.021 185.518 C 73.358 184.220,73.991 181.170,74.428 178.740 C 74.866 176.310,75.603 173.577,76.067 172.668 C 76.531 171.759,77.339 169.756,77.862 168.216 C 78.386 166.677,79.237 164.780,79.753 164.000 C 80.269 163.220,81.098 161.776,81.596 160.791 C 85.778 152.516,98.131 141.703,107.381 138.222 C 108.897 137.651,110.331 137.031,110.568 136.844 C 111.481 136.125,118.761 134.489,126.800 133.196 C 129.549 132.754,136.195 132.760,140.103 133.208 M281.400 135.588 C 286.333 135.865,288.533 136.174,291.000 136.938 C 292.760 137.482,295.280 138.228,296.600 138.596 C 299.947 139.526,305.763 143.101,308.447 145.876 C 312.288 149.848,313.843 152.507,317.522 161.400 C 318.492 163.744,318.509 179.840,317.544 182.200 C 313.332 192.500,309.898 197.259,304.200 200.695 C 302.880 201.491,301.385 202.459,300.879 202.846 C 300.372 203.232,298.572 204.023,296.879 204.602 C 293.102 205.895,288.694 208.035,288.498 208.671 C 288.418 208.931,289.938 210.467,291.876 212.087 C 298.021 217.221,302.961 222.985,309.509 232.665 C 312.850 237.603,317.781 245.172,318.718 246.800 C 319.288 247.790,320.087 249.050,320.494 249.600 C 322.267 251.995,325.494 257.267,326.569 259.525 C 328.939 264.503,328.094 264.795,311.287 264.798 C 296.159 264.800,296.036 264.763,292.105 258.939 C 289.818 255.552,287.185 251.714,285.423 249.200 C 282.856 245.539,279.181 240.201,278.000 238.417 C 277.450 237.587,276.422 236.119,275.715 235.154 C 275.009 234.189,273.569 232.190,272.515 230.712 C 260.853 214.342,256.876 211.600,244.799 211.600 C 240.696 211.600,239.979 211.701,239.079 212.409 L 238.051 213.218 237.925 237.109 C 237.763 267.999,239.463 264.901,222.778 264.718 L 212.017 264.600 210.908 263.491 L 209.800 262.382 209.694 200.491 C 209.581 134.530,209.513 136.910,211.555 135.800 C 212.790 135.129,270.115 134.955,281.400 135.588 M239.558 158.846 C 237.710 159.524,237.597 160.374,237.640 173.319 C 237.685 186.991,237.704 187.131,239.612 188.119 C 241.479 189.086,273.475 188.918,277.200 187.922 C 285.727 185.641,289.019 181.210,288.725 172.411 C 288.443 164.011,283.697 159.788,273.400 158.776 C 268.577 158.301,240.885 158.359,239.558 158.846 " stroke="none" fill="#cb3434" fill-rule="evenodd"></path><path id="path3" d="M126.800 133.196 C 118.761 134.489,111.481 136.125,110.568 136.844 C 110.331 137.031,108.897 137.651,107.381 138.222 C 98.131 141.703,85.778 152.516,81.596 160.791 C 81.098 161.776,80.269 163.220,79.753 164.000 C 79.237 164.780,78.386 166.677,77.862 168.216 C 77.339 169.756,76.531 171.759,76.067 172.668 C 75.603 173.577,74.866 176.310,74.428 178.740 C 73.991 181.170,73.358 184.220,73.021 185.518 C 71.205 192.528,71.160 207.640,72.933 215.216 C 73.476 217.534,74.219 221.026,74.584 222.974 C 74.949 224.923,75.752 227.526,76.368 228.759 C 76.984 229.991,77.795 231.935,78.169 233.077 C 78.543 234.220,79.174 235.570,79.571 236.077 C 79.967 236.585,80.748 237.900,81.306 239.000 C 84.168 244.649,94.618 255.254,100.053 258.027 C 101.004 258.512,102.416 259.329,103.192 259.842 C 103.967 260.355,105.591 261.122,106.801 261.547 C 108.010 261.972,110.042 262.804,111.316 263.396 C 119.853 267.367,146.290 267.457,154.166 263.543 C 155.065 263.096,156.970 262.284,158.400 261.737 C 168.677 257.811,177.931 248.608,183.880 236.400 C 188.748 226.410,187.711 222.731,179.590 221.181 C 178.166 220.910,175.200 220.012,173.000 219.186 C 165.560 216.394,161.768 216.284,160.334 218.820 C 159.665 220.002,156.885 226.234,156.596 227.200 C 155.336 231.402,149.427 237.339,143.761 240.093 L 139.522 242.154 133.861 242.320 C 117.172 242.810,107.366 234.729,103.121 216.989 L 101.400 209.800 101.400 199.400 L 101.400 189.000 103.126 182.037 C 105.190 173.712,107.099 170.058,111.839 165.360 C 125.015 152.301,149.868 155.391,157.009 170.976 C 159.854 177.185,161.625 178.233,166.896 176.823 C 168.493 176.396,171.240 175.840,173.000 175.587 C 177.345 174.963,184.671 172.565,185.856 171.380 C 187.377 169.859,186.785 165.462,184.592 161.987 C 184.075 161.168,183.361 159.800,183.005 158.949 C 180.066 151.904,169.452 141.887,161.692 138.835 C 160.533 138.378,158.692 137.553,157.601 137.000 C 152.269 134.299,133.987 132.041,126.800 133.196 M211.555 135.800 C 209.513 136.910,209.581 134.530,209.694 200.491 L 209.800 262.382 210.908 263.491 L 212.017 264.600 222.778 264.718 C 239.463 264.901,237.763 267.999,237.925 237.109 L 238.051 213.218 239.079 212.409 C 239.979 211.701,240.696 211.600,244.799 211.600 C 256.876 211.600,260.853 214.342,272.515 230.712 C 273.569 232.190,275.009 234.189,275.715 235.154 C 276.422 236.119,277.450 237.587,278.000 238.417 C 279.181 240.201,282.856 245.539,285.423 249.200 C 287.185 251.714,289.818 255.552,292.105 258.939 C 296.036 264.763,296.159 264.800,311.287 264.798 C 328.094 264.795,328.939 264.503,326.569 259.525 C 325.494 257.267,322.267 251.995,320.494 249.600 C 320.087 249.050,319.288 247.790,318.718 246.800 C 318.148 245.810,316.138 242.660,314.250 239.800 C 303.491 223.498,299.257 218.254,291.876 212.087 C 289.938 210.467,288.418 208.931,288.498 208.671 C 288.694 208.035,293.102 205.895,296.879 204.602 C 298.572 204.023,300.372 203.232,300.879 202.846 C 301.385 202.459,302.880 201.491,304.200 200.695 C 309.898 197.259,313.332 192.500,317.544 182.200 C 318.509 179.840,318.492 163.744,317.522 161.400 C 313.843 152.507,312.288 149.848,308.447 145.876 C 305.763 143.101,299.947 139.526,296.600 138.596 C 295.280 138.228,292.760 137.482,291.000 136.938 C 286.269 135.473,279.520 135.229,243.800 135.231 C 217.612 135.232,212.432 135.323,211.555 135.800 M143.400 136.791 C 148.634 137.155,149.893 137.456,156.700 139.964 C 160.617 141.407,165.723 144.096,167.400 145.600 C 168.060 146.191,169.441 147.264,170.470 147.984 C 173.939 150.411,180.098 158.393,181.222 161.917 C 181.482 162.733,182.214 164.322,182.848 165.449 C 184.892 169.083,184.348 170.040,179.826 170.770 C 178.156 171.039,175.396 171.768,173.694 172.389 C 170.267 173.640,164.373 174.522,162.981 173.993 C 162.139 173.672,160.275 170.942,158.482 167.400 C 156.101 162.696,149.007 157.359,143.050 155.790 C 141.043 155.261,138.771 154.642,138.003 154.414 C 125.838 150.809,106.335 161.671,102.426 174.229 C 102.010 175.565,101.212 177.745,100.653 179.073 C 97.891 185.636,98.149 215.686,101.015 221.228 C 101.384 221.942,101.996 223.647,102.376 225.017 C 103.849 230.327,110.408 238.355,115.324 240.863 C 116.236 241.329,117.616 242.127,118.391 242.638 C 123.809 246.209,140.646 245.755,147.057 241.865 C 153.211 238.130,160.512 228.488,161.794 222.400 C 162.449 219.289,164.078 218.903,168.452 220.823 C 169.985 221.496,172.625 222.309,174.319 222.631 C 177.354 223.207,183.093 225.593,183.685 226.523 C 184.224 227.372,184.019 228.976,183.167 230.566 C 182.709 231.420,181.832 233.425,181.217 235.021 C 180.603 236.617,179.649 238.525,179.097 239.261 C 178.546 239.998,177.776 241.229,177.387 241.997 C 175.187 246.340,167.686 253.737,163.200 255.988 C 162.210 256.485,160.797 257.344,160.059 257.897 C 159.322 258.450,157.072 259.406,155.059 260.020 C 153.047 260.635,150.320 261.532,149.000 262.013 C 143.086 264.167,121.301 264.037,115.960 261.815 C 114.552 261.230,112.165 260.396,110.655 259.961 C 109.146 259.527,106.727 258.459,105.280 257.586 C 103.834 256.714,102.489 256.000,102.292 256.000 C 101.223 256.000,93.358 249.534,90.128 246.000 C 85.870 241.341,81.205 233.584,79.213 227.850 C 78.592 226.063,77.724 223.610,77.284 222.400 C 74.356 214.341,74.783 183.745,77.924 176.564 C 78.589 175.044,79.423 172.676,79.777 171.303 C 80.131 169.930,81.045 167.770,81.809 166.503 C 82.573 165.236,83.198 163.995,83.199 163.744 C 83.200 163.493,83.968 162.233,84.906 160.944 C 85.845 159.655,86.926 158.110,87.308 157.511 C 91.331 151.214,102.228 143.035,110.400 140.178 C 112.490 139.448,115.194 138.490,116.410 138.051 C 120.412 136.603,132.563 136.036,143.400 136.791 M279.600 138.537 C 289.361 139.672,296.293 141.023,297.934 142.109 C 298.750 142.649,300.224 143.502,301.209 144.005 C 319.747 153.461,320.250 188.233,302.000 198.685 C 301.010 199.252,299.523 200.165,298.695 200.716 C 297.867 201.266,295.257 202.240,292.895 202.881 C 283.530 205.422,281.429 208.728,286.980 212.188 C 292.782 215.804,301.410 225.170,306.167 233.016 C 306.845 234.134,307.812 235.578,308.315 236.225 C 308.818 236.871,310.151 238.840,311.277 240.600 C 312.403 242.360,314.106 245.015,315.062 246.500 C 318.549 251.916,320.302 254.648,321.736 256.894 C 324.726 261.579,324.363 261.768,312.039 261.928 C 298.163 262.110,297.583 261.933,293.887 256.398 C 292.933 254.969,291.353 252.663,290.376 251.273 C 289.399 249.882,288.041 247.864,287.358 246.787 C 286.675 245.710,285.544 244.057,284.846 243.114 C 283.284 241.005,280.394 236.890,278.000 233.368 C 277.010 231.911,275.613 229.972,274.895 229.059 C 274.177 228.147,273.277 226.894,272.895 226.276 C 269.928 221.477,264.295 215.171,260.954 212.910 C 257.198 210.366,256.257 210.016,252.114 209.620 C 239.953 208.458,237.372 208.702,235.705 211.175 L 234.800 212.518 234.800 235.599 C 234.800 260.587,234.779 260.850,232.711 261.571 C 231.375 262.037,216.571 262.174,214.405 261.741 C 211.847 261.229,211.982 264.900,212.096 199.046 C 212.198 140.228,212.212 139.270,212.988 138.413 L 213.776 137.543 243.988 137.726 C 267.964 137.871,275.315 138.038,279.600 138.537 M237.767 156.430 C 234.949 157.248,235.013 156.888,234.886 172.820 C 234.723 193.222,232.960 191.418,253.000 191.359 C 271.536 191.305,279.418 190.759,282.400 189.320 C 290.665 185.332,293.687 176.663,290.544 165.958 C 289.371 161.963,283.188 157.264,278.000 156.426 C 274.816 155.912,239.541 155.915,237.767 156.430 M273.400 158.776 C 283.697 159.788,288.443 164.011,288.725 172.411 C 289.019 181.210,285.727 185.641,277.200 187.922 C 273.475 188.918,241.479 189.086,239.612 188.119 C 237.704 187.131,237.685 186.991,237.640 173.319 C 237.597 160.374,237.710 159.524,239.558 158.846 C 240.885 158.359,268.577 158.301,273.400 158.776 " stroke="none" fill="#ec9494" fill-rule="evenodd"></path><path id="path4" d="M188.800 11.407 C 185.170 11.680,180.760 12.191,179.000 12.542 C 177.240 12.894,173.460 13.375,170.600 13.612 C 164.538 14.113,164.505 14.119,159.800 15.615 C 157.820 16.245,154.529 17.040,152.486 17.382 C 150.444 17.725,147.686 18.446,146.358 18.986 C 145.030 19.526,142.595 20.337,140.948 20.789 C 139.300 21.241,137.108 22.037,136.076 22.559 C 135.044 23.080,133.030 23.824,131.600 24.212 C 130.170 24.599,127.830 25.506,126.400 26.227 C 120.718 29.092,115.379 31.610,114.999 31.605 C 114.341 31.597,106.456 36.238,101.045 39.817 C 99.700 40.707,97.842 41.825,96.916 42.302 C 95.387 43.090,92.909 44.864,86.998 49.400 C 85.852 50.280,84.123 51.595,83.157 52.323 C 75.280 58.253,59.493 74.131,53.849 81.800 C 52.279 83.933,50.408 86.361,48.247 89.069 C 47.013 90.615,44.357 94.563,41.297 99.400 C 40.601 100.500,39.409 102.580,38.649 104.023 C 37.889 105.466,37.000 106.868,36.674 107.139 C 36.347 107.410,35.665 108.654,35.158 109.904 C 34.651 111.153,33.643 113.161,32.918 114.364 C 32.193 115.568,31.600 116.780,31.600 117.057 C 31.600 117.335,30.859 118.966,29.953 120.681 C 29.047 122.396,28.036 124.700,27.708 125.800 C 27.379 126.900,26.619 128.790,26.019 130.000 C 25.419 131.210,24.608 133.370,24.218 134.800 C 23.827 136.230,23.059 138.286,22.512 139.369 C 21.964 140.452,21.172 143.049,20.752 145.141 C 20.331 147.233,19.460 150.487,18.816 152.372 C 18.172 154.257,17.446 157.420,17.204 159.400 C 16.961 161.380,16.237 165.430,15.596 168.400 C 12.624 182.154,12.536 215.038,15.438 227.200 C 15.990 229.510,16.713 233.470,17.046 236.000 C 17.401 238.703,18.206 242.250,18.997 244.600 C 19.738 246.800,20.549 249.860,20.799 251.400 C 21.050 252.940,21.781 255.238,22.424 256.506 C 23.068 257.775,23.893 260.025,24.257 261.506 C 24.622 262.988,25.369 265.100,25.918 266.200 C 26.466 267.300,27.343 269.456,27.865 270.991 C 28.387 272.526,29.226 274.416,29.729 275.191 C 30.232 275.966,30.969 277.500,31.367 278.600 C 31.765 279.700,32.523 281.275,33.052 282.101 C 33.580 282.926,34.384 284.546,34.838 285.701 C 35.292 286.855,36.073 288.340,36.574 289.000 C 37.075 289.660,37.892 291.001,38.391 291.979 C 40.062 295.260,45.802 304.016,48.981 308.133 C 50.311 309.856,51.940 312.035,52.600 312.975 C 58.471 321.335,75.442 338.334,84.800 345.228 C 86.670 346.606,88.740 348.218,89.400 348.812 C 90.636 349.923,94.767 352.698,100.403 356.200 C 102.173 357.300,104.651 358.842,105.910 359.626 C 109.810 362.054,114.553 364.674,115.600 364.980 C 116.150 365.140,119.514 366.691,123.075 368.427 C 126.636 370.163,130.928 371.952,132.611 372.403 C 134.295 372.854,136.546 373.666,137.613 374.206 C 138.680 374.747,140.943 375.571,142.641 376.037 C 144.340 376.503,146.556 377.240,147.565 377.674 C 148.574 378.109,151.830 378.976,154.800 379.602 C 157.770 380.228,161.539 381.114,163.175 381.571 C 164.811 382.028,168.951 382.673,172.375 383.004 C 175.799 383.335,178.960 383.686,179.400 383.785 C 179.840 383.884,184.606 384.344,189.991 384.808 C 200.483 385.711,203.139 385.648,217.000 384.165 C 220.080 383.835,225.120 383.306,228.200 382.989 C 234.885 382.300,235.349 382.216,239.200 380.988 C 240.850 380.462,243.910 379.741,246.000 379.387 C 248.090 379.033,250.883 378.310,252.206 377.782 C 253.529 377.253,255.959 376.525,257.606 376.163 C 259.253 375.802,261.805 374.903,263.279 374.164 C 264.752 373.426,266.822 372.617,267.879 372.367 C 271.877 371.419,291.192 362.030,294.258 359.543 C 294.509 359.339,295.769 358.639,297.058 357.987 C 298.346 357.334,300.300 356.170,301.400 355.398 C 303.167 354.159,306.805 351.588,312.151 347.800 C 317.833 343.773,328.610 334.293,334.229 328.378 C 342.878 319.274,348.285 312.658,354.323 303.797 C 355.373 302.255,356.602 300.455,357.053 299.797 C 358.320 297.947,360.466 294.372,361.377 292.592 C 361.830 291.708,362.754 290.178,363.431 289.192 C 364.109 288.207,364.976 286.590,365.358 285.600 C 365.740 284.610,366.505 283.107,367.058 282.261 C 367.611 281.414,368.324 279.983,368.642 279.080 C 368.961 278.177,369.829 276.350,370.571 275.019 C 371.313 273.689,372.136 271.795,372.400 270.810 C 372.664 269.826,373.380 268.026,373.991 266.810 C 374.603 265.595,375.486 263.200,375.953 261.489 C 376.421 259.779,377.257 257.510,377.812 256.449 C 378.367 255.388,379.098 253.007,379.436 251.160 C 379.774 249.312,380.657 246.000,381.398 243.800 C 382.211 241.387,382.926 238.213,383.199 235.800 C 383.448 233.600,384.187 229.498,384.841 226.685 C 387.581 214.900,387.585 181.966,384.849 169.582 C 384.194 166.622,383.385 162.220,383.049 159.800 C 382.713 157.380,381.906 153.870,381.255 152.000 C 380.604 150.130,379.954 147.880,379.812 147.000 C 379.229 143.411,378.640 141.299,377.697 139.418 C 377.151 138.328,376.374 136.245,375.970 134.789 C 375.566 133.332,374.598 130.809,373.818 129.182 C 373.038 127.554,372.400 125.948,372.400 125.612 C 372.400 124.968,368.499 116.684,366.273 112.600 C 365.913 111.940,365.250 110.590,364.800 109.600 C 364.350 108.610,363.371 106.810,362.626 105.600 C 361.880 104.390,360.580 102.265,359.735 100.879 C 357.324 96.919,352.971 90.448,350.802 87.600 C 349.713 86.170,348.242 84.190,347.534 83.200 C 342.701 76.446,332.051 65.262,322.185 56.581 C 313.569 49.000,301.319 40.427,291.211 34.905 C 290.228 34.368,288.935 33.581,288.338 33.156 C 287.741 32.731,286.476 32.112,285.526 31.780 C 284.577 31.448,282.810 30.575,281.600 29.840 C 280.390 29.105,278.680 28.276,277.800 27.997 C 276.920 27.718,275.030 26.908,273.600 26.197 C 272.170 25.485,269.920 24.596,268.600 24.220 C 267.280 23.845,265.470 23.114,264.577 22.597 C 263.684 22.079,261.460 21.275,259.635 20.809 C 257.810 20.343,255.120 19.509,253.658 18.955 C 252.196 18.402,249.067 17.599,246.704 17.170 C 244.342 16.742,241.552 16.055,240.504 15.643 C 237.868 14.607,235.005 14.078,229.400 13.591 C 226.760 13.361,223.249 12.907,221.597 12.580 C 213.974 11.074,199.923 10.572,188.800 11.407 M212.400 14.809 C 223.599 15.294,226.855 15.661,233.543 17.188 C 236.324 17.823,240.031 18.553,241.780 18.811 C 243.529 19.068,246.319 19.779,247.980 20.391 C 249.641 21.003,252.406 21.793,254.124 22.148 C 255.843 22.502,258.453 23.318,259.924 23.961 C 261.396 24.604,263.680 25.439,265.000 25.816 C 266.320 26.194,268.476 27.043,269.790 27.703 C 271.105 28.363,273.263 29.258,274.586 29.692 C 275.909 30.127,277.482 30.831,278.081 31.257 C 278.680 31.684,280.472 32.570,282.065 33.227 C 283.657 33.883,285.245 34.679,285.594 34.995 C 285.944 35.311,287.123 35.964,288.215 36.447 C 289.307 36.930,291.042 37.882,292.071 38.563 C 293.100 39.243,295.311 40.610,296.985 41.600 C 300.952 43.947,302.874 45.207,305.800 47.381 C 307.120 48.362,309.280 49.925,310.600 50.855 C 320.072 57.528,340.846 77.910,345.469 85.065 C 346.124 86.079,347.525 88.008,351.231 93.000 C 353.576 96.159,355.209 98.634,356.247 100.600 C 356.828 101.700,357.685 103.130,358.151 103.777 C 359.280 105.342,361.712 109.671,362.995 112.400 C 363.564 113.610,364.416 115.320,364.888 116.200 C 365.359 117.080,365.963 118.250,366.230 118.800 C 369.433 125.416,370.453 127.753,370.996 129.723 C 371.348 131.001,372.147 133.071,372.772 134.323 C 373.396 135.576,374.136 137.590,374.416 138.800 C 374.696 140.010,375.434 142.198,376.056 143.663 C 376.678 145.128,377.468 148.008,377.811 150.063 C 378.154 152.118,378.982 155.420,379.651 157.400 C 380.545 160.045,381.020 162.538,381.443 166.800 C 381.759 169.990,382.369 174.580,382.799 177.000 C 384.967 189.198,384.969 207.627,382.804 219.388 C 382.360 221.802,381.734 226.513,381.413 229.859 C 380.968 234.502,380.587 236.540,379.802 238.471 C 379.236 239.862,378.404 243.070,377.952 245.600 C 377.501 248.130,376.625 251.370,376.006 252.800 C 375.386 254.230,374.596 256.522,374.249 257.894 C 373.903 259.265,373.170 261.275,372.621 262.358 C 372.072 263.442,371.278 265.570,370.858 267.088 C 370.438 268.605,369.540 270.827,368.863 272.027 C 368.186 273.226,367.359 274.982,367.025 275.930 C 366.690 276.877,366.040 278.182,365.579 278.829 C 365.119 279.476,364.289 281.120,363.735 282.482 C 363.182 283.845,362.206 285.720,361.566 286.649 C 360.926 287.579,360.215 288.834,359.986 289.438 C 359.756 290.042,358.968 291.361,358.234 292.368 C 357.501 293.376,356.537 294.920,356.092 295.800 C 355.100 297.762,352.853 301.254,351.202 303.400 C 350.524 304.280,348.852 306.536,347.485 308.414 C 338.941 320.151,323.813 335.541,312.665 343.837 C 302.800 351.178,301.877 351.837,300.331 352.633 C 299.599 353.010,298.445 353.741,297.766 354.256 C 295.595 355.906,283.527 362.520,280.492 363.723 C 279.553 364.095,278.107 364.827,277.280 365.350 C 276.452 365.872,274.520 366.755,272.987 367.310 C 271.454 367.866,269.300 368.770,268.200 369.318 C 267.100 369.866,265.570 370.442,264.800 370.597 C 264.030 370.752,262.029 371.490,260.354 372.237 C 258.679 372.984,255.607 373.946,253.528 374.374 C 251.448 374.802,248.504 375.619,246.987 376.191 C 245.469 376.762,241.881 377.600,239.013 378.052 C 236.146 378.505,232.000 379.310,229.800 379.842 C 218.675 382.528,183.234 382.641,171.400 380.028 C 168.540 379.397,163.776 378.485,160.813 378.003 C 157.850 377.521,154.340 376.694,153.013 376.166 C 151.686 375.637,148.933 374.850,146.896 374.416 C 144.859 373.983,142.416 373.174,141.468 372.619 C 140.520 372.063,138.291 371.247,136.515 370.805 C 133.308 370.007,130.314 368.776,123.400 365.415 C 121.420 364.452,117.820 362.719,115.400 361.564 C 110.997 359.462,108.634 358.107,103.733 354.874 C 102.295 353.925,100.641 352.968,100.060 352.747 C 99.478 352.525,98.102 351.670,97.001 350.846 C 95.900 350.022,94.621 349.090,94.158 348.774 C 93.695 348.458,91.920 347.120,90.213 345.800 C 88.506 344.480,86.303 342.832,85.318 342.138 C 83.644 340.958,76.676 334.780,71.549 329.929 C 70.311 328.758,67.271 325.550,64.794 322.800 C 62.316 320.050,59.988 317.530,59.620 317.200 C 58.026 315.770,48.139 302.418,45.400 297.997 C 44.300 296.221,42.680 293.611,41.800 292.198 C 38.909 287.554,37.148 284.354,36.554 282.664 C 36.232 281.749,35.523 280.325,34.979 279.500 C 34.434 278.675,33.610 276.988,33.147 275.751 C 32.684 274.514,31.797 272.668,31.175 271.651 C 30.553 270.633,29.751 268.644,29.393 267.232 C 29.036 265.820,28.243 263.660,27.632 262.432 C 27.021 261.204,26.217 258.965,25.845 257.456 C 25.473 255.947,24.751 253.877,24.239 252.856 C 23.272 250.926,22.609 248.415,22.164 245.000 C 22.020 243.900,21.308 241.200,20.581 239.000 C 19.608 236.055,19.141 233.681,18.810 230.000 C 18.563 227.250,18.013 223.110,17.588 220.800 C 15.260 208.156,15.164 185.870,17.396 176.499 C 17.723 175.123,18.280 171.163,18.634 167.699 C 19.095 163.174,19.606 160.393,20.446 157.825 C 21.089 155.858,21.954 152.331,22.367 149.987 C 22.781 147.643,23.495 144.990,23.953 144.091 C 24.412 143.193,25.246 140.870,25.807 138.929 C 26.368 136.988,27.259 134.570,27.788 133.556 C 28.317 132.542,29.043 130.578,29.402 129.192 C 29.761 127.806,30.669 125.485,31.420 124.036 C 32.171 122.586,33.228 120.410,33.768 119.200 C 34.309 117.990,35.030 116.550,35.370 116.000 C 35.710 115.450,36.440 114.010,36.993 112.800 C 37.912 110.789,39.937 107.171,42.962 102.135 C 44.585 99.433,48.890 93.064,51.028 90.200 C 52.013 88.880,53.537 86.810,54.414 85.600 C 56.854 82.233,58.917 79.787,63.188 75.200 C 65.339 72.890,67.567 70.439,68.140 69.754 C 69.435 68.203,83.171 55.731,85.571 53.927 C 90.153 50.482,93.136 48.305,94.600 47.339 C 95.480 46.758,96.791 45.769,97.514 45.141 C 98.237 44.514,99.075 44.000,99.376 44.000 C 99.678 44.000,101.337 43.072,103.063 41.939 C 104.788 40.805,107.100 39.284,108.200 38.559 C 109.300 37.835,110.895 36.951,111.745 36.597 C 112.595 36.242,113.945 35.523,114.745 34.999 C 115.545 34.475,117.269 33.651,118.577 33.166 C 119.884 32.682,121.755 31.777,122.735 31.155 C 123.714 30.534,125.435 29.730,126.558 29.368 C 127.681 29.006,129.353 28.279,130.274 27.753 C 131.195 27.227,133.085 26.519,134.474 26.180 C 135.863 25.841,138.350 24.947,140.000 24.194 C 141.650 23.441,144.260 22.558,145.800 22.232 C 147.340 21.906,150.130 21.110,152.000 20.463 C 153.870 19.816,157.266 18.995,159.547 18.639 C 161.827 18.282,165.445 17.546,167.585 17.004 C 176.105 14.844,193.522 13.991,212.400 14.809 " stroke="none" fill="#984d4d" fill-rule="evenodd"></path></g></svg>