<svg id="svg" version="1.1" xmlns="http://www.w3.org/2000/svg" xmlns:xlink="http://www.w3.org/1999/xlink" width="400" height="400" viewBox="0, 0, 400,400"><g id="svgg"><path id="path0" d="M167.214 0.437 C 166.231 0.630,164.554 1.331,163.487 1.994 C 161.745 3.077,161.213 3.201,158.273 3.206 C 156.473 3.209,155.206 3.344,155.458 3.506 C 155.710 3.668,154.606 3.811,153.004 3.824 C 150.093 3.847,148.283 4.516,147.480 5.863 C 147.304 6.158,146.889 6.400,146.557 6.400 C 146.224 6.400,146.037 6.535,146.139 6.700 C 146.242 6.865,145.275 6.940,143.991 6.866 C 140.761 6.680,137.615 7.416,135.421 8.869 C 134.150 9.711,132.624 10.261,130.566 10.618 C 128.072 11.051,127.296 11.382,125.981 12.570 C 124.836 13.604,124.031 14.000,123.071 14.000 C 120.913 14.000,117.861 15.096,116.410 16.391 C 115.665 17.056,114.898 17.600,114.704 17.600 C 114.511 17.600,114.481 17.808,114.638 18.062 C 114.820 18.357,114.747 18.415,114.436 18.222 C 113.564 17.683,111.258 18.402,109.464 19.772 C 108.499 20.509,106.735 21.395,105.544 21.741 C 104.353 22.087,102.663 22.968,101.789 23.698 C 100.915 24.428,99.695 25.246,99.077 25.515 C 98.397 25.811,98.067 26.185,98.239 26.464 C 98.418 26.753,98.347 26.814,98.046 26.628 C 97.761 26.452,97.240 26.750,96.755 27.366 C 96.308 27.935,95.550 28.404,95.071 28.409 C 93.733 28.422,90.905 29.841,90.322 30.791 C 90.035 31.259,89.080 31.967,88.200 32.365 C 87.320 32.762,86.052 33.619,85.383 34.268 C 84.714 34.917,83.316 35.860,82.276 36.363 C 81.237 36.866,80.203 37.620,79.980 38.038 C 79.756 38.456,78.844 39.169,77.954 39.624 C 77.063 40.078,76.034 40.977,75.667 41.622 C 75.300 42.267,74.752 42.796,74.449 42.797 C 74.146 42.799,73.066 43.598,72.049 44.574 C 69.370 47.144,66.019 50.070,64.344 51.303 C 63.543 51.892,62.363 52.875,61.721 53.487 C 61.079 54.099,60.204 54.894,59.777 55.253 C 59.350 55.611,58.010 57.029,56.800 58.402 C 55.590 59.775,54.088 61.372,53.463 61.949 C 52.837 62.527,51.644 63.990,50.811 65.200 C 49.979 66.410,48.920 67.739,48.458 68.153 C 47.997 68.568,47.714 69.061,47.830 69.249 C 47.946 69.437,47.770 69.487,47.438 69.359 C 47.024 69.201,46.752 69.453,46.575 70.157 C 46.433 70.723,45.727 71.551,45.005 71.997 C 44.284 72.442,43.469 73.350,43.194 74.014 C 42.919 74.678,42.161 75.600,41.510 76.064 C 40.858 76.528,39.987 77.697,39.573 78.662 C 39.160 79.627,38.560 80.517,38.242 80.639 C 37.923 80.762,37.087 82.018,36.385 83.431 C 35.682 84.844,34.976 86.000,34.815 86.000 C 34.154 86.000,32.763 87.587,32.327 88.838 C 32.070 89.574,31.278 90.938,30.567 91.870 C 29.856 92.802,29.054 94.248,28.786 95.082 C 28.518 95.917,28.051 96.885,27.749 97.232 C 27.446 97.580,27.328 97.995,27.487 98.154 C 27.646 98.312,27.491 98.333,27.144 98.200 C 26.382 97.908,25.421 99.753,25.006 102.300 C 24.854 103.235,24.574 104.000,24.383 104.000 C 23.125 104.000,21.246 107.300,21.752 108.620 C 21.889 108.977,21.822 109.137,21.595 108.997 C 21.370 108.858,21.200 109.250,21.200 109.912 C 21.200 110.767,20.932 111.194,20.179 111.537 C 19.011 112.069,17.848 114.494,18.109 115.856 C 18.205 116.362,18.130 116.681,17.942 116.564 C 17.754 116.448,17.600 116.735,17.600 117.203 C 17.600 117.671,16.994 118.627,16.253 119.327 C 14.860 120.644,14.000 123.268,14.000 126.206 C 14.000 127.135,13.635 127.993,12.859 128.886 C 11.146 130.857,10.792 131.747,10.539 134.702 C 10.378 136.578,10.023 137.826,9.373 138.800 C 7.652 141.375,7.111 143.275,6.895 147.505 C 6.731 150.698,6.522 151.798,5.953 152.455 C 4.168 154.512,3.574 157.369,3.316 165.144 C 3.087 172.035,3.003 172.654,2.135 173.934 C 0.256 176.703,0.200 177.406,0.200 198.200 C 0.200 219.201,0.349 220.807,2.505 222.962 C 2.936 223.393,3.132 225.348,3.317 231.065 C 3.575 238.978,3.813 240.214,5.670 243.244 C 6.572 244.716,6.800 245.564,6.802 247.444 C 6.806 251.477,7.457 254.248,8.980 256.716 C 10.048 258.445,10.402 259.461,10.406 260.808 C 10.411 262.101,10.519 262.433,10.795 262.000 C 11.055 261.592,11.097 261.899,10.926 262.962 C 10.764 263.973,10.818 264.436,11.080 264.274 C 11.325 264.123,11.414 264.394,11.305 264.963 C 11.167 265.682,11.462 266.159,12.563 266.999 C 13.823 267.960,14.000 268.309,14.000 269.828 C 14.000 273.039,14.809 275.689,16.219 277.099 C 17.103 277.983,17.623 278.965,17.811 280.106 C 18.272 282.910,19.088 284.529,19.886 284.222 C 20.265 284.077,20.446 284.088,20.287 284.246 C 20.128 284.405,20.242 284.820,20.541 285.168 C 20.839 285.515,21.287 286.880,21.535 288.200 C 21.898 290.133,22.253 290.836,23.358 291.812 C 24.376 292.712,24.888 293.638,25.348 295.412 C 25.772 297.045,26.340 298.135,27.144 298.859 C 27.791 299.441,28.453 300.341,28.616 300.859 C 28.779 301.376,29.592 302.824,30.422 304.076 C 31.252 305.329,32.063 306.769,32.223 307.276 C 32.663 308.668,33.591 309.943,34.336 310.180 C 34.701 310.297,35.450 311.246,36.000 312.290 C 36.550 313.335,37.471 314.732,38.046 315.395 C 38.622 316.058,39.479 317.362,39.951 318.294 C 40.424 319.226,41.251 320.277,41.790 320.630 C 42.328 320.983,42.880 321.621,43.015 322.049 C 43.294 322.926,45.049 324.800,45.593 324.800 C 45.789 324.800,46.356 325.525,46.855 326.412 C 47.412 327.404,47.969 327.944,48.301 327.817 C 48.637 327.688,48.733 327.785,48.555 328.073 C 48.364 328.381,48.489 328.451,48.930 328.282 C 49.293 328.143,49.556 328.157,49.513 328.314 C 49.372 328.833,50.705 330.983,51.798 332.000 C 52.389 332.550,53.507 333.862,54.282 334.916 C 56.663 338.152,61.147 342.506,61.829 342.244 C 62.166 342.115,62.345 342.165,62.227 342.356 C 62.109 342.547,62.955 343.526,64.106 344.533 C 67.614 347.600,69.704 349.507,71.850 351.600 C 72.978 352.700,74.148 353.601,74.450 353.603 C 74.753 353.604,75.299 354.131,75.665 354.774 C 76.031 355.417,76.931 356.253,77.665 356.630 C 78.399 357.008,79.777 357.999,80.727 358.833 C 81.677 359.666,82.977 360.463,83.617 360.604 C 84.301 360.754,85.298 361.514,86.039 362.449 C 86.801 363.411,87.757 364.131,88.459 364.272 C 89.097 364.399,89.972 364.998,90.402 365.603 C 91.364 366.954,93.757 368.140,95.030 367.896 C 95.550 367.797,95.881 367.870,95.764 368.058 C 95.648 368.246,95.833 368.400,96.176 368.400 C 96.519 368.400,96.800 368.555,96.800 368.745 C 96.800 369.392,98.826 371.120,99.901 371.390 C 100.490 371.538,101.819 372.280,102.853 373.039 C 103.887 373.798,105.693 374.738,106.866 375.128 C 108.040 375.517,109.786 376.409,110.747 377.109 C 111.708 377.809,113.148 378.499,113.947 378.643 C 115.729 378.965,116.572 379.380,118.492 380.885 C 119.565 381.726,120.742 382.175,122.692 382.486 C 124.788 382.821,125.658 383.175,126.544 384.056 C 127.805 385.309,130.334 386.159,132.051 385.907 C 132.660 385.818,133.067 385.892,132.955 386.072 C 132.844 386.253,133.277 386.400,133.918 386.400 C 134.622 386.400,135.533 386.817,136.219 387.453 C 137.900 389.010,139.445 389.516,143.422 389.811 C 145.832 389.989,147.326 390.304,148.000 390.776 C 150.829 392.757,154.755 393.600,161.154 393.600 C 163.767 393.600,164.354 393.744,165.968 394.779 C 168.951 396.694,170.846 396.843,195.021 397.072 C 224.859 397.355,230.857 396.982,234.400 394.623 C 235.636 393.800,236.434 393.664,241.200 393.461 C 247.101 393.209,250.222 392.498,251.788 391.047 C 252.615 390.280,253.389 390.078,256.303 389.871 C 260.478 389.575,262.222 389.032,263.682 387.576 C 264.558 386.703,265.283 386.443,267.482 386.214 C 270.527 385.896,273.022 384.942,274.162 383.658 C 274.581 383.186,275.357 382.800,275.886 382.800 C 276.414 382.800,276.752 382.646,276.636 382.458 C 276.519 382.270,276.855 382.198,277.382 382.299 C 278.688 382.548,280.907 381.763,282.149 380.612 C 282.714 380.089,283.856 379.444,284.688 379.180 C 288.642 377.922,289.637 377.472,290.871 376.384 C 291.602 375.740,292.563 375.210,293.006 375.206 C 293.953 375.199,296.656 373.831,297.803 372.779 C 298.245 372.374,299.325 371.799,300.203 371.500 C 301.081 371.201,301.757 370.748,301.705 370.493 C 301.652 370.238,301.854 370.123,302.153 370.237 C 302.702 370.448,303.359 369.381,303.019 368.831 C 302.918 368.667,303.052 368.531,303.318 368.529 C 305.114 368.512,308.527 367.039,309.665 365.789 C 310.360 365.025,311.189 364.400,311.508 364.400 C 311.827 364.400,312.871 363.606,313.828 362.635 C 314.785 361.665,316.081 360.758,316.708 360.620 C 317.335 360.482,318.766 359.567,319.889 358.585 C 321.011 357.603,322.106 356.800,322.323 356.800 C 322.540 356.800,323.308 356.125,324.030 355.300 C 324.752 354.475,325.831 353.592,326.426 353.338 C 327.022 353.084,327.839 352.319,328.241 351.638 C 328.644 350.956,329.319 350.289,329.742 350.155 C 330.165 350.021,331.350 349.076,332.376 348.055 C 333.401 347.035,335.172 345.411,336.312 344.448 C 337.451 343.484,338.287 342.541,338.171 342.352 C 338.054 342.164,338.194 342.100,338.482 342.210 C 339.092 342.444,342.000 340.170,342.000 339.459 C 342.000 339.194,342.380 338.712,342.843 338.388 C 343.307 338.065,344.309 336.990,345.069 336.000 C 346.747 333.813,349.594 330.571,351.941 328.171 C 353.051 327.037,353.596 326.168,353.446 325.775 C 353.310 325.422,353.378 325.263,353.605 325.403 C 353.822 325.537,354.000 325.457,354.000 325.224 C 354.000 324.991,354.254 324.800,354.564 324.800 C 355.219 324.800,357.030 322.766,357.393 321.623 C 357.529 321.193,357.995 320.729,358.427 320.591 C 358.860 320.454,359.596 319.590,360.064 318.671 C 360.532 317.752,361.508 316.305,362.235 315.454 C 362.961 314.604,363.907 313.159,364.338 312.243 C 364.768 311.327,365.583 310.330,366.148 310.028 C 366.825 309.666,367.398 308.810,367.824 307.526 C 368.181 306.453,368.882 305.086,369.382 304.488 C 369.882 303.889,370.695 302.590,371.188 301.600 C 371.682 300.610,372.590 299.260,373.205 298.600 C 373.856 297.903,374.608 296.372,375.002 294.946 C 375.488 293.185,375.948 292.349,376.631 291.984 C 377.605 291.462,378.567 289.325,378.980 286.764 C 379.134 285.811,379.531 285.158,380.162 284.820 C 381.307 284.208,381.760 283.281,382.383 280.283 C 382.648 279.007,383.165 277.785,383.560 277.503 C 384.884 276.557,385.542 275.000,386.055 271.600 C 386.451 268.970,386.786 267.981,387.532 267.234 C 388.872 265.891,389.472 264.259,389.815 261.020 C 390.041 258.896,390.380 257.868,391.256 256.659 C 392.695 254.673,393.094 253.169,393.447 248.409 C 393.680 245.266,393.924 244.286,394.868 242.685 C 396.438 240.022,396.739 238.338,397.037 230.556 C 397.285 224.058,397.343 223.701,398.547 221.209 L 399.800 218.618 399.913 199.609 C 400.033 179.488,399.886 177.274,398.228 174.266 C 397.406 172.775,397.281 171.855,397.034 165.504 C 396.744 158.013,396.241 155.385,394.610 152.842 C 393.898 151.731,393.625 150.573,393.422 147.800 C 393.091 143.268,392.702 141.798,391.247 139.576 C 390.411 138.301,390.004 137.067,389.801 135.200 C 389.487 132.307,388.680 130.261,387.311 128.882 C 386.768 128.334,386.400 127.477,386.400 126.758 C 386.400 126.095,386.246 125.648,386.058 125.764 C 385.870 125.881,385.802 125.526,385.907 124.977 C 386.223 123.319,385.166 120.393,383.733 118.960 C 382.833 118.060,382.400 117.249,382.400 116.462 C 382.400 114.808,381.392 112.609,380.207 111.677 C 379.506 111.126,379.075 110.249,378.806 108.830 C 378.327 106.307,377.905 105.489,376.584 104.526 C 375.912 104.037,375.421 103.157,375.168 101.988 C 374.582 99.280,374.037 98.155,373.058 97.631 C 372.534 97.351,371.769 96.149,371.196 94.708 C 370.662 93.362,369.851 91.887,369.394 91.430 C 368.938 90.974,368.283 89.880,367.938 89.000 C 367.589 88.110,366.767 87.045,366.086 86.600 C 365.411 86.160,364.751 85.388,364.618 84.884 C 364.485 84.380,364.204 84.074,363.993 84.204 C 363.779 84.337,363.715 84.166,363.849 83.818 C 364.126 83.096,363.067 81.327,361.726 80.271 C 361.217 79.870,360.800 79.293,360.800 78.988 C 360.800 78.683,360.063 77.661,359.162 76.717 C 358.261 75.773,357.258 74.489,356.934 73.865 C 356.609 73.241,355.816 72.431,355.171 72.065 C 354.526 71.699,353.895 71.082,353.770 70.694 C 353.645 70.306,353.377 70.090,353.176 70.215 C 352.974 70.340,352.899 70.207,353.008 69.921 C 353.118 69.634,352.530 68.668,351.704 67.773 C 349.435 65.318,347.958 63.609,346.196 61.400 C 345.318 60.300,343.835 58.642,342.900 57.715 C 341.965 56.788,341.200 55.855,341.200 55.642 C 341.200 55.428,340.852 55.143,340.426 55.008 C 340.000 54.873,338.840 54.006,337.849 53.081 C 333.234 48.777,331.196 47.155,330.750 47.431 C 330.431 47.628,330.383 47.551,330.604 47.194 C 330.841 46.810,330.749 46.734,330.270 46.918 C 329.907 47.057,329.652 47.039,329.705 46.878 C 329.757 46.716,329.572 46.317,329.293 45.992 C 329.014 45.666,328.474 45.022,328.093 44.559 C 327.712 44.097,326.815 43.417,326.100 43.049 C 325.385 42.681,324.800 42.212,324.800 42.008 C 324.800 41.458,322.843 39.600,322.264 39.600 C 321.990 39.600,321.083 38.880,320.249 38.000 C 319.415 37.120,318.493 36.400,318.200 36.400 C 317.908 36.400,316.361 35.410,314.764 34.200 C 313.167 32.990,311.657 32.000,311.409 32.000 C 311.160 32.000,310.364 31.389,309.640 30.641 C 308.835 29.811,307.599 29.085,306.461 28.775 C 305.369 28.478,303.902 27.635,302.909 26.734 C 301.979 25.890,300.885 25.200,300.479 25.200 C 300.072 25.200,299.303 24.732,298.770 24.161 C 297.569 22.875,295.433 21.755,293.481 21.389 C 292.667 21.236,292.000 20.954,292.000 20.761 C 292.000 20.121,289.028 18.454,287.000 17.955 C 285.900 17.685,284.350 16.944,283.555 16.309 C 281.952 15.028,278.995 14.000,276.914 14.000 C 275.934 14.000,275.255 13.680,274.477 12.850 C 272.999 11.272,272.066 10.858,269.342 10.567 C 267.693 10.391,266.508 9.974,265.336 9.159 C 263.152 7.641,259.390 6.701,256.163 6.867 C 254.752 6.940,253.599 6.846,253.599 6.657 C 253.600 6.469,253.332 6.417,253.005 6.543 C 252.677 6.668,252.429 6.643,252.452 6.486 C 252.740 4.556,248.105 3.200,241.225 3.200 C 239.209 3.200,238.262 3.012,237.554 2.469 C 234.476 0.112,235.949 0.205,201.000 0.143 C 183.400 0.111,168.196 0.243,167.214 0.437 M210.597 11.399 C 214.995 11.722,219.945 12.254,221.597 12.580 C 223.249 12.907,226.760 13.361,229.400 13.591 C 235.005 14.078,237.868 14.607,240.504 15.643 C 241.552 16.055,244.342 16.742,246.704 17.170 C 249.067 17.599,252.196 18.402,253.658 18.955 C 255.120 19.509,257.810 20.343,259.635 20.809 C 261.460 21.275,263.684 22.079,264.577 22.597 C 265.470 23.114,267.280 23.845,268.600 24.220 C 269.920 24.596,272.170 25.485,273.600 26.197 C 275.030 26.908,276.920 27.718,277.800 27.997 C 278.680 28.276,280.390 29.105,281.600 29.840 C 282.810 30.575,284.577 31.448,285.526 31.780 C 286.476 32.112,287.741 32.731,288.338 33.156 C 288.935 33.581,290.228 34.368,291.211 34.905 C 301.319 40.427,313.569 49.000,322.185 56.581 C 332.051 65.262,342.701 76.446,347.534 83.200 C 348.242 84.190,349.713 86.170,350.802 87.600 C 352.971 90.448,357.324 96.919,359.735 100.879 C 360.580 102.265,361.880 104.390,362.626 105.600 C 363.371 106.810,364.350 108.610,364.800 109.600 C 365.250 110.590,365.913 111.940,366.273 112.600 C 368.499 116.684,372.400 124.968,372.400 125.612 C 372.400 125.948,373.038 127.554,373.818 129.182 C 374.598 130.809,375.566 133.332,375.970 134.789 C 376.374 136.245,377.151 138.328,377.697 139.418 C 378.640 141.299,379.229 143.411,379.812 147.000 C 379.954 147.880,380.604 150.130,381.255 152.000 C 381.906 153.870,382.713 157.380,383.049 159.800 C 383.385 162.220,384.194 166.622,384.849 169.582 C 387.585 181.966,387.581 214.900,384.841 226.685 C 384.187 229.498,383.448 233.600,383.199 235.800 C 382.926 238.213,382.211 241.387,381.398 243.800 C 380.657 246.000,379.774 249.312,379.436 251.160 C 379.098 253.007,378.367 255.388,377.812 256.449 C 377.257 257.510,376.421 259.779,375.953 261.489 C 375.486 263.200,374.603 265.595,373.991 266.810 C 373.380 268.026,372.664 269.826,372.400 270.810 C 372.136 271.795,371.313 273.689,370.571 275.019 C 369.829 276.350,368.961 278.177,368.642 279.080 C 368.324 279.983,367.611 281.414,367.058 282.261 C 366.505 283.107,365.740 284.610,365.358 285.600 C 364.976 286.590,364.109 288.207,363.431 289.192 C 362.754 290.178,361.830 291.708,361.377 292.592 C 360.466 294.372,358.320 297.947,357.053 299.797 C 356.602 300.455,355.373 302.255,354.323 303.797 C 348.285 312.658,342.878 319.274,334.229 328.378 C 328.610 334.293,317.833 343.773,312.151 347.800 C 306.805 351.588,303.167 354.159,301.400 355.398 C 300.300 356.170,298.346 357.334,297.058 357.987 C 295.769 358.639,294.509 359.339,294.258 359.543 C 291.192 362.030,271.877 371.419,267.879 372.367 C 266.822 372.617,264.752 373.426,263.279 374.164 C 261.805 374.903,259.253 375.802,257.606 376.163 C 255.959 376.525,253.529 377.253,252.206 377.782 C 250.883 378.310,248.090 379.033,246.000 379.387 C 243.910 379.741,240.850 380.462,239.200 380.988 C 235.349 382.216,234.885 382.300,228.200 382.989 C 225.120 383.306,220.080 383.835,217.000 384.165 C 203.139 385.648,200.483 385.711,189.991 384.808 C 184.606 384.344,179.840 383.884,179.400 383.785 C 178.960 383.686,175.799 383.335,172.375 383.004 C 168.951 382.673,164.811 382.028,163.175 381.571 C 161.539 381.114,157.770 380.228,154.800 379.602 C 151.830 378.976,148.574 378.109,147.565 377.674 C 146.556 377.240,144.340 376.503,142.641 376.037 C 140.943 375.571,138.680 374.747,137.613 374.206 C 136.546 373.666,134.295 372.854,132.611 372.403 C 130.928 371.952,126.636 370.163,123.075 368.427 C 119.514 366.691,116.150 365.140,115.600 364.980 C 114.553 364.674,109.810 362.054,105.910 359.626 C 104.651 358.842,102.173 357.300,100.403 356.200 C 94.767 352.698,90.636 349.923,89.400 348.812 C 88.740 348.218,86.670 346.606,84.800 345.228 C 75.442 338.334,58.471 321.335,52.600 312.975 C 51.940 312.035,50.311 309.856,48.981 308.133 C 45.802 304.016,40.062 295.260,38.391 291.979 C 37.892 291.001,37.075 289.660,36.574 289.000 C 36.073 288.340,35.292 286.855,34.838 285.701 C 34.384 284.546,33.580 282.926,33.052 282.101 C 32.523 281.275,31.765 279.700,31.367 278.600 C 30.969 277.500,30.232 275.966,29.729 275.191 C 29.226 274.416,28.387 272.526,27.865 270.991 C 27.343 269.456,26.466 267.300,25.918 266.200 C 25.369 265.100,24.622 262.988,24.257 261.506 C 23.893 260.025,23.068 257.775,22.424 256.506 C 21.781 255.238,21.050 252.940,20.799 251.400 C 20.549 249.860,19.738 246.800,18.997 244.600 C 18.206 242.250,17.401 238.703,17.046 236.000 C 16.713 233.470,15.990 229.510,15.438 227.200 C 12.536 215.038,12.624 182.154,15.596 168.400 C 16.237 165.430,16.961 161.380,17.204 159.400 C 17.446 157.420,18.172 154.257,18.816 152.372 C 19.460 150.487,20.331 147.233,20.752 145.141 C 21.172 143.049,21.964 140.452,22.512 139.369 C 23.059 138.286,23.827 136.230,24.218 134.800 C 24.608 133.370,25.419 131.210,26.019 130.000 C 26.619 128.790,27.379 126.900,27.708 125.800 C 28.036 124.700,29.047 122.396,29.953 120.681 C 30.859 118.966,31.600 117.335,31.600 117.057 C 31.600 116.780,32.193 115.568,32.918 114.364 C 33.643 113.161,34.651 111.153,35.158 109.904 C 35.665 108.654,36.347 107.410,36.674 107.139 C 37.000 106.868,37.889 105.466,38.649 104.023 C 39.409 102.580,40.601 100.500,41.297 99.400 C 44.357 94.563,47.013 90.615,48.247 89.069 C 50.408 86.361,52.279 83.933,53.849 81.800 C 59.493 74.131,75.280 58.253,83.157 52.323 C 84.123 51.595,85.852 50.280,86.998 49.400 C 92.909 44.864,95.387 43.090,96.916 42.302 C 97.842 41.825,99.700 40.707,101.045 39.817 C 106.456 36.238,114.341 31.597,114.999 31.605 C 115.379 31.610,120.718 29.092,126.400 26.227 C 127.830 25.506,130.170 24.599,131.600 24.212 C 133.030 23.824,135.044 23.080,136.076 22.559 C 137.108 22.037,139.300 21.241,140.948 20.789 C 142.595 20.337,145.030 19.526,146.358 18.986 C 147.686 18.446,150.444 17.725,152.486 17.382 C 154.529 17.040,157.820 16.245,159.800 15.615 C 164.505 14.119,164.538 14.113,170.600 13.612 C 173.460 13.375,177.240 12.894,179.000 12.542 C 186.638 11.017,199.207 10.562,210.597 11.399 M182.305 396.675 C 181.922 396.775,181.202 396.779,180.705 396.683 C 180.207 396.587,180.520 396.505,181.400 396.501 C 182.280 396.496,182.687 396.575,182.305 396.675 M219.905 396.675 C 219.522 396.775,218.802 396.779,218.305 396.683 C 217.807 396.587,218.120 396.505,219.000 396.501 C 219.880 396.496,220.287 396.575,219.905 396.675 " stroke="none" fill="#686462" fill-rule="evenodd"></path><path id="path1" d="M88.252 138.605 C 87.191 139.667,87.161 141.572,87.282 201.735 L 87.400 260.871 88.400 261.693 L 89.400 262.516 135.477 262.257 C 184.164 261.983,183.233 262.027,183.951 259.969 C 184.643 257.983,184.548 245.955,183.832 244.976 C 183.280 244.221,182.331 244.195,148.532 244.000 C 110.745 243.782,112.177 243.876,110.970 241.542 C 110.226 240.102,110.122 210.249,110.855 208.638 C 111.986 206.156,111.161 206.220,144.839 206.000 C 169.999 205.836,175.596 205.702,176.139 205.251 C 177.378 204.222,177.103 190.267,175.818 188.982 L 174.836 188.000 145.838 188.000 C 115.441 188.000,113.917 187.921,111.789 186.224 L 110.600 185.277 110.497 172.538 C 110.383 158.327,110.385 158.312,113.003 157.000 C 114.555 156.223,115.519 156.197,147.183 156.086 C 176.567 155.984,179.837 155.909,180.483 155.324 C 181.930 154.015,181.403 139.286,179.875 138.314 C 178.847 137.661,88.911 137.946,88.252 138.605 M212.122 138.965 L 211.000 139.931 210.880 198.065 C 210.755 258.429,210.779 259.791,211.991 261.290 C 213.075 262.629,228.441 262.943,230.028 261.658 L 231.000 260.871 231.200 222.736 C 231.415 181.717,231.362 182.676,233.440 182.154 C 234.849 181.800,235.640 182.290,237.933 184.937 C 239.898 187.205,243.986 193.242,244.011 193.912 C 244.017 194.071,244.782 195.223,245.711 196.473 C 246.640 197.724,247.902 199.614,248.515 200.673 C 250.509 204.120,253.247 208.453,255.876 212.322 C 256.578 213.355,257.545 214.920,258.026 215.800 C 258.507 216.680,259.485 218.210,260.198 219.200 C 260.912 220.190,261.802 221.599,262.175 222.331 C 262.547 223.063,263.426 224.443,264.126 225.397 C 264.827 226.351,266.210 228.513,267.200 230.200 C 268.190 231.887,269.576 234.053,270.281 235.012 C 270.985 235.972,271.951 237.531,272.427 238.478 C 272.902 239.425,273.766 240.822,274.346 241.582 C 274.926 242.342,275.850 243.711,276.400 244.623 C 277.836 247.005,279.606 249.769,281.076 251.927 C 281.778 252.957,282.747 254.520,283.229 255.400 C 284.977 258.589,287.912 261.882,289.244 262.149 C 291.696 262.639,307.735 262.421,308.800 261.883 C 310.875 260.835,310.818 262.691,310.705 199.185 L 310.600 140.064 309.630 139.032 L 308.661 138.000 300.430 138.006 C 295.904 138.009,291.986 138.148,291.725 138.314 C 290.466 139.115,290.400 141.078,290.400 178.006 C 290.400 216.304,290.318 218.426,288.791 219.808 C 287.230 221.221,283.252 218.044,280.986 213.573 C 280.452 212.519,279.829 211.542,279.602 211.401 C 279.375 211.261,278.808 210.393,278.343 209.473 C 277.455 207.715,274.668 203.309,272.732 200.600 C 272.103 199.720,271.131 198.132,270.573 197.071 C 270.014 196.011,268.937 194.279,268.179 193.224 C 267.420 192.168,266.800 191.193,266.800 191.056 C 266.800 190.920,266.035 189.650,265.100 188.236 C 262.549 184.375,261.149 182.187,259.600 179.637 C 257.043 175.428,254.772 171.815,253.881 170.538 C 253.396 169.843,252.498 168.403,251.885 167.338 C 251.272 166.272,250.372 164.814,249.885 164.097 C 248.940 162.707,245.462 157.265,244.297 155.353 C 243.911 154.719,242.792 152.940,241.811 151.400 C 240.830 149.860,239.545 147.790,238.955 146.800 C 237.759 144.791,237.681 144.673,235.315 141.295 C 233.050 138.060,232.810 138.000,222.163 138.000 C 213.312 138.000,213.236 138.007,212.122 138.965 M180.705 396.683 C 181.202 396.779,181.922 396.775,182.305 396.675 C 182.687 396.575,182.280 396.496,181.400 396.501 C 180.520 396.505,180.207 396.587,180.705 396.683 M218.305 396.683 C 218.802 396.779,219.522 396.775,219.905 396.675 C 220.287 396.575,219.880 396.496,219.000 396.501 C 218.120 396.505,217.807 396.587,218.305 396.683 " stroke="none" fill="#fbca9a" fill-rule="evenodd"></path><path id="path2" d="M186.600 14.828 C 177.312 15.220,172.405 15.782,167.585 17.004 C 165.445 17.546,161.827 18.282,159.547 18.639 C 157.266 18.995,153.870 19.816,152.000 20.463 C 150.130 21.110,147.340 21.906,145.800 22.232 C 144.260 22.558,141.650 23.441,140.000 24.194 C 138.350 24.947,135.845 25.845,134.433 26.190 C 133.021 26.536,131.311 27.160,130.633 27.577 C 129.955 27.995,128.140 28.808,126.600 29.385 C 125.060 29.962,123.170 30.847,122.400 31.353 C 121.630 31.859,119.920 32.674,118.600 33.164 C 117.280 33.654,115.390 34.571,114.400 35.202 C 113.410 35.833,112.060 36.551,111.400 36.799 C 110.247 37.231,108.470 38.329,103.498 41.679 C 102.233 42.532,100.433 43.584,99.498 44.016 C 98.564 44.449,97.054 45.387,96.141 46.101 C 95.229 46.816,93.159 48.353,91.541 49.519 C 85.187 54.096,83.621 55.379,76.604 61.764 C 67.962 69.627,58.599 79.679,54.586 85.400 C 53.815 86.500,52.293 88.570,51.204 90.000 C 48.904 93.022,44.540 99.457,43.157 101.867 C 42.253 103.442,41.769 104.260,38.585 109.602 C 37.863 110.813,36.953 112.613,36.564 113.602 C 36.175 114.591,35.423 116.096,34.894 116.946 C 34.365 117.796,33.673 119.227,33.355 120.127 C 33.038 121.026,32.170 122.850,31.426 124.181 C 30.682 125.511,29.775 127.750,29.411 129.156 C 29.047 130.562,28.317 132.542,27.788 133.556 C 27.259 134.570,26.368 136.988,25.807 138.929 C 25.246 140.870,24.455 143.120,24.050 143.929 C 23.199 145.630,22.983 146.444,22.203 150.920 C 21.888 152.725,21.099 155.821,20.450 157.801 C 19.587 160.431,19.095 163.124,18.623 167.800 C 18.268 171.320,17.716 175.370,17.396 176.800 C 15.274 186.304,15.287 209.496,17.419 219.513 C 17.734 220.991,18.276 225.080,18.624 228.600 C 19.099 233.405,19.550 235.864,20.434 238.464 C 21.082 240.370,21.950 243.807,22.364 246.103 C 22.778 248.399,23.654 251.520,24.311 253.038 C 24.967 254.557,25.731 256.790,26.007 258.000 C 26.284 259.210,27.013 261.204,27.627 262.432 C 28.241 263.660,29.040 265.820,29.402 267.232 C 29.765 268.644,30.587 270.625,31.229 271.632 C 31.871 272.640,32.750 274.492,33.182 275.748 C 33.614 277.004,34.350 278.567,34.817 279.223 C 35.283 279.879,36.081 281.476,36.589 282.772 C 37.097 284.068,38.072 285.942,38.756 286.937 C 39.440 287.931,40.000 288.910,40.000 289.113 C 40.000 289.316,40.765 290.671,41.700 292.125 C 42.635 293.579,44.300 296.221,45.400 297.997 C 48.139 302.418,58.026 315.770,59.620 317.200 C 59.988 317.530,62.316 320.050,64.794 322.800 C 67.271 325.550,70.311 328.758,71.549 329.929 C 76.676 334.780,83.644 340.958,85.318 342.138 C 86.303 342.832,88.506 344.480,90.213 345.800 C 91.920 347.120,93.695 348.458,94.158 348.774 C 94.621 349.090,95.900 350.022,97.001 350.846 C 98.102 351.670,99.478 352.525,100.060 352.747 C 100.641 352.968,102.295 353.925,103.733 354.874 C 108.634 358.107,110.997 359.462,115.400 361.564 C 117.820 362.719,121.420 364.453,123.400 365.418 C 129.875 368.571,133.349 369.992,136.566 370.803 C 138.307 371.242,140.512 372.059,141.467 372.618 C 142.422 373.178,144.957 374.006,147.101 374.458 C 149.246 374.911,151.993 375.698,153.207 376.207 C 154.421 376.716,157.391 377.440,159.807 377.816 C 162.223 378.192,167.003 379.102,170.428 379.839 C 183.453 382.639,218.208 382.641,229.800 379.842 C 232.000 379.310,236.146 378.505,239.013 378.052 C 241.881 377.600,245.469 376.762,246.987 376.191 C 248.504 375.619,251.469 374.798,253.573 374.367 C 255.678 373.935,258.490 373.057,259.822 372.416 C 261.155 371.775,263.135 371.032,264.222 370.766 C 265.310 370.499,267.061 369.852,268.113 369.327 C 269.165 368.803,271.319 367.907,272.900 367.337 C 274.481 366.766,276.452 365.872,277.280 365.350 C 278.107 364.827,279.553 364.096,280.492 363.725 C 282.912 362.770,290.364 358.829,291.838 357.727 C 292.519 357.217,293.272 356.800,293.512 356.800 C 293.753 356.800,295.110 356.005,296.529 355.034 C 297.948 354.062,299.684 352.971,300.386 352.607 C 301.088 352.244,302.429 351.374,303.367 350.674 C 304.304 349.973,306.135 348.625,307.436 347.677 C 316.597 340.999,317.770 340.031,325.805 332.509 C 333.957 324.878,341.499 316.531,347.045 309.000 C 348.341 307.240,349.806 305.260,350.301 304.600 C 352.005 302.325,355.498 296.997,356.200 295.600 C 356.587 294.830,357.503 293.376,358.236 292.368 C 358.968 291.361,359.756 290.042,359.986 289.438 C 360.215 288.834,360.937 287.564,361.589 286.615 C 362.242 285.667,363.154 283.926,363.616 282.746 C 364.079 281.565,364.964 279.790,365.583 278.800 C 366.202 277.810,366.930 276.280,367.200 275.400 C 367.470 274.520,368.199 272.990,368.820 272.000 C 369.440 271.010,370.298 268.932,370.726 267.382 C 371.154 265.832,371.980 263.624,372.562 262.475 C 373.144 261.327,373.904 259.276,374.253 257.917 C 374.601 256.559,375.412 254.133,376.055 252.527 C 376.698 250.921,377.573 247.670,377.999 245.303 C 378.425 242.937,379.237 239.862,379.802 238.472 C 380.584 236.548,380.968 234.499,381.409 229.902 C 381.728 226.578,382.345 221.866,382.780 219.430 C 384.971 207.147,384.977 189.373,382.794 177.000 C 382.367 174.580,381.759 169.990,381.443 166.800 C 381.020 162.538,380.545 160.045,379.651 157.400 C 378.982 155.420,378.155 152.126,377.814 150.080 C 377.472 148.034,376.722 145.244,376.146 143.880 C 375.570 142.516,374.757 140.169,374.338 138.665 C 373.920 137.160,373.148 135.082,372.624 134.047 C 372.100 133.013,371.367 131.094,370.997 129.783 C 370.302 127.323,367.440 120.961,364.888 116.200 C 364.416 115.320,363.564 113.610,362.995 112.400 C 361.714 109.675,359.282 105.345,358.152 103.777 C 357.686 103.130,356.912 101.825,356.433 100.878 C 355.954 99.931,354.985 98.381,354.281 97.433 C 353.576 96.485,352.688 95.190,352.306 94.555 C 351.924 93.920,350.526 91.960,349.199 90.200 C 347.872 88.440,346.363 86.370,345.844 85.600 C 342.736 80.985,330.055 67.463,322.059 60.238 C 316.720 55.414,315.590 54.491,311.000 51.208 C 309.460 50.107,307.120 48.396,305.800 47.405 C 302.355 44.820,300.992 43.928,297.474 41.954 C 295.754 40.989,293.493 39.635,292.448 38.944 C 291.403 38.253,289.569 37.195,288.374 36.593 C 287.178 35.990,285.740 35.173,285.177 34.776 C 284.615 34.380,283.196 33.691,282.025 33.246 C 280.854 32.801,279.244 32.007,278.448 31.482 C 277.651 30.956,276.010 30.203,274.800 29.807 C 273.590 29.412,271.404 28.491,269.943 27.761 C 268.481 27.030,266.411 26.217,265.343 25.953 C 264.274 25.690,262.043 24.882,260.385 24.159 C 258.727 23.436,255.757 22.491,253.785 22.059 C 251.813 21.627,249.211 20.882,248.001 20.404 C 246.792 19.925,243.290 19.093,240.219 18.554 C 237.148 18.016,233.277 17.230,231.618 16.808 C 223.854 14.835,205.518 14.028,186.600 14.828 M181.561 135.706 C 183.979 136.948,184.189 137.757,184.329 146.371 C 184.555 160.155,188.373 158.796,149.400 158.801 C 115.621 158.805,115.653 158.803,114.507 160.919 C 113.716 162.380,113.210 179.756,113.882 182.406 C 114.617 185.307,113.356 185.199,146.474 185.199 C 177.386 185.200,177.460 185.204,178.679 187.064 C 179.627 188.511,179.775 204.771,178.856 206.493 C 177.713 208.635,178.509 208.579,145.914 208.797 C 111.743 209.026,114.549 208.721,113.964 212.274 C 113.536 214.881,113.548 235.351,113.980 237.588 C 114.201 238.734,114.705 239.704,115.385 240.288 L 116.445 241.200 149.722 241.201 C 180.603 241.201,183.101 241.252,184.400 241.901 C 186.616 243.008,186.890 244.420,186.707 253.800 C 186.540 262.356,186.292 263.556,184.530 264.359 C 183.010 265.052,89.928 265.504,87.886 264.829 C 84.745 263.791,85.015 269.382,84.878 202.418 C 84.744 137.172,84.725 138.014,86.409 136.330 L 87.538 135.200 134.069 135.206 C 170.203 135.210,180.815 135.322,181.561 135.706 M233.932 135.636 C 235.264 136.100,238.522 139.911,239.927 142.646 C 240.366 143.501,241.507 145.391,242.462 146.847 C 243.418 148.303,244.830 150.518,245.600 151.769 C 247.090 154.191,249.600 158.140,252.700 162.944 C 253.745 164.563,254.914 166.408,255.298 167.044 C 255.681 167.680,256.976 169.730,258.174 171.600 C 259.372 173.470,260.734 175.689,261.200 176.531 C 261.667 177.374,262.802 179.207,263.724 180.606 C 264.646 182.005,266.110 184.286,266.979 185.675 C 267.847 187.064,269.307 189.370,270.223 190.800 C 271.138 192.230,272.228 193.972,272.644 194.672 C 273.475 196.068,274.938 198.353,277.423 202.132 C 278.316 203.489,279.181 204.955,279.345 205.389 C 279.509 205.823,280.180 206.903,280.835 207.789 C 281.491 208.675,282.569 210.173,283.230 211.119 C 284.661 213.165,285.429 213.542,286.331 212.641 C 286.944 212.028,287.017 208.867,287.200 175.086 C 287.361 145.407,287.504 138.018,287.932 137.266 C 288.967 135.450,290.463 135.200,300.287 135.202 C 310.093 135.205,311.731 135.436,313.230 137.032 L 314.200 138.064 314.305 199.433 C 314.421 267.052,314.575 262.831,311.932 264.273 C 310.517 265.045,289.645 265.406,287.136 264.701 C 285.804 264.328,282.880 260.765,280.000 256.008 C 278.790 254.009,277.403 251.795,276.919 251.087 C 276.434 250.379,275.549 248.990,274.951 248.000 C 274.354 247.010,273.059 244.940,272.074 243.400 C 271.088 241.860,269.710 239.700,269.012 238.600 C 265.947 233.774,263.792 230.446,262.406 228.400 C 261.587 227.190,260.528 225.480,260.053 224.600 C 259.579 223.720,258.608 222.152,257.895 221.116 C 257.183 220.079,255.830 218.009,254.889 216.516 C 253.948 215.022,252.238 212.326,251.089 210.526 C 249.940 208.725,248.280 206.059,247.400 204.602 C 246.520 203.146,245.224 201.164,244.519 200.199 C 243.815 199.233,242.881 197.759,242.443 196.922 C 240.911 193.989,237.369 189.401,236.545 189.281 C 234.556 188.990,234.614 187.984,234.400 226.494 L 234.200 262.466 232.930 263.600 C 230.729 265.567,212.729 266.013,209.600 264.180 C 207.054 262.687,207.180 266.234,207.295 199.382 L 207.400 138.459 208.237 137.329 C 208.698 136.708,209.688 135.985,210.437 135.723 C 212.242 135.090,232.156 135.017,233.932 135.636 " stroke="none" fill="#cb6434" fill-rule="evenodd"></path><path id="path3" d="M188.800 11.407 C 185.170 11.680,180.760 12.191,179.000 12.542 C 177.240 12.894,173.460 13.375,170.600 13.612 C 164.538 14.113,164.505 14.119,159.800 15.615 C 157.820 16.245,154.529 17.040,152.486 17.382 C 150.444 17.725,147.686 18.446,146.358 18.986 C 145.030 19.526,142.595 20.337,140.948 20.789 C 139.300 21.241,137.108 22.037,136.076 22.559 C 135.044 23.080,133.030 23.824,131.600 24.212 C 130.170 24.599,127.830 25.506,126.400 26.227 C 120.718 29.092,115.379 31.610,114.999 31.605 C 114.341 31.597,106.456 36.238,101.045 39.817 C 99.700 40.707,97.842 41.825,96.916 42.302 C 95.387 43.090,92.909 44.864,86.998 49.400 C 85.852 50.280,84.123 51.595,83.157 52.323 C 75.280 58.253,59.493 74.131,53.849 81.800 C 52.279 83.933,50.408 86.361,48.247 89.069 C 47.013 90.615,44.357 94.563,41.297 99.400 C 40.601 100.500,39.409 102.580,38.649 104.023 C 37.889 105.466,37.000 106.868,36.674 107.139 C 36.347 107.410,35.665 108.654,35.158 109.904 C 34.651 111.153,33.643 113.161,32.918 114.364 C 32.193 115.568,31.600 116.780,31.600 117.057 C 31.600 117.335,30.859 118.966,29.953 120.681 C 29.047 122.396,28.036 124.700,27.708 125.800 C 27.379 126.900,26.619 128.790,26.019 130.000 C 25.419 131.210,24.608 133.370,24.218 134.800 C 23.827 136.230,23.059 138.286,22.512 139.369 C 21.964 140.452,21.172 143.049,20.752 145.141 C 20.331 147.233,19.460 150.487,18.816 152.372 C 18.172 154.257,17.446 157.420,17.204 159.400 C 16.961 161.380,16.237 165.430,15.596 168.400 C 12.624 182.154,12.536 215.038,15.438 227.200 C 15.990 229.510,16.713 233.470,17.046 236.000 C 17.401 238.703,18.206 242.250,18.997 244.600 C 19.738 246.800,20.549 249.860,20.799 251.400 C 21.050 252.940,21.781 255.238,22.424 256.506 C 23.068 257.775,23.893 260.025,24.257 261.506 C 24.622 262.988,25.369 265.100,25.918 266.200 C 26.466 267.300,27.343 269.456,27.865 270.991 C 28.387 272.526,29.226 274.416,29.729 275.191 C 30.232 275.966,30.969 277.500,31.367 278.600 C 31.765 279.700,32.523 281.275,33.052 282.101 C 33.580 282.926,34.384 284.546,34.838 285.701 C 35.292 286.855,36.073 288.340,36.574 289.000 C 37.075 289.660,37.892 291.001,38.391 291.979 C 40.062 295.260,45.802 304.016,48.981 308.133 C 50.311 309.856,51.940 312.035,52.600 312.975 C 58.471 321.335,75.442 338.334,84.800 345.228 C 86.670 346.606,88.740 348.218,89.400 348.812 C 90.636 349.923,94.767 352.698,100.403 356.200 C 102.173 357.300,104.651 358.842,105.910 359.626 C 109.810 362.054,114.553 364.674,115.600 364.980 C 116.150 365.140,119.514 366.691,123.075 368.427 C 126.636 370.163,130.928 371.952,132.611 372.403 C 134.295 372.854,136.546 373.666,137.613 374.206 C 138.680 374.747,140.943 375.571,142.641 376.037 C 144.340 376.503,146.556 377.240,147.565 377.674 C 148.574 378.109,151.830 378.976,154.800 379.602 C 157.770 380.228,161.539 381.114,163.175 381.571 C 164.811 382.028,168.951 382.673,172.375 383.004 C 175.799 383.335,178.960 383.686,179.400 383.785 C 179.840 383.884,184.606 384.344,189.991 384.808 C 200.483 385.711,203.139 385.648,217.000 384.165 C 220.080 383.835,225.120 383.306,228.200 382.989 C 234.885 382.300,235.349 382.216,239.200 380.988 C 240.850 380.462,243.910 379.741,246.000 379.387 C 248.090 379.033,250.883 378.310,252.206 377.782 C 253.529 377.253,255.959 376.525,257.606 376.163 C 259.253 375.802,261.805 374.903,263.279 374.164 C 264.752 373.426,266.822 372.617,267.879 372.367 C 271.877 371.419,291.192 362.030,294.258 359.543 C 294.509 359.339,295.769 358.639,297.058 357.987 C 298.346 357.334,300.300 356.170,301.400 355.398 C 303.167 354.159,306.805 351.588,312.151 347.800 C 317.833 343.773,328.610 334.293,334.229 328.378 C 342.878 319.274,348.285 312.658,354.323 303.797 C 355.373 302.255,356.602 300.455,357.053 299.797 C 358.320 297.947,360.466 294.372,361.377 292.592 C 361.830 291.708,362.754 290.178,363.431 289.192 C 364.109 288.207,364.976 286.590,365.358 285.600 C 365.740 284.610,366.505 283.107,367.058 282.261 C 367.611 281.414,368.324 279.983,368.642 279.080 C 368.961 278.177,369.829 276.350,370.571 275.019 C 371.313 273.689,372.136 271.795,372.400 270.810 C 372.664 269.826,373.380 268.026,373.991 266.810 C 374.603 265.595,375.486 263.200,375.953 261.489 C 376.421 259.779,377.257 257.510,377.812 256.449 C 378.367 255.388,379.098 253.007,379.436 251.160 C 379.774 249.312,380.657 246.000,381.398 243.800 C 382.211 241.387,382.926 238.213,383.199 235.800 C 383.448 233.600,384.187 229.498,384.841 226.685 C 387.581 214.900,387.585 181.966,384.849 169.582 C 384.194 166.622,383.385 162.220,383.049 159.800 C 382.713 157.380,381.906 153.870,381.255 152.000 C 380.604 150.130,379.954 147.880,379.812 147.000 C 379.229 143.411,378.640 141.299,377.697 139.418 C 377.151 138.328,376.374 136.245,375.970 134.789 C 375.566 133.332,374.598 130.809,373.818 129.182 C 373.038 127.554,372.400 125.948,372.400 125.612 C 372.400 124.968,368.499 116.684,366.273 112.600 C 365.913 111.940,365.250 110.590,364.800 109.600 C 364.350 108.610,363.371 106.810,362.626 105.600 C 361.880 104.390,360.580 102.265,359.735 100.879 C 357.324 96.919,352.971 90.448,350.802 87.600 C 349.713 86.170,348.242 84.190,347.534 83.200 C 342.701 76.446,332.051 65.262,322.185 56.581 C 313.569 49.000,301.319 40.427,291.211 34.905 C 290.228 34.368,288.935 33.581,288.338 33.156 C 287.741 32.731,286.476 32.112,285.526 31.780 C 284.577 31.448,282.810 30.575,281.600 29.840 C 280.390 29.105,278.680 28.276,277.800 27.997 C 276.920 27.718,275.030 26.908,273.600 26.197 C 272.170 25.485,269.920 24.596,268.600 24.220 C 267.280 23.845,265.470 23.114,264.577 22.597 C 263.684 22.079,261.460 21.275,259.635 20.809 C 257.810 20.343,255.120 19.509,253.658 18.955 C 252.196 18.402,249.067 17.599,246.704 17.170 C 244.342 16.742,241.552 16.055,240.504 15.643 C 237.868 14.607,235.005 14.078,229.400 13.591 C 226.760 13.361,223.249 12.907,221.597 12.580 C 213.974 11.074,199.923 10.572,188.800 11.407 M212.400 14.809 C 223.080 15.272,227.303 15.711,231.618 16.808 C 233.277 17.230,237.148 18.016,240.219 18.554 C 243.290 19.093,246.792 19.925,248.001 20.404 C 249.211 20.882,251.813 21.627,253.785 22.059 C 255.757 22.491,258.727 23.436,260.385 24.159 C 262.043 24.882,264.274 25.690,265.343 25.953 C 266.411 26.217,268.481 27.030,269.943 27.761 C 271.404 28.491,273.590 29.412,274.800 29.807 C 276.010 30.203,277.651 30.956,278.448 31.482 C 279.244 32.007,280.854 32.801,282.025 33.246 C 283.196 33.691,284.615 34.380,285.177 34.776 C 285.740 35.173,287.178 35.990,288.374 36.593 C 289.569 37.195,291.403 38.253,292.448 38.944 C 293.493 39.635,295.754 40.989,297.474 41.954 C 300.992 43.928,302.355 44.820,305.800 47.405 C 307.120 48.396,309.460 50.107,311.000 51.208 C 315.590 54.491,316.720 55.414,322.059 60.238 C 330.055 67.463,342.736 80.985,345.844 85.600 C 346.363 86.370,347.872 88.440,349.199 90.200 C 350.526 91.960,351.924 93.920,352.306 94.555 C 352.688 95.190,353.576 96.485,354.281 97.433 C 354.985 98.381,355.954 99.931,356.433 100.878 C 356.912 101.825,357.686 103.130,358.152 103.777 C 359.282 105.345,361.714 109.675,362.995 112.400 C 363.564 113.610,364.416 115.320,364.888 116.200 C 367.440 120.961,370.302 127.323,370.997 129.783 C 371.367 131.094,372.100 133.013,372.624 134.047 C 373.148 135.082,373.920 137.160,374.338 138.665 C 374.757 140.169,375.570 142.516,376.146 143.880 C 376.722 145.244,377.472 148.034,377.814 150.080 C 378.155 152.126,378.982 155.420,379.651 157.400 C 380.545 160.045,381.020 162.538,381.443 166.800 C 381.759 169.990,382.367 174.580,382.794 177.000 C 384.977 189.373,384.971 207.147,382.780 219.430 C 382.345 221.866,381.728 226.578,381.409 229.902 C 380.968 234.499,380.584 236.548,379.802 238.472 C 379.237 239.862,378.425 242.937,377.999 245.303 C 377.573 247.670,376.698 250.921,376.055 252.527 C 375.412 254.133,374.601 256.559,374.253 257.917 C 373.904 259.276,373.144 261.327,372.562 262.475 C 371.980 263.624,371.154 265.832,370.726 267.382 C 370.298 268.932,369.440 271.010,368.820 272.000 C 368.199 272.990,367.470 274.520,367.200 275.400 C 366.930 276.280,366.202 277.810,365.583 278.800 C 364.964 279.790,364.079 281.565,363.616 282.746 C 363.154 283.926,362.242 285.667,361.589 286.615 C 360.937 287.564,360.215 288.834,359.986 289.438 C 359.756 290.042,358.968 291.361,358.236 292.368 C 357.503 293.376,356.587 294.830,356.200 295.600 C 355.498 296.997,352.005 302.325,350.301 304.600 C 349.806 305.260,348.341 307.240,347.045 309.000 C 341.499 316.531,333.957 324.878,325.805 332.509 C 317.770 340.031,316.597 340.999,307.436 347.677 C 306.135 348.625,304.304 349.973,303.367 350.674 C 302.429 351.374,301.088 352.244,300.386 352.607 C 299.684 352.971,297.948 354.062,296.529 355.034 C 295.110 356.005,293.753 356.800,293.512 356.800 C 293.272 356.800,292.519 357.217,291.838 357.727 C 290.364 358.829,282.912 362.770,280.492 363.725 C 279.553 364.096,278.107 364.827,277.280 365.350 C 276.452 365.872,274.481 366.766,272.900 367.337 C 271.319 367.907,269.165 368.803,268.113 369.327 C 267.061 369.852,265.310 370.499,264.222 370.766 C 263.135 371.032,261.155 371.775,259.822 372.416 C 258.490 373.057,255.678 373.935,253.573 374.367 C 251.469 374.798,248.504 375.619,246.987 376.191 C 245.469 376.762,241.881 377.600,239.013 378.052 C 236.146 378.505,232.000 379.310,229.800 379.842 C 218.208 382.641,183.453 382.639,170.428 379.839 C 167.003 379.102,162.223 378.192,159.807 377.816 C 157.391 377.440,154.421 376.716,153.207 376.207 C 151.993 375.698,149.246 374.911,147.101 374.458 C 144.957 374.006,142.422 373.178,141.467 372.618 C 140.512 372.059,138.307 371.242,136.566 370.803 C 133.349 369.992,129.875 368.571,123.400 365.418 C 121.420 364.453,117.820 362.719,115.400 361.564 C 110.997 359.462,108.634 358.107,103.733 354.874 C 102.295 353.925,100.641 352.968,100.060 352.747 C 99.478 352.525,98.102 351.670,97.001 350.846 C 95.900 350.022,94.621 349.090,94.158 348.774 C 93.695 348.458,91.920 347.120,90.213 345.800 C 88.506 344.480,86.303 342.832,85.318 342.138 C 83.644 340.958,76.676 334.780,71.549 329.929 C 70.311 328.758,67.271 325.550,64.794 322.800 C 62.316 320.050,59.988 317.530,59.620 317.200 C 58.026 315.770,48.139 302.418,45.400 297.997 C 44.300 296.221,42.635 293.579,41.700 292.125 C 40.765 290.671,40.000 289.316,40.000 289.113 C 40.000 288.910,39.440 287.931,38.756 286.937 C 38.072 285.942,37.097 284.068,36.589 282.772 C 36.081 281.476,35.283 279.879,34.817 279.223 C 34.350 278.567,33.614 277.004,33.182 275.748 C 32.750 274.492,31.871 272.640,31.229 271.632 C 30.587 270.625,29.765 268.644,29.402 267.232 C 29.040 265.820,28.241 263.660,27.627 262.432 C 27.013 261.204,26.284 259.210,26.007 258.000 C 25.731 256.790,24.967 254.557,24.311 253.038 C 23.654 251.520,22.778 248.399,22.364 246.103 C 21.950 243.807,21.082 240.370,20.434 238.464 C 19.550 235.864,19.099 233.405,18.624 228.600 C 18.276 225.080,17.734 220.991,17.419 219.513 C 15.287 209.496,15.274 186.304,17.396 176.800 C 17.716 175.370,18.268 171.320,18.623 167.800 C 19.095 163.124,19.587 160.431,20.450 157.801 C 21.099 155.821,21.888 152.725,22.203 150.920 C 22.983 146.444,23.199 145.630,24.050 143.929 C 24.455 143.120,25.246 140.870,25.807 138.929 C 26.368 136.988,27.259 134.570,27.788 133.556 C 28.317 132.542,29.047 130.562,29.411 129.156 C 29.775 127.750,30.682 125.511,31.426 124.181 C 32.170 122.850,33.038 121.026,33.355 120.127 C 33.673 119.227,34.365 117.796,34.894 116.946 C 35.423 116.096,36.175 114.591,36.564 113.602 C 36.953 112.613,37.863 110.813,38.585 109.602 C 41.769 104.260,42.253 103.442,43.157 101.867 C 44.540 99.457,48.904 93.022,51.204 90.000 C 52.293 88.570,53.815 86.500,54.586 85.400 C 58.599 79.679,67.962 69.627,76.604 61.764 C 83.621 55.379,85.187 54.096,91.541 49.519 C 93.159 48.353,95.229 46.816,96.141 46.101 C 97.054 45.387,98.564 44.449,99.498 44.016 C 100.433 43.584,102.233 42.532,103.498 41.679 C 108.470 38.329,110.247 37.231,111.400 36.799 C 112.060 36.551,113.410 35.833,114.400 35.202 C 115.390 34.571,117.280 33.654,118.600 33.164 C 119.920 32.674,121.630 31.859,122.400 31.353 C 123.170 30.847,125.060 29.962,126.600 29.385 C 128.140 28.808,129.955 27.995,130.633 27.577 C 131.311 27.160,133.021 26.536,134.433 26.190 C 135.845 25.845,138.350 24.947,140.000 24.194 C 141.650 23.441,144.260 22.558,145.800 22.232 C 147.340 21.906,150.130 21.110,152.000 20.463 C 153.870 19.816,157.266 18.995,159.547 18.639 C 161.827 18.282,165.445 17.546,167.585 17.004 C 176.105 14.844,193.522 13.991,212.400 14.809 " stroke="none" fill="#98644d" fill-rule="evenodd"></path><path id="path4" d="M86.409 136.330 C 84.725 138.014,84.744 137.172,84.878 202.418 C 85.015 269.382,84.745 263.791,87.886 264.829 C 89.928 265.504,183.010 265.052,184.530 264.359 C 186.292 263.556,186.540 262.356,186.707 253.800 C 186.890 244.420,186.616 243.008,184.400 241.901 C 183.101 241.252,180.603 241.201,149.722 241.201 L 116.445 241.200 115.385 240.288 C 114.705 239.704,114.201 238.734,113.980 237.588 C 113.548 235.351,113.536 214.881,113.964 212.274 C 114.549 208.721,111.743 209.026,145.914 208.797 C 178.509 208.579,177.713 208.635,178.856 206.493 C 179.775 204.771,179.627 188.511,178.679 187.064 C 177.460 185.204,177.386 185.200,146.474 185.199 C 113.356 185.199,114.617 185.307,113.882 182.406 C 113.210 179.756,113.716 162.380,114.507 160.919 C 115.653 158.803,115.621 158.805,149.400 158.801 C 184.561 158.797,182.497 158.980,183.853 155.734 C 184.876 153.286,184.490 138.847,183.361 137.328 C 181.711 135.108,184.138 135.212,134.069 135.206 L 87.538 135.200 86.409 136.330 M210.437 135.723 C 209.688 135.985,208.698 136.708,208.237 137.329 L 207.400 138.459 207.295 199.382 C 207.180 266.234,207.054 262.687,209.600 264.180 C 212.729 266.013,230.729 265.567,232.930 263.600 L 234.200 262.466 234.400 226.494 C 234.614 187.984,234.556 188.990,236.545 189.281 C 237.369 189.401,240.911 193.989,242.443 196.922 C 242.881 197.759,243.815 199.233,244.519 200.199 C 245.224 201.164,246.520 203.146,247.400 204.602 C 248.280 206.059,249.940 208.725,251.089 210.526 C 252.238 212.326,253.948 215.022,254.889 216.516 C 255.830 218.009,257.183 220.079,257.895 221.116 C 258.608 222.152,259.579 223.720,260.053 224.600 C 260.528 225.480,261.587 227.190,262.406 228.400 C 263.792 230.446,265.947 233.774,269.012 238.600 C 269.710 239.700,271.088 241.860,272.074 243.400 C 273.059 244.940,274.354 247.010,274.951 248.000 C 275.549 248.990,276.434 250.379,276.919 251.087 C 277.403 251.795,278.790 254.009,280.000 256.008 C 282.880 260.765,285.804 264.328,287.136 264.701 C 289.645 265.406,310.517 265.045,311.932 264.273 C 314.575 262.831,314.421 267.052,314.305 199.433 L 314.200 138.064 313.230 137.032 C 311.731 135.436,310.093 135.205,300.287 135.202 C 290.463 135.200,288.967 135.450,287.932 137.266 C 287.504 138.018,287.361 145.407,287.200 175.086 C 287.017 208.867,286.944 212.028,286.331 212.641 C 285.429 213.542,284.661 213.165,283.230 211.119 C 282.569 210.173,281.491 208.675,280.835 207.789 C 280.180 206.903,279.509 205.823,279.345 205.389 C 279.181 204.955,278.316 203.489,277.423 202.132 C 274.938 198.353,273.475 196.068,272.644 194.672 C 272.228 193.972,271.138 192.230,270.223 190.800 C 269.307 189.370,267.847 187.064,266.979 185.675 C 266.110 184.286,264.646 182.005,263.724 180.606 C 262.802 179.207,261.667 177.374,261.200 176.531 C 260.734 175.689,259.372 173.470,258.174 171.600 C 256.976 169.730,255.681 167.680,255.298 167.044 C 254.914 166.408,253.745 164.563,252.700 162.944 C 249.600 158.140,247.090 154.191,245.600 151.769 C 244.830 150.518,243.418 148.303,242.462 146.847 C 241.507 145.391,240.366 143.501,239.927 142.646 C 238.522 139.911,235.264 136.100,233.932 135.636 C 232.156 135.017,212.242 135.090,210.437 135.723 M179.875 138.314 C 181.403 139.286,181.930 154.015,180.483 155.324 C 179.837 155.909,176.567 155.984,147.183 156.086 C 115.519 156.197,114.555 156.223,113.003 157.000 C 110.385 158.312,110.383 158.327,110.497 172.538 L 110.600 185.277 111.789 186.224 C 113.917 187.921,115.441 188.000,145.838 188.000 L 174.836 188.000 175.818 188.982 C 177.103 190.267,177.378 204.222,176.139 205.251 C 175.596 205.702,169.999 205.836,144.839 206.000 C 111.161 206.220,111.986 206.156,110.855 208.638 C 110.122 210.249,110.226 240.102,110.970 241.542 C 112.177 243.876,110.745 243.782,148.532 244.000 C 182.331 244.195,183.280 244.221,183.832 244.976 C 184.548 245.955,184.643 257.983,183.951 259.969 C 183.233 262.027,184.164 261.983,135.477 262.257 L 89.400 262.516 88.400 261.693 L 87.400 260.871 87.282 201.735 C 87.161 141.572,87.191 139.667,88.252 138.605 C 88.911 137.946,178.847 137.661,179.875 138.314 M232.356 138.444 C 233.204 138.740,234.195 139.695,235.315 141.295 C 237.681 144.673,237.759 144.791,238.955 146.800 C 239.545 147.790,240.830 149.860,241.811 151.400 C 242.792 152.940,243.911 154.719,244.297 155.353 C 245.462 157.265,248.940 162.707,249.885 164.097 C 250.372 164.814,251.272 166.272,251.885 167.338 C 252.498 168.403,253.396 169.843,253.881 170.538 C 254.772 171.815,257.043 175.428,259.600 179.637 C 261.149 182.187,262.549 184.375,265.100 188.236 C 266.035 189.650,266.800 190.920,266.800 191.056 C 266.800 191.193,267.420 192.168,268.179 193.224 C 268.937 194.279,270.014 196.011,270.573 197.071 C 271.131 198.132,272.103 199.720,272.732 200.600 C 274.668 203.309,277.455 207.715,278.343 209.473 C 278.808 210.393,279.375 211.261,279.602 211.401 C 279.829 211.542,280.452 212.519,280.986 213.573 C 283.252 218.044,287.230 221.221,288.791 219.808 C 290.318 218.426,290.400 216.304,290.400 178.006 C 290.400 141.078,290.466 139.115,291.725 138.314 C 291.986 138.148,295.904 138.009,300.430 138.006 L 308.661 138.000 309.630 139.032 L 310.600 140.064 310.705 199.185 C 310.818 262.691,310.875 260.835,308.800 261.883 C 307.735 262.421,291.696 262.639,289.244 262.149 C 287.912 261.882,284.977 258.589,283.229 255.400 C 282.747 254.520,281.778 252.957,281.076 251.927 C 279.606 249.769,277.836 247.005,276.400 244.623 C 275.850 243.711,274.926 242.342,274.346 241.582 C 273.766 240.822,272.902 239.425,272.427 238.478 C 271.951 237.531,270.985 235.972,270.281 235.012 C 269.576 234.053,268.190 231.887,267.200 230.200 C 266.210 228.513,264.827 226.351,264.126 225.397 C 263.426 224.443,262.547 223.063,262.175 222.331 C 261.802 221.599,260.912 220.190,260.198 219.200 C 259.485 218.210,258.507 216.680,258.026 215.800 C 257.545 214.920,256.578 213.355,255.876 212.322 C 253.247 208.453,250.509 204.120,248.515 200.673 C 247.902 199.614,246.640 197.724,245.711 196.473 C 244.782 195.223,244.017 194.071,244.011 193.912 C 243.986 193.242,239.898 187.205,237.933 184.937 C 235.640 182.290,234.849 181.800,233.440 182.154 C 231.362 182.676,231.415 181.717,231.200 222.736 L 231.000 260.871 230.028 261.658 C 228.441 262.943,213.075 262.629,211.991 261.290 C 210.779 259.791,210.755 258.429,210.880 198.065 L 211.000 139.931 212.122 138.965 C 213.396 137.870,229.516 137.455,232.356 138.444 " stroke="none" fill="#eca474" fill-rule="evenodd"></path></g></svg>