<svg id="svg" version="1.1" xmlns="http://www.w3.org/2000/svg" xmlns:xlink="http://www.w3.org/1999/xlink" width="400" height="400" viewBox="0, 0, 400,400"><g id="svgg"><path id="path0" d="M185.200 14.820 C 175.275 15.175,169.077 15.858,167.439 16.778 C 166.103 17.528,162.824 18.180,158.200 18.614 C 155.088 18.907,152.833 19.548,150.773 20.726 C 150.018 21.158,147.601 21.807,145.401 22.168 C 142.116 22.707,141.135 23.039,139.902 24.031 C 138.754 24.953,137.636 25.372,135.159 25.807 C 132.752 26.230,131.384 26.731,129.847 27.751 C 128.556 28.608,126.836 29.310,125.273 29.617 C 123.550 29.956,122.640 30.351,122.356 30.881 C 121.898 31.738,119.372 32.936,117.155 33.347 C 116.360 33.495,115.370 33.998,114.955 34.465 C 114.111 35.413,110.572 37.190,109.514 37.196 C 109.137 37.198,108.632 37.567,108.392 38.016 C 108.151 38.465,106.994 39.287,105.820 39.843 C 104.645 40.399,103.234 41.359,102.683 41.977 C 102.053 42.685,100.961 43.273,99.732 43.568 C 98.326 43.906,97.565 44.360,97.002 45.198 C 96.572 45.837,95.542 46.665,94.712 47.040 C 93.882 47.414,92.459 48.407,91.550 49.246 C 90.641 50.085,89.291 50.972,88.549 51.217 C 87.807 51.462,87.200 51.821,87.200 52.015 C 87.200 52.555,85.548 53.982,84.155 54.646 C 83.471 54.972,82.710 55.680,82.464 56.219 C 82.218 56.759,81.811 57.200,81.559 57.200 C 81.307 57.200,80.254 58.055,79.220 59.100 C 78.186 60.145,76.107 62.080,74.601 63.400 C 73.094 64.720,70.228 67.508,68.231 69.595 C 66.234 71.682,63.835 74.181,62.900 75.148 C 61.965 76.114,61.200 77.053,61.200 77.234 C 61.200 77.414,60.480 78.141,59.600 78.848 C 58.720 79.555,58.000 80.329,58.000 80.567 C 57.999 81.161,56.206 83.200,55.684 83.200 C 55.452 83.200,55.057 83.821,54.807 84.580 C 54.556 85.339,53.770 86.470,53.060 87.094 C 52.350 87.717,51.539 88.782,51.258 89.459 C 50.978 90.137,50.120 91.301,49.352 92.046 C 48.585 92.791,47.604 94.186,47.172 95.147 C 46.741 96.108,45.954 97.235,45.424 97.652 C 44.895 98.069,44.169 99.289,43.813 100.362 C 43.456 101.436,42.557 102.940,41.814 103.704 C 41.071 104.469,40.241 105.838,39.969 106.746 C 39.697 107.654,38.956 108.977,38.323 109.687 C 37.689 110.396,37.059 111.432,36.922 111.988 C 36.479 113.793,35.246 116.384,34.398 117.295 C 33.942 117.784,33.471 118.638,33.350 119.192 C 32.904 121.250,31.910 123.430,30.962 124.430 C 30.296 125.131,29.843 126.279,29.540 128.030 C 29.069 130.755,28.362 132.492,27.190 133.800 C 26.775 134.262,26.193 136.107,25.810 138.171 C 25.335 140.732,24.822 142.203,23.995 143.371 C 23.007 144.768,22.752 145.711,22.205 149.995 C 21.765 153.439,21.309 155.426,20.735 156.395 C 19.423 158.609,18.885 161.046,18.614 166.000 C 18.264 172.374,17.696 176.187,16.677 179.000 C 15.319 182.750,15.321 214.203,16.680 217.600 C 17.700 220.149,18.271 223.926,18.617 230.400 C 18.889 235.501,19.199 236.919,20.647 239.685 C 21.341 241.010,21.806 242.913,22.211 246.085 C 22.833 250.953,23.142 252.400,23.560 252.400 C 24.207 252.400,25.183 254.874,25.772 258.005 C 26.124 259.872,26.741 261.850,27.144 262.400 C 28.451 264.186,29.117 265.771,29.412 267.805 C 29.740 270.061,30.192 271.091,31.245 271.983 C 31.645 272.323,32.426 274.009,32.980 275.730 C 33.533 277.452,34.334 279.162,34.760 279.530 C 35.185 279.899,35.941 281.370,36.439 282.800 C 36.938 284.230,37.846 285.983,38.456 286.695 C 39.067 287.407,39.769 288.740,40.016 289.658 C 40.263 290.576,41.005 291.867,41.666 292.527 C 42.326 293.188,43.311 294.735,43.855 295.964 C 44.398 297.194,45.266 298.560,45.783 299.000 C 46.301 299.440,46.925 300.444,47.170 301.231 C 47.416 302.018,48.128 303.040,48.753 303.502 C 49.378 303.964,50.255 305.044,50.703 305.903 C 51.150 306.762,52.165 308.170,52.957 309.032 C 53.750 309.894,54.593 311.185,54.830 311.900 C 55.068 312.615,55.452 313.200,55.684 313.200 C 56.221 313.200,57.999 315.247,58.000 315.866 C 58.000 316.123,58.720 316.903,59.600 317.600 C 60.480 318.297,61.204 319.077,61.209 319.334 C 61.215 319.590,61.933 320.328,62.806 320.974 C 63.679 321.620,64.494 322.466,64.617 322.854 C 64.740 323.242,65.552 324.147,66.420 324.866 C 67.289 325.584,68.000 326.331,68.000 326.526 C 68.000 326.721,69.209 327.987,70.688 329.340 C 72.166 330.693,74.222 332.610,75.256 333.600 C 76.290 334.590,77.594 335.760,78.154 336.200 C 78.714 336.639,79.381 337.391,79.637 337.869 C 79.893 338.348,80.506 338.840,81.000 338.964 C 81.493 339.088,82.379 339.822,82.969 340.595 C 83.558 341.368,84.289 342.000,84.592 342.000 C 84.895 342.000,85.804 342.624,86.613 343.386 C 87.421 344.149,88.847 345.221,89.782 345.768 C 90.717 346.316,91.913 347.222,92.441 347.782 C 92.968 348.342,94.179 349.183,95.132 349.651 C 96.084 350.119,97.047 350.905,97.271 351.396 C 97.559 352.029,98.365 352.482,100.026 352.943 C 101.727 353.416,102.616 353.924,103.255 354.788 C 103.792 355.516,104.866 356.223,106.007 356.602 C 107.185 356.994,108.073 357.589,108.406 358.212 C 108.697 358.755,109.229 359.200,109.588 359.200 C 109.946 359.200,110.411 359.358,110.620 359.552 C 110.829 359.745,111.720 360.131,112.600 360.409 C 113.480 360.687,114.791 361.429,115.514 362.057 C 116.237 362.686,117.103 363.200,117.439 363.200 C 118.782 363.200,121.976 364.523,122.832 365.434 C 123.331 365.965,123.906 366.400,124.109 366.400 C 124.313 366.400,125.046 366.647,125.740 366.950 C 126.433 367.252,127.765 367.709,128.699 367.966 C 129.634 368.222,130.738 368.796,131.152 369.241 C 131.646 369.771,132.925 370.235,134.853 370.586 C 138.557 371.258,140.433 371.903,141.200 372.765 C 141.886 373.537,144.401 374.262,147.600 374.609 C 150.211 374.893,151.905 375.468,153.001 376.441 C 153.801 377.152,156.501 377.693,161.800 378.204 C 164.867 378.500,167.231 379.048,171.200 380.386 C 176.827 382.281,223.388 382.434,228.400 380.573 C 231.880 379.280,234.256 378.769,240.345 378.003 C 244.310 377.504,246.652 377.032,246.945 376.672 C 247.609 375.859,250.404 374.875,252.861 374.590 C 256.390 374.181,259.200 373.565,259.200 373.201 C 259.200 372.599,263.326 370.898,265.491 370.608 C 266.884 370.421,268.058 369.949,269.011 369.191 C 269.798 368.566,271.017 367.936,271.721 367.790 C 274.437 367.229,277.030 366.163,277.705 365.331 C 278.093 364.853,278.993 364.337,279.705 364.185 C 280.417 364.032,281.180 363.773,281.400 363.609 C 281.620 363.445,282.311 363.188,282.934 363.039 C 283.558 362.890,284.498 362.339,285.022 361.815 C 285.546 361.291,286.385 360.737,286.887 360.583 C 288.893 359.971,291.182 358.761,291.681 358.049 C 291.970 357.636,293.106 356.993,294.204 356.620 C 295.302 356.248,296.706 355.427,297.324 354.796 C 297.942 354.164,299.292 353.334,300.324 352.951 C 301.356 352.568,302.708 351.657,303.329 350.927 C 303.950 350.197,304.715 349.600,305.028 349.600 C 305.342 349.600,306.266 348.970,307.082 348.201 C 307.898 347.431,308.888 346.699,309.283 346.574 C 309.677 346.449,310.000 346.192,310.000 346.004 C 310.000 345.816,310.630 345.454,311.400 345.200 C 312.170 344.946,312.800 344.579,312.800 344.385 C 312.800 343.791,314.950 342.000,315.662 342.000 C 316.031 342.000,316.903 341.280,317.600 340.400 C 318.297 339.520,319.099 338.800,319.382 338.800 C 319.664 338.800,320.478 338.086,321.189 337.214 C 321.900 336.342,322.778 335.529,323.141 335.407 C 323.503 335.286,324.330 334.470,324.977 333.593 C 325.624 332.717,326.332 332.000,326.549 332.000 C 327.034 332.000,335.600 323.300,335.600 322.807 C 335.600 322.613,336.150 322.063,336.822 321.584 C 337.494 321.106,338.487 320.013,339.027 319.157 C 339.568 318.301,340.239 317.600,340.519 317.600 C 340.799 317.600,341.371 317.015,341.790 316.300 C 342.210 315.585,343.239 314.318,344.077 313.485 C 344.915 312.651,345.600 311.741,345.600 311.463 C 345.600 311.184,346.248 310.249,347.040 309.385 C 347.831 308.520,348.820 307.145,349.236 306.329 C 349.653 305.513,350.597 304.250,351.334 303.523 C 352.071 302.795,352.875 301.610,353.121 300.888 C 353.366 300.167,354.089 299.137,354.728 298.599 C 355.409 298.026,356.095 296.889,356.385 295.853 C 356.693 294.752,357.470 293.508,358.440 292.561 C 359.298 291.723,360.000 290.705,360.000 290.299 C 360.000 289.314,361.132 287.163,362.090 286.326 C 362.514 285.956,363.303 284.349,363.841 282.757 C 364.380 281.164,365.161 279.622,365.577 279.331 C 365.997 279.037,366.720 277.511,367.203 275.901 C 367.721 274.173,368.462 272.644,369.036 272.119 C 369.639 271.568,370.164 270.445,370.437 269.119 C 371.110 265.853,371.978 263.482,372.834 262.567 C 373.263 262.109,373.869 260.579,374.181 259.167 C 375.094 255.032,375.630 253.451,376.407 252.600 C 377.145 251.791,377.721 249.150,378.196 244.400 C 378.375 242.603,378.884 240.957,379.843 239.069 C 381.186 236.427,381.244 236.120,381.630 229.697 C 382.024 223.128,382.134 222.378,383.357 217.914 C 385.115 211.493,385.024 183.821,383.225 177.957 C 382.309 174.972,381.600 169.739,381.600 165.965 C 381.600 162.299,381.047 159.723,379.634 156.807 C 378.894 155.278,378.339 153.375,378.193 151.861 C 377.763 147.406,377.134 144.000,376.741 144.000 C 376.122 144.000,374.899 140.848,374.195 137.435 C 373.806 135.553,373.251 134.024,372.817 133.641 C 371.983 132.905,371.354 131.238,370.595 127.749 C 370.255 126.185,369.703 124.939,369.067 124.303 C 368.507 123.744,367.762 122.205,367.364 120.786 C 366.975 119.399,366.176 117.710,365.588 117.032 C 365.001 116.355,364.192 114.745,363.791 113.456 C 363.391 112.166,362.470 110.402,361.745 109.535 C 361.021 108.668,360.316 107.357,360.178 106.622 C 360.036 105.865,359.341 104.718,358.573 103.973 C 357.797 103.222,356.934 101.793,356.555 100.630 C 356.137 99.352,355.404 98.191,354.577 97.496 C 353.854 96.889,353.151 95.887,353.015 95.270 C 352.880 94.652,352.134 93.547,351.357 92.815 C 350.581 92.083,349.564 90.610,349.098 89.542 C 348.632 88.474,348.095 87.600,347.906 87.600 C 347.349 87.600,345.600 85.537,345.600 84.880 C 345.600 84.548,344.925 83.587,344.100 82.744 C 343.275 81.901,341.939 80.444,341.131 79.506 C 339.003 77.036,336.068 73.793,334.000 71.627 C 333.010 70.591,331.363 68.855,330.340 67.771 C 329.316 66.687,327.336 64.810,325.940 63.600 C 324.543 62.390,322.680 60.668,321.800 59.774 C 320.920 58.880,319.695 57.835,319.079 57.451 C 318.462 57.067,317.843 56.449,317.703 56.077 C 317.400 55.268,316.393 54.430,315.703 54.413 C 315.013 54.395,313.200 52.763,313.200 52.159 C 313.200 51.886,312.575 51.456,311.810 51.203 C 311.046 50.951,309.561 50.025,308.510 49.145 C 307.460 48.265,305.952 47.208,305.161 46.796 C 304.370 46.384,303.431 45.601,303.075 45.058 C 302.719 44.514,301.891 43.952,301.236 43.808 C 300.581 43.664,299.270 42.959,298.322 42.242 C 297.375 41.525,295.655 40.515,294.499 39.997 C 293.343 39.480,292.124 38.639,291.790 38.128 C 291.455 37.618,290.938 37.200,290.641 37.200 C 289.648 37.200,285.711 35.266,285.480 34.665 C 285.355 34.339,283.965 33.666,282.390 33.169 C 280.700 32.636,279.081 31.820,278.438 31.177 C 277.699 30.438,276.586 29.931,274.975 29.599 C 272.333 29.056,271.488 28.687,269.949 27.407 C 269.304 26.871,267.634 26.280,265.630 25.878 C 263.377 25.426,261.840 24.850,260.681 24.023 C 259.339 23.065,258.194 22.697,255.000 22.195 C 252.329 21.776,250.170 21.159,248.504 20.339 C 246.530 19.368,245.025 18.997,241.304 18.565 C 235.571 17.899,234.856 17.748,232.860 16.783 C 229.084 14.959,206.895 14.045,185.200 14.820 M95.644 135.770 C 95.998 135.920,96.462 136.438,96.675 136.921 C 96.889 137.405,97.809 139.330,98.721 141.200 C 99.633 143.070,100.489 145.320,100.623 146.200 C 100.982 148.551,101.631 150.468,102.451 151.600 C 102.850 152.150,103.643 154.465,104.215 156.745 C 104.786 159.025,105.573 161.234,105.963 161.653 C 106.670 162.412,107.689 165.560,108.212 168.600 C 108.363 169.480,108.910 170.830,109.426 171.600 C 109.943 172.370,110.655 174.170,111.009 175.600 C 111.363 177.030,111.832 178.920,112.051 179.800 C 112.270 180.680,112.801 181.775,113.231 182.233 C 113.662 182.691,114.269 184.221,114.581 185.633 C 115.470 189.658,116.001 191.217,117.010 192.763 C 117.526 193.554,118.153 195.370,118.404 196.800 C 118.655 198.230,119.455 200.572,120.181 202.004 C 120.908 203.436,121.796 206.030,122.155 207.769 C 122.515 209.507,122.968 211.125,123.162 211.364 C 124.298 212.767,125.235 215.149,125.779 218.017 C 126.338 220.962,126.584 221.487,128.299 223.399 C 130.668 226.039,131.010 225.811,131.775 221.085 C 132.103 219.059,132.665 217.150,133.123 216.506 C 134.311 214.833,135.077 212.759,135.392 210.361 C 135.547 209.172,135.902 207.750,136.180 207.200 C 136.458 206.650,137.161 205.274,137.743 204.142 C 138.324 203.010,138.800 201.653,138.800 201.126 C 138.800 199.772,139.963 195.470,140.402 195.199 C 141.006 194.825,141.870 192.397,142.609 189.000 C 143.323 185.715,143.752 184.591,144.628 183.714 C 144.905 183.438,145.515 181.545,145.986 179.506 C 147.119 174.596,147.107 174.629,147.991 173.610 C 148.413 173.123,148.954 171.707,149.193 170.463 C 149.957 166.475,150.502 164.761,151.450 163.365 C 151.981 162.582,152.647 160.594,153.013 158.700 C 153.677 155.261,154.104 154.085,155.305 152.387 C 155.700 151.830,156.350 149.760,156.750 147.787 C 157.213 145.509,158.012 143.202,158.939 141.467 C 159.743 139.964,160.400 138.422,160.400 138.042 C 160.400 135.530,164.334 134.948,179.006 135.286 C 188.007 135.494,189.010 135.703,189.452 137.464 C 189.806 138.874,188.991 142.209,188.068 143.132 C 187.632 143.568,186.936 145.511,186.406 147.773 C 185.834 150.218,185.154 152.069,184.577 152.754 C 184.025 153.411,183.319 155.269,182.803 157.422 C 182.332 159.390,181.506 161.644,180.967 162.431 C 180.428 163.218,179.743 165.018,179.445 166.431 C 178.839 169.305,177.861 171.849,176.992 172.809 C 176.674 173.160,176.120 174.877,175.761 176.624 C 175.346 178.648,174.684 180.434,173.936 181.548 C 173.210 182.629,172.525 184.445,172.140 186.308 C 171.797 187.965,171.183 189.878,170.775 190.560 C 169.371 192.909,168.871 194.209,168.229 197.182 C 167.875 198.822,167.255 200.532,166.851 200.982 C 166.050 201.875,165.036 204.818,164.601 207.514 C 164.449 208.457,163.896 209.737,163.372 210.360 C 162.771 211.075,162.033 213.022,161.372 215.633 C 160.728 218.182,159.970 220.195,159.400 220.872 C 158.891 221.477,158.351 222.743,158.199 223.686 C 157.777 226.303,156.759 229.246,155.736 230.809 C 155.229 231.584,154.641 233.114,154.431 234.209 C 153.916 236.881,153.016 239.331,152.052 240.685 C 151.615 241.298,151.052 242.880,150.801 244.200 C 150.318 246.743,149.535 248.758,148.391 250.400 C 148.008 250.950,147.404 252.814,147.048 254.542 C 146.631 256.562,145.974 258.316,145.204 259.456 C 144.546 260.430,143.896 261.674,143.759 262.220 C 143.127 264.738,142.767 264.800,128.779 264.800 C 121.786 264.800,115.764 264.684,115.396 264.543 C 113.986 264.002,110.902 258.514,110.416 255.680 C 110.128 254.004,109.458 252.158,108.626 250.752 C 107.837 249.418,107.052 247.306,106.694 245.552 C 106.347 243.849,105.577 241.754,104.875 240.600 C 104.139 239.389,103.411 237.364,103.031 235.465 C 102.686 233.741,102.072 231.909,101.667 231.395 C 100.732 230.206,99.782 227.634,99.208 224.737 C 98.961 223.493,98.416 222.080,97.997 221.596 C 97.195 220.672,96.911 219.891,95.775 215.489 C 95.390 213.999,94.742 212.394,94.334 211.924 C 93.927 211.454,93.418 210.424,93.203 209.635 C 91.721 204.179,91.110 202.418,90.423 201.626 C 89.993 201.130,89.450 199.707,89.216 198.463 C 88.601 195.188,88.025 193.562,86.986 192.172 C 86.481 191.496,85.849 189.786,85.580 188.372 C 85.312 186.957,84.936 185.629,84.746 185.420 C 84.556 185.211,84.400 184.802,84.400 184.512 C 84.400 184.222,83.945 183.264,83.389 182.383 C 82.833 181.502,82.097 179.422,81.754 177.760 C 81.382 175.961,80.632 173.940,79.902 172.765 C 79.141 171.542,78.468 169.690,78.132 167.896 C 77.833 166.303,77.221 164.498,76.771 163.885 C 75.798 162.557,75.002 160.394,74.176 156.835 C 73.843 155.396,73.232 153.855,72.819 153.410 C 72.406 152.964,71.585 150.800,70.994 148.600 C 70.402 146.400,69.564 144.215,69.131 143.744 C 66.271 140.636,67.434 135.740,71.096 135.470 C 74.605 135.212,94.911 135.459,95.644 135.770 M227.863 135.677 C 230.513 136.636,230.400 134.927,230.400 173.954 C 230.400 209.660,230.553 214.480,232.057 226.000 C 232.497 229.374,233.994 233.600,234.749 233.600 C 234.966 233.600,235.724 234.496,236.433 235.592 C 237.413 237.103,238.312 237.886,240.162 238.838 C 241.503 239.527,242.968 240.428,243.418 240.839 C 246.460 243.616,267.708 243.373,270.052 240.534 C 270.353 240.169,271.352 239.537,272.271 239.129 C 273.260 238.691,274.289 237.827,274.791 237.015 C 275.258 236.259,275.974 235.535,276.383 235.405 C 277.249 235.130,277.423 234.749,278.392 231.000 C 280.985 220.963,281.181 216.948,281.191 173.789 C 281.201 134.433,281.066 136.650,283.512 135.636 C 284.324 135.300,287.813 135.197,295.520 135.281 L 306.383 135.400 307.492 136.509 L 308.600 137.618 308.729 167.109 C 308.939 214.864,308.056 236.615,305.803 239.200 C 305.515 239.530,304.888 241.128,304.408 242.750 C 303.910 244.436,303.120 246.116,302.566 246.671 C 302.032 247.204,301.245 248.307,300.816 249.121 C 299.434 251.746,293.761 257.188,291.361 258.190 C 290.538 258.534,289.634 259.145,289.352 259.547 C 289.070 259.949,287.436 260.785,285.720 261.405 C 284.004 262.024,282.091 262.952,281.469 263.466 C 280.847 263.980,280.127 264.406,279.869 264.413 C 279.344 264.428,276.333 264.837,269.800 265.783 C 259.098 267.332,254.382 267.337,243.400 265.809 C 240.980 265.472,237.499 265.014,235.664 264.790 C 233.829 264.566,231.781 264.072,231.113 263.692 C 228.153 262.006,227.311 261.602,225.918 261.203 C 225.103 260.970,223.933 260.359,223.318 259.846 C 222.703 259.333,221.365 258.472,220.344 257.932 C 219.323 257.391,217.845 256.331,217.060 255.575 C 212.755 251.429,211.363 249.877,210.595 248.371 C 210.211 247.617,209.293 246.170,208.556 245.156 C 207.708 243.991,206.982 242.311,206.583 240.590 C 206.236 239.092,205.677 237.336,205.342 236.688 C 203.181 232.509,202.829 223.804,202.812 174.119 C 202.799 136.382,202.793 136.516,204.546 135.668 C 205.804 135.058,226.174 135.066,227.863 135.677 " stroke="none" fill="#cb9c04" fill-rule="evenodd"></path><path id="path1" d="M170.600 1.859 C 162.880 2.032,162.800 2.052,162.800 3.808 L 162.800 5.200 159.500 5.218 C 156.630 5.234,150.377 5.504,148.900 5.675 C 148.625 5.707,148.400 5.864,148.400 6.023 C 148.400 6.183,147.983 6.418,147.473 6.546 C 146.964 6.674,146.303 7.233,146.006 7.789 C 145.513 8.709,145.229 8.802,142.832 8.820 C 139.774 8.844,135.612 9.142,134.922 9.388 C 134.659 9.481,134.324 10.197,134.178 10.979 C 133.905 12.430,132.595 12.788,128.716 12.471 C 127.284 12.354,124.433 13.928,124.169 14.980 C 123.943 15.881,123.697 16.005,122.057 16.043 C 121.035 16.066,119.930 16.125,119.600 16.174 C 119.270 16.223,118.499 16.294,117.887 16.332 C 116.760 16.401,116.656 16.536,116.226 18.500 C 115.996 19.549,115.875 19.600,113.618 19.600 C 110.132 19.600,109.200 20.062,109.200 21.790 C 109.200 23.291,108.515 23.490,104.300 23.212 C 103.695 23.172,103.200 23.333,103.200 23.570 C 103.200 23.806,102.987 23.955,102.728 23.900 C 102.455 23.842,102.201 24.378,102.127 25.167 C 101.969 26.854,102.110 26.738,100.088 26.857 C 99.160 26.912,98.400 27.072,98.400 27.214 C 98.400 27.356,97.947 27.678,97.394 27.930 C 96.841 28.182,96.186 28.832,95.939 29.375 C 95.559 30.209,95.171 30.381,93.444 30.481 L 91.400 30.600 91.280 32.248 L 91.159 33.895 88.385 34.094 C 85.272 34.317,84.601 34.693,84.258 36.409 C 84.041 37.497,83.879 37.600,82.386 37.600 C 81.399 37.600,80.851 37.758,81.000 38.000 C 81.136 38.220,81.057 38.400,80.824 38.400 C 80.591 38.400,80.400 39.030,80.400 39.800 C 80.400 41.080,80.300 41.200,79.233 41.200 C 77.239 41.200,76.800 41.558,76.800 43.186 L 76.800 44.686 74.330 44.944 C 71.716 45.217,70.619 45.871,70.240 47.384 C 70.072 48.054,69.621 48.382,68.609 48.572 C 67.094 48.856,66.202 49.999,66.527 51.241 C 66.674 51.806,66.505 52.010,65.863 52.039 C 62.908 52.174,63.007 52.119,62.875 53.722 C 62.742 55.325,62.444 55.584,60.561 55.726 C 59.527 55.804,59.378 55.988,59.200 57.407 C 59.010 58.923,58.922 59.010,57.400 59.200 C 56.002 59.375,55.795 59.533,55.760 60.454 C 55.692 62.253,55.296 62.800,54.062 62.800 C 52.623 62.800,51.896 63.618,52.069 65.042 C 52.179 65.953,51.996 66.195,50.918 66.563 C 49.243 67.134,48.825 67.592,48.709 68.986 C 48.642 69.803,48.241 70.357,47.325 70.897 C 46.616 71.316,45.925 72.005,45.791 72.429 C 45.656 72.853,45.378 73.200,45.173 73.200 C 44.968 73.200,44.800 74.000,44.800 74.977 L 44.800 76.754 43.100 76.877 C 41.408 76.999,41.399 77.008,41.277 78.700 C 41.168 80.202,41.040 80.400,40.177 80.400 C 39.640 80.400,39.200 80.574,39.200 80.787 C 39.200 81.001,38.946 81.078,38.636 80.959 C 37.961 80.700,37.640 81.616,37.663 83.736 C 37.682 85.445,36.043 87.600,34.725 87.600 C 34.132 87.600,34.000 87.929,34.000 89.400 C 34.000 91.238,33.876 91.358,32.127 91.219 C 30.877 91.120,30.400 92.317,30.400 95.551 L 30.400 98.354 28.700 98.477 L 27.000 98.600 26.873 101.000 C 26.736 103.590,25.917 104.933,24.215 105.361 C 23.369 105.573,23.301 105.818,23.235 108.882 C 23.163 112.253,22.885 112.852,21.554 112.504 C 20.163 112.140,19.713 113.030,19.637 116.288 C 19.555 119.824,19.599 119.733,18.005 119.688 C 16.729 119.651,15.946 120.532,16.063 121.874 C 16.373 125.419,16.001 127.100,14.857 127.329 C 13.113 127.677,12.479 129.746,12.423 135.268 C 12.401 137.444,12.352 137.547,11.228 137.794 C 9.145 138.251,8.886 139.444,8.823 148.845 L 8.800 152.289 7.798 152.097 C 5.226 151.606,5.448 147.246,5.457 198.200 C 5.467 249.082,5.226 244.400,7.829 244.400 C 8.778 244.400,8.800 244.476,8.813 247.700 C 8.846 256.332,9.244 258.149,11.186 258.537 C 12.424 258.785,12.736 260.226,12.422 264.249 C 12.386 264.717,12.636 265.379,12.978 265.721 C 13.320 266.063,13.600 266.523,13.600 266.742 C 13.600 266.962,14.139 267.564,14.797 268.079 C 15.940 268.973,15.997 269.162,16.040 272.208 C 16.096 276.157,16.401 276.800,18.214 276.800 L 19.600 276.800 19.647 279.300 C 19.673 280.675,19.663 282.038,19.623 282.330 C 19.495 283.272,20.465 284.000,21.849 284.000 L 23.200 284.000 23.200 287.120 C 23.200 290.628,23.519 291.200,25.480 291.200 L 26.800 291.200 26.846 293.700 C 26.871 295.075,26.862 296.504,26.825 296.875 C 26.745 297.680,27.949 298.400,29.374 298.400 C 30.356 298.400,30.400 298.499,30.406 300.700 C 30.414 303.743,31.050 304.964,32.709 305.125 C 33.951 305.246,34.000 305.318,34.000 307.025 L 34.000 308.800 35.800 308.800 L 37.600 308.800 37.600 311.426 C 37.600 314.653,38.017 315.492,39.784 315.823 C 41.060 316.063,41.167 316.199,41.279 317.741 C 41.399 319.385,41.415 319.401,43.100 319.523 L 44.800 319.646 44.800 321.423 L 44.800 323.200 46.600 323.200 L 48.400 323.200 48.400 325.000 C 48.400 325.990,48.551 326.800,48.736 326.800 C 48.920 326.800,49.278 327.254,49.531 327.808 C 49.783 328.362,50.425 328.981,50.956 329.183 C 51.677 329.457,51.991 329.963,52.197 331.180 C 52.481 332.862,53.267 333.600,54.774 333.600 C 55.605 333.600,55.743 333.897,55.624 335.434 C 55.543 336.486,56.263 337.091,57.800 337.265 C 58.870 337.385,59.022 337.573,59.200 339.000 C 59.390 340.521,59.479 340.610,60.985 340.800 C 62.408 340.980,62.599 341.138,62.845 342.352 C 63.161 343.906,63.742 344.385,65.321 344.394 C 66.182 344.399,66.531 344.656,66.826 345.504 C 67.182 346.524,69.910 348.404,71.030 348.401 C 71.685 348.399,73.200 350.163,73.200 350.926 C 73.200 351.458,73.579 351.600,75.000 351.600 C 76.722 351.600,76.802 351.652,76.850 352.800 C 76.877 353.460,76.923 354.225,76.950 354.500 C 76.979 354.792,77.708 355.051,78.700 355.123 C 80.215 355.233,80.400 355.355,80.400 356.249 C 80.400 358.086,81.081 358.800,82.835 358.800 C 84.240 358.800,84.491 358.943,84.837 359.934 C 85.318 361.313,87.412 362.400,89.591 362.400 C 91.144 362.400,91.155 362.411,91.277 364.100 L 91.400 365.800 94.900 365.916 L 98.400 366.031 98.400 367.816 L 98.400 369.600 100.331 369.600 C 102.219 369.600,102.258 369.625,102.097 370.723 C 101.857 372.353,102.790 372.894,106.214 373.114 C 109.157 373.302,109.200 373.321,109.200 374.404 C 109.200 376.000,109.988 376.431,113.376 376.687 C 116.348 376.912,116.400 376.934,116.400 378.009 C 116.400 379.765,117.218 380.089,122.205 380.309 C 127.026 380.522,127.182 380.597,126.833 382.542 C 126.647 383.580,127.825 384.000,130.949 384.009 C 134.190 384.017,134.202 384.021,134.800 385.263 C 135.668 387.067,137.610 387.587,143.500 387.594 C 148.299 387.600,148.401 387.619,148.446 388.500 C 148.472 388.995,148.517 389.668,148.546 389.995 C 148.626 390.876,150.318 391.100,157.273 391.153 C 163.094 391.197,163.564 391.256,163.791 391.971 C 163.925 392.395,164.702 393.160,165.518 393.671 L 167.000 394.600 199.538 394.709 L 232.076 394.818 233.891 393.912 C 234.889 393.413,235.891 392.599,236.117 392.103 C 236.518 391.223,236.691 391.199,242.964 391.160 C 251.001 391.110,251.362 391.023,251.524 389.084 L 251.648 387.600 256.549 387.600 C 262.046 387.600,264.493 386.860,265.207 384.983 C 265.558 384.058,265.760 384.000,268.616 384.000 C 272.408 384.000,273.200 383.617,273.200 381.786 L 273.200 380.400 276.500 380.390 C 281.941 380.375,283.580 379.753,283.594 377.700 C 283.600 376.868,283.788 376.797,286.100 376.760 C 289.950 376.699,290.578 376.423,290.721 374.735 L 290.842 373.302 293.807 373.112 C 297.144 372.898,298.000 372.416,298.000 370.751 C 298.000 369.654,298.084 369.600,299.800 369.600 L 301.600 369.600 301.600 367.816 L 301.600 366.031 305.100 365.916 L 308.600 365.800 308.723 364.100 L 308.846 362.400 310.623 362.400 C 311.600 362.400,312.400 362.249,312.400 362.064 C 312.400 361.880,312.853 361.522,313.406 361.270 C 313.959 361.018,314.618 360.359,314.870 359.806 C 315.252 358.967,315.604 358.800,316.984 358.800 C 318.978 358.800,319.600 358.264,319.600 356.543 C 319.600 355.303,319.675 355.241,321.300 355.123 C 322.992 355.001,323.001 354.992,323.123 353.300 L 323.246 351.600 325.023 351.600 C 326.477 351.600,326.800 351.467,326.800 350.870 C 326.800 349.983,328.404 348.400,329.302 348.400 C 329.660 348.400,330.050 348.243,330.168 348.052 C 330.286 347.860,330.889 347.602,331.508 347.478 C 332.285 347.323,332.813 346.847,333.216 345.936 C 333.657 344.943,334.132 344.553,335.152 344.350 C 336.642 344.052,337.185 343.457,337.194 342.108 C 337.200 341.238,337.551 341.050,339.795 340.711 C 340.233 340.645,340.645 340.233,340.711 339.795 C 341.071 337.415,341.207 337.200,342.359 337.200 C 343.711 337.200,344.280 336.619,344.465 335.050 C 344.571 334.149,344.894 333.802,345.957 333.450 C 347.090 333.074,347.412 332.687,347.915 331.100 C 348.256 330.024,348.760 329.200,349.077 329.200 C 349.385 329.200,349.944 328.661,350.319 328.003 C 350.693 327.344,351.135 326.804,351.300 326.803 C 351.465 326.801,351.600 325.990,351.600 325.000 L 351.600 323.200 353.400 323.200 L 355.200 323.200 355.200 321.423 L 355.200 319.646 356.900 319.523 C 358.592 319.401,358.601 319.392,358.723 317.700 C 358.832 316.198,358.960 316.000,359.823 316.000 C 361.650 316.000,362.400 314.720,362.400 311.600 L 362.400 308.800 364.200 308.800 L 366.000 308.800 366.000 307.000 C 366.000 305.386,366.096 305.200,366.924 305.200 C 368.724 305.200,369.282 304.350,369.502 301.270 C 369.697 298.553,369.759 298.400,370.680 298.400 C 372.846 298.400,373.200 297.837,373.200 294.386 L 373.200 291.200 374.520 291.200 C 376.481 291.200,376.800 290.628,376.800 287.120 L 376.800 284.000 378.120 284.000 C 380.081 284.000,380.400 283.428,380.400 279.920 L 380.400 276.800 381.786 276.800 C 383.632 276.800,384.000 276.011,384.000 272.054 C 384.000 269.046,384.053 268.848,384.896 268.728 C 386.418 268.511,387.549 265.742,387.684 261.901 C 387.793 258.812,387.859 258.592,388.710 258.471 C 390.547 258.210,390.986 256.738,391.143 250.319 C 391.283 244.584,391.314 244.400,392.144 244.394 C 394.460 244.377,394.760 242.935,394.783 231.690 L 394.800 223.180 395.991 222.942 C 398.281 222.484,398.200 223.371,398.200 198.639 C 398.200 173.463,398.227 173.807,396.244 173.435 L 394.881 173.179 394.740 163.251 C 394.586 152.356,394.453 151.729,392.374 152.145 L 391.303 152.359 391.123 145.808 C 390.931 138.780,390.774 138.234,388.825 137.805 C 387.710 137.561,387.704 137.541,387.505 133.680 C 387.271 129.132,386.713 127.643,385.124 127.325 C 384.013 127.103,384.000 127.066,384.000 124.124 C 384.000 120.898,383.533 119.520,382.475 119.625 C 380.432 119.828,380.400 119.778,380.400 116.414 C 380.400 112.959,379.970 112.280,377.926 112.500 C 377.029 112.597,376.996 112.492,376.884 109.104 C 376.775 105.804,376.716 105.594,375.822 105.370 C 374.076 104.932,373.256 103.604,373.123 100.999 L 373.000 98.600 371.300 98.477 L 369.600 98.354 369.600 95.406 C 369.600 92.083,369.024 91.072,367.249 91.278 C 366.261 91.393,366.193 91.289,366.078 89.500 C 365.982 88.000,365.808 87.600,365.253 87.600 C 363.851 87.600,362.400 85.518,362.400 83.507 C 362.400 81.347,361.667 80.400,359.994 80.400 C 358.929 80.400,358.837 80.277,358.723 78.700 C 358.596 76.947,358.590 76.942,356.300 76.846 C 355.270 76.803,355.200 76.686,355.200 75.000 C 355.200 73.557,355.061 73.197,354.500 73.187 C 353.085 73.162,351.732 71.451,351.501 69.395 C 351.264 67.299,350.491 66.400,348.924 66.400 C 348.199 66.400,348.000 66.179,348.000 65.374 C 348.000 63.707,347.299 62.800,346.009 62.800 C 344.961 62.800,344.814 62.633,344.513 61.100 C 344.201 59.511,344.085 59.392,342.742 59.279 C 341.406 59.166,341.280 59.040,340.952 57.479 C 340.620 55.896,340.508 55.789,339.000 55.600 C 337.510 55.414,337.391 55.304,337.267 54.003 C 337.113 52.378,336.682 52.015,334.900 52.006 C 333.751 52.001,333.599 51.872,333.594 50.900 C 333.585 49.268,333.094 48.763,331.279 48.520 C 330.012 48.350,329.615 48.112,329.521 47.464 C 329.335 46.181,326.973 44.800,324.964 44.800 L 323.246 44.800 323.123 43.100 C 323.001 41.408,322.992 41.399,321.300 41.277 C 319.725 41.163,319.600 41.070,319.600 40.010 C 319.600 38.020,319.242 37.600,317.547 37.600 C 316.128 37.600,315.957 37.487,315.742 36.409 C 315.399 34.693,314.728 34.317,311.615 34.094 L 308.841 33.895 308.720 32.248 L 308.600 30.600 306.740 30.480 C 305.136 30.376,304.817 30.207,304.420 29.248 C 303.899 27.990,301.609 26.800,299.708 26.800 C 298.466 26.800,298.000 26.249,298.000 24.781 C 298.000 23.667,296.769 23.200,293.831 23.200 L 291.209 23.200 290.957 21.621 C 290.674 19.849,290.312 19.690,286.417 19.619 C 284.142 19.578,283.617 19.224,283.606 17.724 C 283.597 16.433,282.406 16.088,277.743 16.023 C 276.310 16.003,276.052 15.863,275.831 14.980 C 275.570 13.940,272.614 12.301,271.234 12.432 C 267.492 12.786,266.093 12.419,265.829 11.014 C 265.481 9.158,265.607 9.197,259.176 8.931 C 253.307 8.688,251.600 8.078,251.600 6.223 C 251.600 5.720,247.020 5.105,244.600 5.284 C 244.160 5.316,242.315 5.311,240.500 5.271 L 237.200 5.200 237.200 4.049 C 237.200 2.701,236.499 1.998,235.159 2.002 C 234.631 2.004,221.240 1.942,205.400 1.865 C 189.560 1.788,173.900 1.786,170.600 1.859 M214.400 11.811 C 219.113 12.628,226.324 13.507,232.245 13.988 C 236.412 14.327,237.647 14.587,239.719 15.564 C 241.456 16.384,243.560 16.928,246.734 17.377 C 251.187 18.006,253.657 18.721,254.152 19.523 C 254.290 19.746,255.707 20.145,257.301 20.409 C 261.011 21.026,263.624 21.918,264.461 22.853 C 264.824 23.259,266.084 23.785,267.261 24.022 C 270.035 24.580,273.534 25.953,273.915 26.634 C 274.080 26.928,275.381 27.465,276.807 27.827 C 278.469 28.249,279.997 28.972,281.063 29.839 C 282.074 30.662,283.515 31.362,284.741 31.625 C 285.940 31.882,287.293 32.530,288.078 33.225 C 288.805 33.867,290.210 34.695,291.200 35.065 C 292.190 35.434,293.418 36.246,293.929 36.868 C 294.440 37.491,295.194 38.000,295.605 38.000 C 296.016 38.000,296.455 38.166,296.581 38.369 C 296.706 38.572,297.346 38.856,298.001 39.000 C 298.657 39.144,299.775 39.878,300.485 40.631 C 301.195 41.384,301.979 42.000,302.227 42.000 C 302.984 42.000,305.028 43.147,305.809 44.010 C 306.215 44.458,307.494 45.367,308.652 46.030 C 309.810 46.692,310.863 47.570,310.994 47.980 C 311.124 48.390,311.934 49.007,312.795 49.351 C 313.655 49.695,314.761 50.521,315.252 51.185 C 315.743 51.849,316.517 52.507,316.972 52.647 C 317.428 52.788,318.615 53.645,319.612 54.551 C 320.608 55.458,322.580 57.190,323.994 58.400 C 328.600 62.343,331.245 64.797,333.283 67.019 C 333.879 67.669,334.546 68.380,334.767 68.600 C 335.868 69.699,339.875 74.189,340.400 74.911 C 340.730 75.365,341.538 76.268,342.195 76.917 C 342.852 77.567,343.752 78.692,344.195 79.419 C 344.638 80.145,345.495 81.126,346.100 81.599 C 346.705 82.071,347.200 82.739,347.200 83.082 C 347.200 83.425,347.809 84.280,348.553 84.981 C 349.297 85.683,350.215 86.855,350.592 87.585 C 350.970 88.316,351.973 89.635,352.821 90.518 C 353.669 91.401,354.470 92.607,354.600 93.199 C 354.730 93.790,355.503 94.991,356.318 95.867 C 357.133 96.743,358.033 98.111,358.317 98.906 C 358.602 99.702,359.332 100.885,359.940 101.536 C 360.548 102.186,361.290 103.460,361.589 104.366 C 361.888 105.272,362.733 106.632,363.466 107.387 C 364.200 108.142,364.800 109.119,364.800 109.557 C 364.800 109.994,364.980 110.464,365.200 110.600 C 365.420 110.736,365.600 111.288,365.600 111.827 C 365.600 112.370,366.134 113.366,366.797 114.059 C 367.905 115.219,368.792 117.334,368.798 118.828 C 368.799 119.173,369.438 120.201,370.218 121.112 C 371.276 122.349,371.777 123.447,372.196 125.448 C 372.553 127.153,373.215 128.767,374.016 129.882 C 374.985 131.232,375.411 132.437,375.864 135.118 C 376.188 137.033,376.685 138.781,376.968 139.001 C 378.005 139.809,379.112 142.665,379.371 145.200 C 379.716 148.583,380.394 151.600,380.808 151.600 C 381.621 151.600,382.515 155.852,383.617 164.967 C 383.855 166.929,384.293 169.007,384.592 169.584 C 387.588 175.378,387.576 220.715,384.576 226.728 C 384.244 227.393,383.790 229.527,383.567 231.469 C 382.586 240.027,382.235 241.820,381.131 243.925 C 380.357 245.400,379.887 247.113,379.595 249.525 C 379.082 253.754,378.567 255.460,377.370 256.898 C 376.299 258.183,376.153 258.632,375.804 261.703 C 375.612 263.385,375.166 264.564,374.151 266.074 C 373.254 267.406,372.554 269.117,372.182 270.885 C 371.813 272.639,371.257 274.005,370.641 274.669 C 369.451 275.952,369.016 276.851,368.367 279.363 C 368.089 280.443,367.449 281.685,366.945 282.122 C 366.431 282.570,365.659 284.117,365.183 285.655 C 364.650 287.377,363.975 288.676,363.362 289.158 C 362.827 289.579,362.006 290.796,361.538 291.862 C 361.070 292.928,360.190 294.372,359.582 295.070 C 358.974 295.769,358.351 296.912,358.198 297.611 C 358.044 298.310,357.243 299.557,356.417 300.383 C 355.591 301.209,354.791 302.382,354.638 302.989 C 354.486 303.597,353.732 304.748,352.963 305.547 C 352.194 306.346,351.220 307.738,350.800 308.639 C 350.380 309.540,349.398 310.765,348.618 311.359 C 347.838 311.954,347.200 312.783,347.200 313.202 C 347.200 313.620,346.480 314.541,345.600 315.248 C 344.720 315.955,344.000 316.761,344.000 317.038 C 344.000 317.314,342.472 319.129,340.604 321.071 C 338.736 323.012,337.206 324.723,337.204 324.873 C 337.202 325.024,336.345 326.032,335.300 327.115 C 334.255 328.198,332.838 329.695,332.152 330.442 C 331.465 331.189,330.565 332.077,330.152 332.416 C 328.491 333.776,320.515 340.859,319.276 342.074 C 318.548 342.788,317.436 343.589,316.806 343.854 C 316.176 344.119,315.350 344.809,314.972 345.387 C 314.593 345.965,313.649 346.703,312.874 347.027 C 312.098 347.351,311.228 347.953,310.939 348.366 C 310.208 349.409,306.816 351.600,305.931 351.600 C 305.529 351.600,305.200 351.858,305.200 352.173 C 305.200 352.824,303.162 354.400,302.319 354.400 C 302.012 354.400,301.022 355.110,300.119 355.978 C 299.025 357.029,297.743 357.769,296.273 358.196 C 294.914 358.591,293.840 359.184,293.475 359.742 C 293.149 360.240,291.761 361.087,290.391 361.624 C 289.021 362.161,287.639 362.994,287.321 363.475 C 287.002 363.956,286.169 364.474,285.471 364.626 C 283.639 365.026,280.000 366.691,280.000 367.129 C 280.000 367.513,279.411 367.760,275.600 368.978 C 274.390 369.365,272.950 370.100,272.400 370.612 C 271.709 371.255,270.349 371.751,268.000 372.217 C 266.130 372.587,264.240 373.207,263.800 373.595 C 262.412 374.819,260.295 375.585,257.238 375.969 C 255.452 376.193,253.865 376.644,253.238 377.104 C 251.752 378.198,248.380 379.113,244.018 379.608 C 241.576 379.884,239.784 380.315,238.962 380.824 C 237.127 381.957,232.507 382.618,219.400 383.621 C 216.320 383.857,212.270 384.338,210.400 384.690 C 205.760 385.564,194.124 385.572,190.000 384.704 C 188.350 384.357,184.210 383.873,180.800 383.628 C 177.390 383.383,173.700 383.084,172.600 382.963 C 165.241 382.156,163.659 381.936,162.500 381.560 C 161.785 381.328,161.200 380.985,161.200 380.797 C 161.200 380.396,158.065 379.733,154.400 379.358 C 151.722 379.085,147.859 377.882,146.800 376.993 C 146.470 376.715,144.850 376.267,143.200 375.996 C 140.201 375.504,138.680 374.921,136.800 373.543 C 136.250 373.139,134.291 372.547,132.446 372.228 C 129.892 371.785,128.837 371.402,128.024 370.623 C 127.437 370.060,126.687 369.600,126.358 369.600 C 126.029 369.600,125.589 369.450,125.380 369.267 C 125.171 369.085,124.214 368.711,123.253 368.437 C 122.292 368.164,121.122 367.534,120.653 367.039 C 119.881 366.223,117.640 365.319,114.712 364.642 C 114.113 364.504,113.213 363.972,112.712 363.459 C 112.210 362.947,110.810 362.120,109.600 361.622 C 108.390 361.123,106.915 360.194,106.323 359.558 C 105.730 358.921,104.952 358.400,104.594 358.400 C 103.760 358.400,100.400 356.442,100.400 355.956 C 100.400 355.753,99.725 355.295,98.900 354.938 C 95.849 353.618,95.488 353.391,95.107 352.555 C 94.893 352.085,94.020 351.470,93.166 351.189 C 92.313 350.907,90.836 349.931,89.884 349.019 C 88.932 348.107,87.602 347.132,86.929 346.853 C 86.255 346.574,85.502 345.902,85.254 345.360 C 84.991 344.782,84.058 344.054,83.003 343.601 C 82.011 343.176,81.200 342.638,81.200 342.406 C 81.200 342.174,80.391 341.414,79.403 340.717 C 78.415 340.020,77.515 339.163,77.404 338.812 C 77.292 338.461,76.671 337.860,76.022 337.477 C 75.374 337.094,74.050 336.020,73.080 335.090 C 72.110 334.161,70.345 332.493,69.158 331.384 C 67.111 329.471,64.794 326.982,61.062 322.688 C 60.148 321.636,58.635 319.982,57.700 319.011 C 56.765 318.041,56.000 316.966,56.000 316.623 C 56.000 316.280,55.848 316.000,55.661 316.000 C 55.012 316.000,53.709 314.589,52.891 313.000 C 52.437 312.120,51.717 311.189,51.290 310.932 C 50.863 310.675,50.032 309.643,49.444 308.639 C 48.855 307.635,47.905 306.315,47.331 305.707 C 46.758 305.098,45.954 303.854,45.545 302.943 C 45.135 302.031,44.537 301.185,44.214 301.061 C 43.892 300.937,42.996 299.581,42.224 298.048 C 41.452 296.514,40.618 295.135,40.372 294.983 C 40.126 294.831,39.419 293.580,38.801 292.203 C 38.184 290.827,37.300 289.435,36.838 289.111 C 36.367 288.781,35.631 287.396,35.165 285.961 C 34.707 284.553,33.826 282.860,33.206 282.200 C 32.479 281.425,31.901 280.183,31.575 278.697 C 31.246 277.194,30.628 275.873,29.795 274.897 C 28.856 273.795,28.338 272.582,27.832 270.300 C 27.454 268.595,26.994 267.200,26.808 267.200 C 26.169 267.200,24.823 263.789,24.221 260.642 C 23.816 258.530,23.373 257.317,22.880 256.971 C 22.016 256.366,21.026 253.031,20.445 248.767 C 20.205 247.004,19.604 244.911,19.011 243.767 C 18.213 242.228,17.814 240.407,17.180 235.400 C 16.735 231.880,16.018 228.100,15.587 227.000 C 12.966 220.299,12.969 176.070,15.591 169.400 C 16.048 168.239,16.721 164.572,17.195 160.661 C 17.988 154.130,18.293 152.902,19.452 151.568 C 19.754 151.221,20.260 149.151,20.578 146.968 C 21.301 141.996,21.704 140.668,22.926 139.215 C 23.583 138.434,23.995 137.306,24.189 135.753 C 24.493 133.316,26.094 129.200,26.738 129.200 C 27.083 129.200,27.530 127.659,28.195 124.179 C 28.324 123.507,29.031 122.261,29.766 121.410 C 30.627 120.414,31.275 119.095,31.586 117.706 C 31.871 116.433,32.531 115.023,33.197 114.264 C 33.818 113.558,34.633 111.922,35.008 110.631 C 35.452 109.103,36.159 107.815,37.029 106.944 C 37.765 106.208,38.567 104.864,38.811 103.958 C 39.055 103.052,39.710 101.889,40.267 101.373 C 40.824 100.857,41.788 99.361,42.408 98.048 C 43.029 96.736,43.890 95.473,44.322 95.242 C 44.754 95.010,45.226 94.352,45.370 93.778 C 45.685 92.523,47.565 89.600,48.057 89.600 C 48.250 89.600,48.950 88.718,49.614 87.639 C 50.277 86.561,51.243 85.401,51.761 85.062 C 52.278 84.723,52.821 83.972,52.966 83.392 C 53.112 82.813,53.899 81.651,54.715 80.811 C 55.532 79.971,56.988 78.319,57.950 77.142 C 60.233 74.348,64.112 70.008,66.500 67.574 C 67.545 66.509,68.400 65.462,68.400 65.246 C 68.400 65.030,68.715 64.752,69.100 64.628 C 69.485 64.503,70.700 63.581,71.800 62.579 C 72.900 61.577,74.942 59.732,76.339 58.479 C 77.735 57.225,79.678 55.435,80.657 54.500 C 81.636 53.565,82.695 52.800,83.009 52.800 C 83.323 52.800,84.170 52.152,84.890 51.359 C 85.611 50.567,86.738 49.640,87.395 49.300 C 88.052 48.960,89.065 48.213,89.646 47.641 C 91.053 46.254,91.898 45.600,92.283 45.599 C 92.457 45.599,93.230 45.041,94.000 44.361 C 94.770 43.680,96.210 42.759,97.200 42.315 C 98.190 41.870,99.450 41.107,100.000 40.620 C 101.251 39.510,103.878 38.000,104.557 38.000 C 104.838 38.000,105.545 37.464,106.129 36.809 C 106.713 36.154,107.688 35.495,108.295 35.346 C 109.587 35.027,111.000 34.209,112.400 32.968 C 112.950 32.480,114.436 31.854,115.703 31.576 C 117.203 31.247,118.528 30.627,119.503 29.796 C 120.378 29.051,121.858 28.316,123.065 28.029 C 124.201 27.758,125.731 27.086,126.465 26.534 C 128.217 25.218,129.253 24.812,132.501 24.172 C 133.986 23.879,135.786 23.217,136.501 22.700 C 138.015 21.604,139.627 21.037,143.129 20.368 C 144.520 20.102,145.902 19.641,146.199 19.344 C 147.072 18.471,148.409 18.104,153.240 17.411 C 156.147 16.993,158.551 16.396,159.870 15.763 C 162.240 14.627,164.427 14.235,172.000 13.593 C 174.970 13.341,179.650 12.766,182.400 12.315 C 192.055 10.732,206.825 10.499,214.400 11.811 " stroke="none" fill="#686660" fill-rule="evenodd"></path><path id="path2" d="M71.100 137.491 C 69.648 137.643,69.189 138.098,69.989 138.593 C 70.770 139.076,71.973 142.493,72.444 145.569 C 72.826 148.068,73.157 148.971,74.034 149.909 C 75.193 151.149,75.758 152.807,76.203 156.279 C 76.394 157.769,76.853 158.850,77.825 160.097 C 79.025 161.638,79.893 164.657,79.992 167.638 C 79.996 167.769,80.450 168.399,81.000 169.038 C 82.125 170.345,83.008 172.830,83.401 175.800 C 83.572 177.091,84.004 178.157,84.618 178.806 C 85.788 180.043,86.640 182.379,87.015 185.381 C 87.226 187.069,87.592 187.979,88.425 188.892 C 89.087 189.617,89.658 190.799,89.811 191.762 C 90.316 194.945,91.300 197.812,92.226 198.803 C 92.903 199.527,93.326 200.740,93.746 203.160 C 94.117 205.298,94.635 206.891,95.175 207.556 C 96.442 209.118,97.081 210.753,97.380 213.200 C 97.672 215.597,98.320 217.600,98.803 217.600 C 99.568 217.600,100.511 219.968,101.085 223.330 C 101.529 225.928,101.926 227.150,102.444 227.514 C 103.515 228.267,104.293 230.233,104.757 233.360 C 105.047 235.318,105.443 236.423,106.119 237.160 C 107.369 238.523,107.911 240.009,108.369 243.321 C 108.665 245.458,108.954 246.206,109.715 246.804 C 110.640 247.532,111.435 249.964,112.219 254.460 C 112.359 255.263,112.907 256.297,113.437 256.757 C 113.967 257.218,114.401 257.821,114.402 258.097 C 114.404 258.374,114.646 259.062,114.941 259.627 C 115.235 260.191,115.598 261.136,115.746 261.727 L 116.015 262.800 128.808 262.800 C 141.386 262.800,141.600 262.786,141.600 261.990 C 141.600 260.603,143.156 256.632,143.960 255.966 C 144.779 255.288,145.594 252.882,145.598 251.133 C 145.601 249.754,146.910 246.707,147.912 245.748 C 148.447 245.236,148.836 244.018,149.146 241.887 C 149.584 238.880,150.149 237.509,151.663 235.786 C 152.090 235.299,152.548 233.774,152.800 231.999 C 153.128 229.689,153.529 228.579,154.602 227.014 C 155.687 225.432,156.083 224.325,156.447 221.858 C 156.811 219.388,157.134 218.486,157.955 217.643 C 158.920 216.653,159.997 213.735,160.002 212.094 C 160.007 210.590,160.916 208.248,161.861 207.302 C 162.517 206.647,162.974 205.588,163.199 204.205 C 163.772 200.684,164.376 198.890,165.394 197.680 C 166.023 196.933,166.594 195.425,167.007 193.425 C 167.805 189.564,168.101 188.787,169.124 187.865 C 169.669 187.375,170.106 186.179,170.440 184.265 C 171.045 180.806,172.164 178.000,172.941 178.000 C 173.510 178.000,173.695 177.344,174.232 173.400 C 174.537 171.167,175.676 168.621,176.603 168.102 C 176.995 167.883,177.414 166.518,177.775 164.286 C 178.150 161.972,178.649 160.377,179.269 159.511 C 180.762 157.427,181.099 156.602,181.382 154.336 C 181.727 151.570,182.358 149.969,183.442 149.104 C 183.950 148.700,184.404 147.779,184.527 146.904 C 185.138 142.572,186.075 138.201,186.443 137.974 C 187.592 137.264,170.650 136.852,164.921 137.450 L 162.524 137.701 161.585 141.546 C 160.955 144.126,160.344 145.692,159.729 146.308 C 159.082 146.955,158.692 148.017,158.405 149.913 C 157.766 154.141,157.162 155.972,156.141 156.775 C 155.367 157.384,155.112 158.130,154.748 160.860 C 154.321 164.063,152.913 167.762,152.007 168.064 C 151.778 168.141,151.325 169.970,151.001 172.128 C 150.518 175.345,150.185 176.369,149.154 177.804 C 148.169 179.176,147.774 180.318,147.333 183.070 C 147.024 185.004,146.508 186.949,146.188 187.393 C 145.868 187.837,145.308 188.611,144.945 189.113 C 144.582 189.615,144.037 191.595,143.734 193.513 C 143.385 195.722,142.892 197.366,142.388 198.000 C 141.206 199.487,140.781 200.664,140.154 204.188 C 139.793 206.219,139.223 207.901,138.584 208.823 C 137.456 210.450,136.803 212.412,136.794 214.197 C 136.786 215.851,135.987 217.999,134.677 219.889 C 133.944 220.946,133.503 222.198,133.356 223.638 C 132.742 229.631,130.885 230.948,127.630 227.700 C 125.319 225.394,124.624 223.912,124.022 220.005 C 123.744 218.196,123.270 216.691,122.827 216.205 C 121.576 214.832,120.924 213.116,120.473 210.009 C 120.234 208.363,119.789 206.833,119.485 206.609 C 118.288 205.726,117.499 203.500,116.813 199.070 C 116.571 197.504,116.171 196.495,115.595 195.995 C 114.620 195.150,113.707 192.502,113.192 189.030 C 112.940 187.329,112.566 186.405,111.867 185.757 C 110.916 184.876,110.646 184.020,109.576 178.500 C 109.309 177.125,108.950 176.000,108.778 176.000 C 107.976 176.000,106.827 173.117,106.387 170.000 C 105.992 167.194,105.711 166.390,104.780 165.400 C 103.665 164.213,103.069 162.386,102.596 158.702 C 102.461 157.658,101.957 156.307,101.476 155.700 C 99.980 153.816,99.611 152.899,99.209 150.062 C 98.751 146.831,98.505 146.105,97.547 145.147 C 97.154 144.754,96.451 143.121,95.983 141.517 C 95.516 139.912,95.074 138.401,95.001 138.158 C 94.746 137.300,77.519 136.820,71.100 137.491 M205.002 138.900 C 204.554 141.977,204.959 226.001,205.423 226.315 C 206.375 226.957,207.648 232.149,208.190 237.600 C 208.520 240.915,208.789 242.000,209.279 242.000 C 209.738 242.000,211.167 243.628,211.187 244.174 C 211.222 245.171,212.996 248.085,214.006 248.804 C 214.631 249.249,215.338 250.205,215.576 250.928 C 215.891 251.882,216.386 252.379,217.379 252.738 C 218.241 253.050,218.939 253.667,219.267 254.406 C 219.693 255.370,220.254 255.721,222.420 256.378 C 224.337 256.961,225.197 257.447,225.583 258.168 C 226.203 259.327,226.509 259.465,230.148 260.231 C 231.815 260.582,233.349 261.191,234.050 261.780 C 235.348 262.873,235.988 262.980,244.800 263.582 C 258.738 264.534,276.626 263.611,278.252 261.857 C 278.861 261.201,279.959 260.703,281.487 260.391 C 284.364 259.803,285.474 259.300,287.000 257.895 C 287.661 257.286,288.889 256.676,289.733 256.538 C 290.886 256.349,291.482 255.956,292.133 254.954 C 292.610 254.221,293.468 253.426,294.040 253.187 C 294.611 252.948,295.643 251.954,296.331 250.977 C 297.020 249.999,297.850 249.200,298.176 249.200 C 298.526 249.200,298.940 248.564,299.187 247.647 C 299.417 246.793,300.227 245.416,300.987 244.586 C 301.979 243.503,302.441 242.558,302.623 241.239 C 303.037 238.235,303.839 235.188,305.055 232.000 L 306.200 229.000 306.316 184.800 C 306.380 160.490,306.282 139.880,306.098 139.000 L 305.765 137.400 295.009 137.293 C 287.790 137.222,284.113 137.327,283.827 137.613 C 283.532 137.907,283.333 151.762,283.183 182.320 C 282.949 230.105,282.978 229.481,280.861 231.736 C 280.394 232.232,279.898 233.260,279.757 234.019 C 279.437 235.753,278.632 237.071,277.711 237.369 C 277.320 237.495,276.689 238.146,276.309 238.816 C 275.929 239.485,275.003 240.290,274.251 240.604 C 273.500 240.918,272.551 241.634,272.142 242.194 C 271.558 242.995,270.847 243.301,268.800 243.632 C 267.370 243.863,264.526 244.421,262.480 244.872 C 257.635 245.940,253.700 245.929,250.637 244.840 C 249.338 244.378,247.682 244.000,246.957 244.000 C 244.245 244.000,241.612 243.147,239.898 241.712 C 238.964 240.931,237.724 240.125,237.143 239.922 C 236.561 239.718,235.591 238.770,234.988 237.815 C 234.384 236.860,233.499 235.900,233.021 235.682 C 232.169 235.294,231.200 232.968,231.200 231.309 C 231.200 230.871,230.760 229.863,230.222 229.070 C 229.683 228.277,229.008 227.217,228.722 226.714 C 228.305 225.984,228.159 217.017,227.998 182.200 C 227.887 158.220,227.643 138.285,227.456 137.900 C 227.143 137.259,226.197 137.200,216.182 137.200 L 205.249 137.200 205.002 138.900 " stroke="none" fill="#fbfbca" fill-rule="evenodd"></path><path id="path3" d="M71.096 135.470 C 67.434 135.740,66.271 140.636,69.131 143.744 C 69.564 144.215,70.402 146.400,70.994 148.600 C 71.585 150.800,72.406 152.964,72.819 153.410 C 73.232 153.855,73.843 155.396,74.176 156.835 C 75.002 160.394,75.798 162.557,76.771 163.885 C 77.221 164.498,77.833 166.303,78.132 167.896 C 78.468 169.690,79.141 171.542,79.902 172.765 C 80.632 173.940,81.382 175.961,81.754 177.760 C 82.097 179.422,82.833 181.502,83.389 182.383 C 83.945 183.264,84.400 184.222,84.400 184.512 C 84.400 184.802,84.556 185.211,84.746 185.420 C 84.936 185.629,85.312 186.957,85.580 188.372 C 85.849 189.786,86.481 191.496,86.986 192.172 C 88.025 193.562,88.601 195.188,89.216 198.463 C 89.450 199.707,89.993 201.130,90.423 201.626 C 91.110 202.418,91.721 204.179,93.203 209.635 C 93.418 210.424,93.927 211.454,94.334 211.924 C 94.742 212.394,95.390 213.999,95.775 215.489 C 96.911 219.891,97.195 220.672,97.997 221.596 C 98.416 222.080,98.961 223.493,99.208 224.737 C 99.782 227.634,100.732 230.206,101.667 231.395 C 102.072 231.909,102.686 233.741,103.031 235.465 C 103.411 237.364,104.139 239.389,104.875 240.600 C 105.577 241.754,106.347 243.849,106.694 245.552 C 107.052 247.306,107.837 249.418,108.626 250.752 C 109.458 252.158,110.128 254.004,110.416 255.680 C 110.902 258.514,113.986 264.002,115.396 264.543 C 115.764 264.684,121.786 264.800,128.779 264.800 C 142.767 264.800,143.127 264.738,143.759 262.220 C 143.896 261.674,144.546 260.430,145.204 259.456 C 145.974 258.316,146.631 256.562,147.048 254.542 C 147.404 252.814,148.008 250.950,148.391 250.400 C 149.535 248.758,150.318 246.743,150.801 244.200 C 151.052 242.880,151.615 241.298,152.052 240.685 C 153.016 239.331,153.916 236.881,154.431 234.209 C 154.641 233.114,155.229 231.584,155.736 230.809 C 156.759 229.246,157.777 226.303,158.199 223.686 C 158.351 222.743,158.891 221.477,159.400 220.872 C 159.970 220.195,160.728 218.182,161.372 215.633 C 162.033 213.022,162.771 211.075,163.372 210.360 C 163.896 209.737,164.449 208.457,164.601 207.514 C 165.036 204.818,166.050 201.875,166.851 200.982 C 167.255 200.532,167.875 198.822,168.229 197.182 C 168.871 194.209,169.371 192.909,170.775 190.560 C 171.183 189.878,171.797 187.965,172.140 186.308 C 172.525 184.445,173.210 182.629,173.936 181.548 C 174.684 180.434,175.346 178.648,175.761 176.624 C 176.120 174.877,176.674 173.160,176.992 172.809 C 177.861 171.849,178.839 169.305,179.445 166.431 C 179.743 165.018,180.428 163.218,180.967 162.431 C 181.506 161.644,182.332 159.390,182.803 157.422 C 183.319 155.269,184.025 153.411,184.577 152.754 C 185.154 152.069,185.834 150.218,186.406 147.773 C 186.936 145.511,187.632 143.568,188.068 143.132 C 188.991 142.209,189.806 138.874,189.452 137.464 C 189.010 135.703,188.007 135.494,179.006 135.286 C 164.334 134.948,160.400 135.530,160.400 138.042 C 160.400 138.422,159.743 139.964,158.939 141.467 C 158.012 143.202,157.213 145.509,156.750 147.787 C 156.350 149.760,155.700 151.830,155.305 152.387 C 154.104 154.085,153.677 155.261,153.013 158.700 C 152.647 160.594,151.981 162.582,151.450 163.365 C 150.502 164.761,149.957 166.475,149.193 170.463 C 148.954 171.707,148.413 173.123,147.991 173.610 C 147.107 174.629,147.119 174.596,145.986 179.506 C 145.515 181.545,144.905 183.438,144.628 183.714 C 143.752 184.591,143.323 185.715,142.609 189.000 C 141.870 192.397,141.006 194.825,140.402 195.199 C 139.963 195.470,138.800 199.772,138.800 201.126 C 138.800 201.653,138.324 203.010,137.743 204.142 C 137.161 205.274,136.458 206.650,136.180 207.200 C 135.902 207.750,135.547 209.172,135.392 210.361 C 135.077 212.759,134.311 214.833,133.123 216.506 C 132.665 217.150,132.103 219.059,131.775 221.085 C 131.010 225.811,130.668 226.039,128.299 223.399 C 126.584 221.487,126.338 220.962,125.779 218.017 C 125.235 215.149,124.298 212.767,123.162 211.364 C 122.968 211.125,122.515 209.507,122.155 207.769 C 121.796 206.030,120.908 203.436,120.181 202.004 C 119.455 200.572,118.655 198.230,118.404 196.800 C 118.153 195.370,117.526 193.554,117.010 192.763 C 116.001 191.217,115.470 189.658,114.581 185.633 C 114.269 184.221,113.662 182.691,113.231 182.233 C 112.801 181.775,112.270 180.680,112.051 179.800 C 111.832 178.920,111.363 177.030,111.009 175.600 C 110.655 174.170,109.943 172.370,109.426 171.600 C 108.910 170.830,108.363 169.480,108.212 168.600 C 107.689 165.560,106.670 162.412,105.963 161.653 C 105.573 161.234,104.786 159.025,104.215 156.745 C 103.643 154.465,102.850 152.150,102.451 151.600 C 101.631 150.468,100.982 148.551,100.623 146.200 C 100.489 145.320,99.633 143.070,98.721 141.200 C 97.809 139.330,96.889 137.405,96.675 136.921 C 96.462 136.438,95.998 135.920,95.644 135.770 C 94.911 135.459,74.605 135.212,71.096 135.470 M204.546 135.668 C 202.793 136.516,202.799 136.382,202.812 174.119 C 202.829 223.804,203.181 232.509,205.342 236.688 C 205.677 237.336,206.236 239.092,206.583 240.590 C 206.982 242.311,207.708 243.991,208.556 245.156 C 209.293 246.170,210.211 247.617,210.595 248.371 C 211.363 249.877,212.755 251.429,217.060 255.575 C 217.845 256.331,219.323 257.391,220.344 257.932 C 221.365 258.472,222.703 259.333,223.318 259.846 C 223.933 260.359,225.103 260.970,225.918 261.203 C 227.311 261.602,228.153 262.006,231.113 263.692 C 231.781 264.072,233.829 264.566,235.664 264.790 C 237.499 265.014,240.980 265.472,243.400 265.809 C 254.382 267.337,259.098 267.332,269.800 265.783 C 276.333 264.837,279.344 264.428,279.869 264.413 C 280.127 264.406,280.847 263.980,281.469 263.466 C 282.091 262.952,284.004 262.024,285.720 261.405 C 287.436 260.785,289.070 259.949,289.352 259.547 C 289.634 259.145,290.538 258.534,291.361 258.190 C 293.761 257.188,299.434 251.746,300.816 249.121 C 301.245 248.307,302.032 247.204,302.566 246.671 C 303.120 246.116,303.910 244.436,304.408 242.750 C 304.888 241.128,305.515 239.530,305.803 239.200 C 308.056 236.615,308.939 214.864,308.729 167.109 L 308.600 137.618 307.492 136.509 L 306.383 135.400 295.520 135.281 C 287.813 135.197,284.324 135.300,283.512 135.636 C 281.066 136.650,281.201 134.433,281.191 173.789 C 281.181 216.948,280.985 220.963,278.392 231.000 C 277.423 234.749,277.249 235.130,276.383 235.405 C 275.974 235.535,275.258 236.259,274.791 237.015 C 274.289 237.827,273.260 238.691,272.271 239.129 C 271.352 239.537,270.353 240.169,270.052 240.534 C 267.708 243.373,246.460 243.616,243.418 240.839 C 242.968 240.428,241.503 239.527,240.162 238.838 C 238.312 237.886,237.413 237.103,236.433 235.592 C 235.724 234.496,234.966 233.600,234.749 233.600 C 233.994 233.600,232.497 229.374,232.057 226.000 C 230.553 214.480,230.400 209.660,230.400 173.954 C 230.400 134.927,230.513 136.636,227.863 135.677 C 226.174 135.066,205.804 135.058,204.546 135.668 M93.335 137.462 C 94.179 137.602,94.929 137.915,95.001 138.158 C 95.074 138.401,95.516 139.912,95.983 141.517 C 96.451 143.121,97.154 144.754,97.547 145.147 C 98.505 146.105,98.751 146.831,99.209 150.062 C 99.611 152.899,99.980 153.816,101.476 155.700 C 101.957 156.307,102.461 157.658,102.596 158.702 C 103.069 162.386,103.665 164.213,104.780 165.400 C 105.711 166.390,105.992 167.194,106.387 170.000 C 106.827 173.117,107.976 176.000,108.778 176.000 C 108.950 176.000,109.309 177.125,109.576 178.500 C 110.646 184.020,110.916 184.876,111.867 185.757 C 112.566 186.405,112.940 187.329,113.192 189.030 C 113.707 192.502,114.620 195.150,115.595 195.995 C 116.171 196.495,116.571 197.504,116.813 199.070 C 117.499 203.500,118.288 205.726,119.485 206.609 C 119.789 206.833,120.234 208.363,120.473 210.009 C 120.924 213.116,121.576 214.832,122.827 216.205 C 123.270 216.691,123.744 218.196,124.022 220.005 C 124.624 223.912,125.319 225.394,127.630 227.700 C 130.885 230.948,132.742 229.631,133.356 223.638 C 133.503 222.198,133.944 220.946,134.677 219.889 C 135.987 217.999,136.786 215.851,136.794 214.197 C 136.803 212.412,137.456 210.450,138.584 208.823 C 139.223 207.901,139.793 206.219,140.154 204.188 C 140.781 200.664,141.206 199.487,142.388 198.000 C 142.892 197.366,143.385 195.722,143.734 193.513 C 144.037 191.595,144.582 189.615,144.945 189.113 C 145.308 188.611,145.868 187.837,146.188 187.393 C 146.508 186.949,147.024 185.004,147.333 183.070 C 147.774 180.318,148.169 179.176,149.154 177.804 C 150.185 176.369,150.518 175.345,151.001 172.128 C 151.325 169.970,151.778 168.141,152.007 168.064 C 152.913 167.762,154.321 164.063,154.748 160.860 C 155.112 158.130,155.367 157.384,156.141 156.775 C 157.162 155.972,157.766 154.141,158.405 149.913 C 158.692 148.017,159.082 146.955,159.729 146.308 C 160.344 145.692,160.955 144.126,161.585 141.546 L 162.524 137.701 164.921 137.450 C 170.650 136.852,187.592 137.264,186.443 137.974 C 186.075 138.201,185.138 142.572,184.527 146.904 C 184.404 147.779,183.950 148.700,183.442 149.104 C 182.358 149.969,181.727 151.570,181.382 154.336 C 181.099 156.602,180.762 157.427,179.269 159.511 C 178.649 160.377,178.150 161.972,177.775 164.286 C 177.414 166.518,176.995 167.883,176.603 168.102 C 175.676 168.621,174.537 171.167,174.232 173.400 C 173.695 177.344,173.510 178.000,172.941 178.000 C 172.164 178.000,171.045 180.806,170.440 184.265 C 170.106 186.179,169.669 187.375,169.124 187.865 C 168.101 188.787,167.805 189.564,167.007 193.425 C 166.594 195.425,166.023 196.933,165.394 197.680 C 164.376 198.890,163.772 200.684,163.199 204.205 C 162.974 205.588,162.517 206.647,161.861 207.302 C 160.916 208.248,160.007 210.590,160.002 212.094 C 159.997 213.735,158.920 216.653,157.955 217.643 C 157.134 218.486,156.811 219.388,156.447 221.858 C 156.083 224.325,155.687 225.432,154.602 227.014 C 153.529 228.579,153.128 229.689,152.800 231.999 C 152.548 233.774,152.090 235.299,151.663 235.786 C 150.149 237.509,149.584 238.880,149.146 241.887 C 148.836 244.018,148.447 245.236,147.912 245.748 C 146.910 246.707,145.601 249.754,145.598 251.133 C 145.594 252.882,144.779 255.288,143.960 255.966 C 143.156 256.632,141.600 260.603,141.600 261.990 C 141.600 262.786,141.386 262.800,128.808 262.800 L 116.015 262.800 115.746 261.727 C 115.598 261.136,115.235 260.191,114.941 259.627 C 114.646 259.062,114.404 258.374,114.402 258.097 C 114.401 257.821,113.967 257.218,113.437 256.757 C 112.907 256.297,112.359 255.263,112.219 254.460 C 111.435 249.964,110.640 247.532,109.715 246.804 C 108.954 246.206,108.665 245.458,108.369 243.321 C 107.911 240.009,107.369 238.523,106.119 237.160 C 105.443 236.423,105.047 235.318,104.757 233.360 C 104.293 230.233,103.515 228.267,102.444 227.514 C 101.926 227.150,101.529 225.928,101.085 223.330 C 100.511 219.968,99.568 217.600,98.803 217.600 C 98.320 217.600,97.672 215.597,97.380 213.200 C 97.081 210.753,96.442 209.118,95.175 207.556 C 94.635 206.891,94.117 205.298,93.746 203.160 C 93.326 200.740,92.903 199.527,92.226 198.803 C 91.300 197.812,90.316 194.945,89.811 191.762 C 89.658 190.799,89.087 189.617,88.425 188.892 C 87.592 187.979,87.226 187.069,87.015 185.381 C 86.640 182.379,85.788 180.043,84.618 178.806 C 84.004 178.157,83.572 177.091,83.401 175.800 C 83.008 172.830,82.125 170.345,81.000 169.038 C 80.450 168.399,79.996 167.769,79.992 167.638 C 79.893 164.657,79.025 161.638,77.825 160.097 C 76.853 158.850,76.394 157.769,76.203 156.279 C 75.758 152.807,75.193 151.149,74.034 149.909 C 73.157 148.971,72.826 148.068,72.444 145.569 C 71.973 142.493,70.770 139.076,69.989 138.593 C 69.189 138.098,69.648 137.643,71.100 137.491 C 73.693 137.220,91.726 137.197,93.335 137.462 M227.456 137.900 C 227.643 138.285,227.887 158.220,227.998 182.200 C 228.159 217.017,228.305 225.984,228.722 226.714 C 229.008 227.217,229.683 228.277,230.222 229.070 C 230.760 229.863,231.200 230.871,231.200 231.309 C 231.200 232.968,232.169 235.294,233.021 235.682 C 233.499 235.900,234.384 236.860,234.988 237.815 C 235.591 238.770,236.561 239.718,237.143 239.922 C 237.724 240.125,238.964 240.931,239.898 241.712 C 241.612 243.147,244.245 244.000,246.957 244.000 C 247.682 244.000,249.338 244.378,250.637 244.840 C 253.700 245.929,257.635 245.940,262.480 244.872 C 264.526 244.421,267.370 243.863,268.800 243.632 C 270.847 243.301,271.558 242.995,272.142 242.194 C 272.551 241.634,273.500 240.918,274.251 240.604 C 275.003 240.290,275.929 239.485,276.309 238.816 C 276.689 238.146,277.320 237.495,277.711 237.369 C 278.632 237.071,279.437 235.753,279.757 234.019 C 279.898 233.260,280.394 232.232,280.861 231.736 C 282.978 229.481,282.949 230.105,283.183 182.320 C 283.333 151.762,283.532 137.907,283.827 137.613 C 284.113 137.327,287.790 137.222,295.009 137.293 L 305.765 137.400 306.098 139.000 C 306.282 139.880,306.380 160.490,306.316 184.800 L 306.200 229.000 305.055 232.000 C 303.839 235.188,303.037 238.235,302.623 241.239 C 302.441 242.558,301.979 243.503,300.987 244.586 C 300.227 245.416,299.417 246.793,299.187 247.647 C 298.940 248.564,298.526 249.200,298.176 249.200 C 297.850 249.200,297.020 249.999,296.331 250.977 C 295.643 251.954,294.611 252.948,294.040 253.187 C 293.468 253.426,292.610 254.221,292.133 254.954 C 291.482 255.956,290.886 256.349,289.733 256.538 C 288.889 256.676,287.661 257.286,287.000 257.895 C 285.474 259.300,284.364 259.803,281.487 260.391 C 279.959 260.703,278.861 261.201,278.252 261.857 C 276.626 263.611,258.738 264.534,244.800 263.582 C 235.988 262.980,235.348 262.873,234.050 261.780 C 233.349 261.191,231.815 260.582,230.148 260.231 C 226.509 259.465,226.203 259.327,225.583 258.168 C 225.197 257.447,224.337 256.961,222.420 256.378 C 220.254 255.721,219.693 255.370,219.267 254.406 C 218.939 253.667,218.241 253.050,217.379 252.738 C 216.386 252.379,215.891 251.882,215.576 250.928 C 215.338 250.205,214.631 249.249,214.006 248.804 C 212.996 248.085,211.222 245.171,211.187 244.174 C 211.167 243.628,209.738 242.000,209.279 242.000 C 208.789 242.000,208.520 240.915,208.190 237.600 C 207.648 232.149,206.375 226.957,205.423 226.315 C 204.959 226.001,204.554 141.977,205.002 138.900 L 205.249 137.200 216.182 137.200 C 226.197 137.200,227.143 137.259,227.456 137.900 " stroke="none" fill="#ecd97e" fill-rule="evenodd"></path><path id="path4" d="M191.200 11.179 C 189.110 11.353,185.150 11.864,182.400 12.315 C 179.650 12.766,174.970 13.341,172.000 13.593 C 164.427 14.235,162.240 14.627,159.870 15.763 C 158.551 16.396,156.147 16.993,153.240 17.411 C 148.409 18.104,147.072 18.471,146.199 19.344 C 145.902 19.641,144.520 20.102,143.129 20.368 C 139.627 21.037,138.015 21.604,136.501 22.700 C 135.786 23.217,133.986 23.879,132.501 24.172 C 129.253 24.812,128.217 25.218,126.465 26.534 C 125.731 27.086,124.201 27.758,123.065 28.029 C 121.858 28.316,120.378 29.051,119.503 29.796 C 118.528 30.627,117.203 31.247,115.703 31.576 C 114.436 31.854,112.950 32.480,112.400 32.968 C 111.000 34.209,109.587 35.027,108.295 35.346 C 107.688 35.495,106.713 36.154,106.129 36.809 C 105.545 37.464,104.838 38.000,104.557 38.000 C 103.878 38.000,101.251 39.510,100.000 40.620 C 99.450 41.107,98.190 41.870,97.200 42.315 C 96.210 42.759,94.770 43.680,94.000 44.361 C 93.230 45.041,92.457 45.599,92.283 45.599 C 91.898 45.600,91.053 46.254,89.646 47.641 C 89.065 48.213,88.052 48.960,87.395 49.300 C 86.738 49.640,85.611 50.567,84.890 51.359 C 84.170 52.152,83.323 52.800,83.009 52.800 C 82.695 52.800,81.636 53.565,80.657 54.500 C 79.678 55.435,77.735 57.225,76.339 58.479 C 74.942 59.732,72.900 61.577,71.800 62.579 C 70.700 63.581,69.485 64.503,69.100 64.628 C 68.715 64.752,68.400 65.030,68.400 65.246 C 68.400 65.462,67.545 66.509,66.500 67.574 C 64.112 70.008,60.233 74.348,57.950 77.142 C 56.988 78.319,55.532 79.971,54.715 80.811 C 53.899 81.651,53.112 82.813,52.966 83.392 C 52.821 83.972,52.278 84.723,51.761 85.062 C 51.243 85.401,50.277 86.561,49.614 87.639 C 48.950 88.718,48.250 89.600,48.057 89.600 C 47.565 89.600,45.685 92.523,45.370 93.778 C 45.226 94.352,44.754 95.010,44.322 95.242 C 43.890 95.473,43.029 96.736,42.408 98.048 C 41.788 99.361,40.824 100.857,40.267 101.373 C 39.710 101.889,39.055 103.052,38.811 103.958 C 38.567 104.864,37.765 106.208,37.029 106.944 C 36.159 107.815,35.452 109.103,35.008 110.631 C 34.633 111.922,33.818 113.558,33.197 114.264 C 32.531 115.023,31.871 116.433,31.586 117.706 C 31.275 119.095,30.627 120.414,29.766 121.410 C 29.031 122.261,28.324 123.507,28.195 124.179 C 27.530 127.659,27.083 129.200,26.738 129.200 C 26.094 129.200,24.493 133.316,24.189 135.753 C 23.995 137.306,23.583 138.434,22.926 139.215 C 21.704 140.668,21.301 141.996,20.578 146.968 C 20.260 149.151,19.754 151.221,19.452 151.568 C 18.293 152.902,17.988 154.130,17.195 160.661 C 16.721 164.572,16.048 168.239,15.591 169.400 C 12.969 176.070,12.966 220.299,15.587 227.000 C 16.018 228.100,16.735 231.880,17.180 235.400 C 17.814 240.407,18.213 242.228,19.011 243.767 C 19.604 244.911,20.205 247.004,20.445 248.767 C 21.026 253.031,22.016 256.366,22.880 256.971 C 23.373 257.317,23.816 258.530,24.221 260.642 C 24.823 263.789,26.169 267.200,26.808 267.200 C 26.994 267.200,27.454 268.595,27.832 270.300 C 28.338 272.582,28.856 273.795,29.795 274.897 C 30.628 275.873,31.246 277.194,31.575 278.697 C 31.901 280.183,32.479 281.425,33.206 282.200 C 33.826 282.860,34.707 284.553,35.165 285.961 C 35.631 287.396,36.367 288.781,36.838 289.111 C 37.300 289.435,38.184 290.827,38.801 292.203 C 39.419 293.580,40.126 294.831,40.372 294.983 C 40.618 295.135,41.452 296.514,42.224 298.048 C 42.996 299.581,43.892 300.937,44.214 301.061 C 44.537 301.185,45.135 302.031,45.545 302.943 C 45.954 303.854,46.758 305.098,47.331 305.707 C 47.905 306.315,48.855 307.635,49.444 308.639 C 50.032 309.643,50.863 310.675,51.290 310.932 C 51.717 311.189,52.437 312.120,52.891 313.000 C 53.709 314.589,55.012 316.000,55.661 316.000 C 55.848 316.000,56.000 316.280,56.000 316.623 C 56.000 316.966,56.765 318.041,57.700 319.011 C 58.635 319.982,60.148 321.636,61.062 322.688 C 64.794 326.982,67.111 329.471,69.158 331.384 C 70.345 332.493,72.110 334.161,73.080 335.090 C 74.050 336.020,75.374 337.094,76.022 337.477 C 76.671 337.860,77.292 338.461,77.404 338.812 C 77.515 339.163,78.415 340.020,79.403 340.717 C 80.391 341.414,81.200 342.174,81.200 342.406 C 81.200 342.638,82.011 343.176,83.003 343.601 C 84.058 344.054,84.991 344.782,85.254 345.360 C 85.502 345.902,86.255 346.574,86.929 346.853 C 87.602 347.132,88.932 348.107,89.884 349.019 C 90.836 349.931,92.313 350.907,93.166 351.189 C 94.020 351.470,94.893 352.085,95.107 352.555 C 95.488 353.391,95.849 353.618,98.900 354.938 C 99.725 355.295,100.400 355.753,100.400 355.956 C 100.400 356.442,103.760 358.400,104.594 358.400 C 104.952 358.400,105.730 358.921,106.323 359.558 C 106.915 360.194,108.390 361.123,109.600 361.622 C 110.810 362.120,112.210 362.947,112.712 363.459 C 113.213 363.972,114.113 364.504,114.712 364.642 C 117.640 365.319,119.881 366.223,120.653 367.039 C 121.122 367.534,122.292 368.164,123.253 368.437 C 124.214 368.711,125.171 369.085,125.380 369.267 C 125.589 369.450,126.029 369.600,126.358 369.600 C 126.687 369.600,127.437 370.060,128.024 370.623 C 128.837 371.402,129.892 371.785,132.446 372.228 C 134.291 372.547,136.250 373.139,136.800 373.543 C 138.680 374.921,140.201 375.504,143.200 375.996 C 144.850 376.267,146.470 376.715,146.800 376.993 C 147.859 377.882,151.722 379.085,154.400 379.358 C 158.065 379.733,161.200 380.396,161.200 380.797 C 161.200 380.985,161.785 381.328,162.500 381.560 C 163.659 381.936,165.241 382.156,172.600 382.963 C 173.700 383.084,177.390 383.383,180.800 383.628 C 184.210 383.873,188.350 384.357,190.000 384.704 C 194.124 385.572,205.760 385.564,210.400 384.690 C 212.270 384.338,216.320 383.857,219.400 383.621 C 232.507 382.618,237.127 381.957,238.962 380.824 C 239.784 380.315,241.576 379.884,244.018 379.608 C 248.380 379.113,251.752 378.198,253.238 377.104 C 253.865 376.644,255.452 376.193,257.238 375.969 C 260.295 375.585,262.412 374.819,263.800 373.595 C 264.240 373.207,266.130 372.587,268.000 372.217 C 270.349 371.751,271.709 371.255,272.400 370.612 C 272.950 370.100,274.390 369.365,275.600 368.978 C 279.411 367.760,280.000 367.513,280.000 367.129 C 280.000 366.691,283.639 365.026,285.471 364.626 C 286.169 364.474,287.002 363.956,287.321 363.475 C 287.639 362.994,289.021 362.161,290.391 361.624 C 291.761 361.087,293.149 360.240,293.475 359.742 C 293.840 359.184,294.914 358.591,296.273 358.196 C 297.743 357.769,299.025 357.029,300.119 355.978 C 301.022 355.110,302.012 354.400,302.319 354.400 C 303.162 354.400,305.200 352.824,305.200 352.173 C 305.200 351.858,305.529 351.600,305.931 351.600 C 306.816 351.600,310.208 349.409,310.939 348.366 C 311.228 347.953,312.098 347.351,312.874 347.027 C 313.649 346.703,314.593 345.965,314.972 345.387 C 315.350 344.809,316.176 344.119,316.806 343.854 C 317.436 343.589,318.548 342.788,319.276 342.074 C 320.515 340.859,328.491 333.776,330.152 332.416 C 330.565 332.077,331.465 331.189,332.152 330.442 C 332.838 329.695,334.255 328.198,335.300 327.115 C 336.345 326.032,337.202 325.024,337.204 324.873 C 337.206 324.723,338.736 323.012,340.604 321.071 C 342.472 319.129,344.000 317.314,344.000 317.038 C 344.000 316.761,344.720 315.955,345.600 315.248 C 346.480 314.541,347.200 313.620,347.200 313.202 C 347.200 312.783,347.838 311.954,348.618 311.359 C 349.398 310.765,350.380 309.540,350.800 308.639 C 351.220 307.738,352.194 306.346,352.963 305.547 C 353.732 304.748,354.486 303.597,354.638 302.989 C 354.791 302.382,355.591 301.209,356.417 300.383 C 357.243 299.557,358.044 298.310,358.198 297.611 C 358.351 296.912,358.974 295.769,359.582 295.070 C 360.190 294.372,361.070 292.928,361.538 291.862 C 362.006 290.796,362.827 289.579,363.362 289.158 C 363.975 288.676,364.650 287.377,365.183 285.655 C 365.659 284.117,366.431 282.570,366.945 282.122 C 367.449 281.685,368.089 280.443,368.367 279.363 C 369.016 276.851,369.451 275.952,370.641 274.669 C 371.257 274.005,371.813 272.639,372.182 270.885 C 372.554 269.117,373.254 267.406,374.151 266.074 C 375.166 264.564,375.612 263.385,375.804 261.703 C 376.153 258.632,376.299 258.183,377.370 256.898 C 378.567 255.460,379.082 253.754,379.595 249.525 C 379.887 247.113,380.357 245.400,381.131 243.925 C 382.235 241.820,382.586 240.027,383.567 231.469 C 383.790 229.527,384.244 227.393,384.576 226.728 C 387.576 220.715,387.588 175.378,384.592 169.584 C 384.293 169.007,383.855 166.929,383.617 164.967 C 382.515 155.852,381.621 151.600,380.808 151.600 C 380.394 151.600,379.716 148.583,379.371 145.200 C 379.112 142.665,378.005 139.809,376.968 139.001 C 376.685 138.781,376.188 137.033,375.864 135.118 C 375.411 132.437,374.985 131.232,374.016 129.882 C 373.215 128.767,372.553 127.153,372.196 125.448 C 371.777 123.447,371.276 122.349,370.218 121.112 C 369.438 120.201,368.799 119.173,368.798 118.828 C 368.792 117.334,367.905 115.219,366.797 114.059 C 366.134 113.366,365.600 112.370,365.600 111.827 C 365.600 111.288,365.420 110.736,365.200 110.600 C 364.980 110.464,364.800 109.994,364.800 109.557 C 364.800 109.119,364.200 108.142,363.466 107.387 C 362.733 106.632,361.888 105.272,361.589 104.366 C 361.290 103.460,360.548 102.186,359.940 101.536 C 359.332 100.885,358.602 99.702,358.317 98.906 C 358.033 98.111,357.133 96.743,356.318 95.867 C 355.503 94.991,354.730 93.790,354.600 93.199 C 354.470 92.607,353.669 91.401,352.821 90.518 C 351.973 89.635,350.970 88.316,350.592 87.585 C 350.215 86.855,349.297 85.683,348.553 84.981 C 347.809 84.280,347.200 83.425,347.200 83.082 C 347.200 82.739,346.705 82.071,346.100 81.599 C 345.495 81.126,344.638 80.145,344.195 79.419 C 343.752 78.692,342.852 77.567,342.195 76.917 C 341.538 76.268,340.730 75.365,340.400 74.911 C 339.875 74.189,335.868 69.699,334.767 68.600 C 334.546 68.380,333.879 67.669,333.283 67.019 C 331.245 64.797,328.600 62.343,323.994 58.400 C 322.580 57.190,320.608 55.458,319.612 54.551 C 318.615 53.645,317.428 52.788,316.972 52.647 C 316.517 52.507,315.743 51.849,315.252 51.185 C 314.761 50.521,313.655 49.695,312.795 49.351 C 311.934 49.007,311.124 48.390,310.994 47.980 C 310.863 47.570,309.810 46.692,308.652 46.030 C 307.494 45.367,306.215 44.458,305.809 44.010 C 305.028 43.147,302.984 42.000,302.227 42.000 C 301.979 42.000,301.195 41.384,300.485 40.631 C 299.775 39.878,298.657 39.144,298.001 39.000 C 297.346 38.856,296.706 38.572,296.581 38.369 C 296.455 38.166,296.016 38.000,295.605 38.000 C 295.194 38.000,294.440 37.491,293.929 36.868 C 293.418 36.246,292.190 35.434,291.200 35.065 C 290.210 34.695,288.805 33.867,288.078 33.225 C 287.293 32.530,285.940 31.882,284.741 31.625 C 283.515 31.362,282.074 30.662,281.063 29.839 C 279.997 28.972,278.469 28.249,276.807 27.827 C 275.381 27.465,274.080 26.928,273.915 26.634 C 273.534 25.953,270.035 24.580,267.261 24.022 C 266.084 23.785,264.824 23.259,264.461 22.853 C 263.624 21.918,261.011 21.026,257.301 20.409 C 255.707 20.145,254.290 19.746,254.152 19.523 C 253.657 18.721,251.187 18.006,246.734 17.377 C 243.560 16.928,241.456 16.384,239.719 15.564 C 237.647 14.587,236.412 14.327,232.245 13.988 C 226.324 13.507,219.113 12.628,214.400 11.811 C 210.353 11.110,196.555 10.735,191.200 11.179 M213.800 14.799 C 225.422 15.241,230.834 15.804,232.860 16.783 C 234.856 17.748,235.571 17.899,241.304 18.565 C 245.025 18.997,246.530 19.368,248.504 20.339 C 250.170 21.159,252.329 21.776,255.000 22.195 C 258.194 22.697,259.339 23.065,260.681 24.023 C 261.840 24.850,263.377 25.426,265.630 25.878 C 267.634 26.280,269.304 26.871,269.949 27.407 C 271.488 28.687,272.333 29.056,274.975 29.599 C 276.586 29.931,277.699 30.438,278.438 31.177 C 279.081 31.820,280.700 32.636,282.390 33.169 C 283.965 33.666,285.355 34.339,285.480 34.665 C 285.711 35.266,289.648 37.200,290.641 37.200 C 290.938 37.200,291.455 37.618,291.790 38.128 C 292.124 38.639,293.343 39.480,294.499 39.997 C 295.655 40.515,297.375 41.525,298.322 42.242 C 299.270 42.959,300.581 43.664,301.236 43.808 C 301.891 43.952,302.719 44.514,303.075 45.058 C 303.431 45.601,304.370 46.384,305.161 46.796 C 305.952 47.208,307.460 48.265,308.510 49.145 C 309.561 50.025,311.046 50.951,311.810 51.203 C 312.575 51.456,313.200 51.886,313.200 52.159 C 313.200 52.763,315.013 54.395,315.703 54.413 C 316.393 54.430,317.400 55.268,317.703 56.077 C 317.843 56.449,318.462 57.067,319.079 57.451 C 319.695 57.835,320.920 58.880,321.800 59.774 C 322.680 60.668,324.543 62.390,325.940 63.600 C 327.336 64.810,329.316 66.687,330.340 67.771 C 331.363 68.855,333.010 70.591,334.000 71.627 C 336.068 73.793,339.003 77.036,341.131 79.506 C 341.939 80.444,343.275 81.901,344.100 82.744 C 344.925 83.587,345.600 84.548,345.600 84.880 C 345.600 85.537,347.349 87.600,347.906 87.600 C 348.095 87.600,348.632 88.474,349.098 89.542 C 349.564 90.610,350.581 92.083,351.357 92.815 C 352.134 93.547,352.880 94.652,353.015 95.270 C 353.151 95.887,353.854 96.889,354.577 97.496 C 355.404 98.191,356.137 99.352,356.555 100.630 C 356.934 101.793,357.797 103.222,358.573 103.973 C 359.341 104.718,360.036 105.865,360.178 106.622 C 360.316 107.357,361.021 108.668,361.745 109.535 C 362.470 110.402,363.391 112.166,363.791 113.456 C 364.192 114.745,365.001 116.355,365.588 117.032 C 366.176 117.710,366.975 119.399,367.364 120.786 C 367.762 122.205,368.507 123.744,369.067 124.303 C 369.703 124.939,370.255 126.185,370.595 127.749 C 371.354 131.238,371.983 132.905,372.817 133.641 C 373.251 134.024,373.806 135.553,374.195 137.435 C 374.899 140.848,376.122 144.000,376.741 144.000 C 377.134 144.000,377.763 147.406,378.193 151.861 C 378.339 153.375,378.894 155.278,379.634 156.807 C 381.047 159.723,381.600 162.299,381.600 165.965 C 381.600 169.739,382.309 174.972,383.225 177.957 C 385.024 183.821,385.115 211.493,383.357 217.914 C 382.134 222.378,382.024 223.128,381.630 229.697 C 381.244 236.120,381.186 236.427,379.843 239.069 C 378.884 240.957,378.375 242.603,378.196 244.400 C 377.721 249.150,377.145 251.791,376.407 252.600 C 375.630 253.451,375.094 255.032,374.181 259.167 C 373.869 260.579,373.263 262.109,372.834 262.567 C 371.978 263.482,371.110 265.853,370.437 269.119 C 370.164 270.445,369.639 271.568,369.036 272.119 C 368.462 272.644,367.721 274.173,367.203 275.901 C 366.720 277.511,365.997 279.037,365.577 279.331 C 365.161 279.622,364.380 281.164,363.841 282.757 C 363.303 284.349,362.514 285.956,362.090 286.326 C 361.132 287.163,360.000 289.314,360.000 290.299 C 360.000 290.705,359.298 291.723,358.440 292.561 C 357.470 293.508,356.693 294.752,356.385 295.853 C 356.095 296.889,355.409 298.026,354.728 298.599 C 354.089 299.137,353.366 300.167,353.121 300.888 C 352.875 301.610,352.071 302.795,351.334 303.523 C 350.597 304.250,349.653 305.513,349.236 306.329 C 348.820 307.145,347.831 308.520,347.040 309.385 C 346.248 310.249,345.600 311.184,345.600 311.463 C 345.600 311.741,344.915 312.651,344.077 313.485 C 343.239 314.318,342.210 315.585,341.790 316.300 C 341.371 317.015,340.799 317.600,340.519 317.600 C 340.239 317.600,339.568 318.301,339.027 319.157 C 338.487 320.013,337.494 321.106,336.822 321.584 C 336.150 322.063,335.600 322.613,335.600 322.807 C 335.600 323.300,327.034 332.000,326.549 332.000 C 326.332 332.000,325.624 332.717,324.977 333.593 C 324.330 334.470,323.503 335.286,323.141 335.407 C 322.778 335.529,321.900 336.342,321.189 337.214 C 320.478 338.086,319.664 338.800,319.382 338.800 C 319.099 338.800,318.297 339.520,317.600 340.400 C 316.903 341.280,316.031 342.000,315.662 342.000 C 314.950 342.000,312.800 343.791,312.800 344.385 C 312.800 344.579,312.170 344.946,311.400 345.200 C 310.630 345.454,310.000 345.816,310.000 346.004 C 310.000 346.192,309.677 346.449,309.283 346.574 C 308.888 346.699,307.898 347.431,307.082 348.201 C 306.266 348.970,305.342 349.600,305.028 349.600 C 304.715 349.600,303.950 350.197,303.329 350.927 C 302.708 351.657,301.356 352.568,300.324 352.951 C 299.292 353.334,297.942 354.164,297.324 354.796 C 296.706 355.427,295.302 356.248,294.204 356.620 C 293.106 356.993,291.970 357.636,291.681 358.049 C 291.182 358.761,288.893 359.971,286.887 360.583 C 286.385 360.737,285.546 361.291,285.022 361.815 C 284.498 362.339,283.558 362.890,282.934 363.039 C 282.311 363.188,281.620 363.445,281.400 363.609 C 281.180 363.773,280.417 364.032,279.705 364.185 C 278.993 364.337,278.093 364.853,277.705 365.331 C 277.030 366.163,274.437 367.229,271.721 367.790 C 271.017 367.936,269.798 368.566,269.011 369.191 C 268.058 369.949,266.884 370.421,265.491 370.608 C 263.326 370.898,259.200 372.599,259.200 373.201 C 259.200 373.565,256.390 374.181,252.861 374.590 C 250.404 374.875,247.609 375.859,246.945 376.672 C 246.652 377.032,244.310 377.504,240.345 378.003 C 234.256 378.769,231.880 379.280,228.400 380.573 C 223.388 382.434,176.827 382.281,171.200 380.386 C 167.231 379.048,164.867 378.500,161.800 378.204 C 156.501 377.693,153.801 377.152,153.001 376.441 C 151.905 375.468,150.211 374.893,147.600 374.609 C 144.401 374.262,141.886 373.537,141.200 372.765 C 140.433 371.903,138.557 371.258,134.853 370.586 C 132.925 370.235,131.646 369.771,131.152 369.241 C 130.738 368.796,129.634 368.222,128.699 367.966 C 127.765 367.709,126.433 367.252,125.740 366.950 C 125.046 366.647,124.313 366.400,124.109 366.400 C 123.906 366.400,123.331 365.965,122.832 365.434 C 121.976 364.523,118.782 363.200,117.439 363.200 C 117.103 363.200,116.237 362.686,115.514 362.057 C 114.791 361.429,113.480 360.687,112.600 360.409 C 111.720 360.131,110.829 359.745,110.620 359.552 C 110.411 359.358,109.946 359.200,109.588 359.200 C 109.229 359.200,108.697 358.755,108.406 358.212 C 108.073 357.589,107.185 356.994,106.007 356.602 C 104.866 356.223,103.792 355.516,103.255 354.788 C 102.616 353.924,101.727 353.416,100.026 352.943 C 98.365 352.482,97.559 352.029,97.271 351.396 C 97.047 350.905,96.084 350.119,95.132 349.651 C 94.179 349.183,92.968 348.342,92.441 347.782 C 91.913 347.222,90.717 346.316,89.782 345.768 C 88.847 345.221,87.421 344.149,86.613 343.386 C 85.804 342.624,84.895 342.000,84.592 342.000 C 84.289 342.000,83.558 341.368,82.969 340.595 C 82.379 339.822,81.493 339.088,81.000 338.964 C 80.506 338.840,79.893 338.348,79.637 337.869 C 79.381 337.391,78.714 336.639,78.154 336.200 C 77.594 335.760,76.290 334.590,75.256 333.600 C 74.222 332.610,72.166 330.693,70.688 329.340 C 69.209 327.987,68.000 326.721,68.000 326.526 C 68.000 326.331,67.289 325.584,66.420 324.866 C 65.552 324.147,64.740 323.242,64.617 322.854 C 64.494 322.466,63.679 321.620,62.806 320.974 C 61.933 320.328,61.215 319.590,61.209 319.334 C 61.204 319.077,60.480 318.297,59.600 317.600 C 58.720 316.903,58.000 316.123,58.000 315.866 C 57.999 315.247,56.221 313.200,55.684 313.200 C 55.452 313.200,55.068 312.615,54.830 311.900 C 54.593 311.185,53.750 309.894,52.957 309.032 C 52.165 308.170,51.150 306.762,50.703 305.903 C 50.255 305.044,49.378 303.964,48.753 303.502 C 48.128 303.040,47.416 302.018,47.170 301.231 C 46.925 300.444,46.301 299.440,45.783 299.000 C 45.266 298.560,44.398 297.194,43.855 295.964 C 43.311 294.735,42.326 293.188,41.666 292.527 C 41.005 291.867,40.263 290.576,40.016 289.658 C 39.769 288.740,39.067 287.407,38.456 286.695 C 37.846 285.983,36.938 284.230,36.439 282.800 C 35.941 281.370,35.185 279.899,34.760 279.530 C 34.334 279.162,33.533 277.452,32.980 275.730 C 32.426 274.009,31.645 272.323,31.245 271.983 C 30.192 271.091,29.740 270.061,29.412 267.805 C 29.117 265.771,28.451 264.186,27.144 262.400 C 26.741 261.850,26.124 259.872,25.772 258.005 C 25.183 254.874,24.207 252.400,23.560 252.400 C 23.142 252.400,22.833 250.953,22.211 246.085 C 21.806 242.913,21.341 241.010,20.647 239.685 C 19.199 236.919,18.889 235.501,18.617 230.400 C 18.271 223.926,17.700 220.149,16.680 217.600 C 15.321 214.203,15.319 182.750,16.677 179.000 C 17.696 176.187,18.264 172.374,18.614 166.000 C 18.885 161.046,19.423 158.609,20.735 156.395 C 21.309 155.426,21.765 153.439,22.205 149.995 C 22.752 145.711,23.007 144.768,23.995 143.371 C 24.822 142.203,25.335 140.732,25.810 138.171 C 26.193 136.107,26.775 134.262,27.190 133.800 C 28.362 132.492,29.069 130.755,29.540 128.030 C 29.843 126.279,30.296 125.131,30.962 124.430 C 31.910 123.430,32.904 121.250,33.350 119.192 C 33.471 118.638,33.942 117.784,34.398 117.295 C 35.246 116.384,36.479 113.793,36.922 111.988 C 37.059 111.432,37.689 110.396,38.323 109.687 C 38.956 108.977,39.697 107.654,39.969 106.746 C 40.241 105.838,41.071 104.469,41.814 103.704 C 42.557 102.940,43.456 101.436,43.813 100.362 C 44.169 99.289,44.895 98.069,45.424 97.652 C 45.954 97.235,46.741 96.108,47.172 95.147 C 47.604 94.186,48.585 92.791,49.352 92.046 C 50.120 91.301,50.978 90.137,51.258 89.459 C 51.539 88.782,52.350 87.717,53.060 87.094 C 53.770 86.470,54.556 85.339,54.807 84.580 C 55.057 83.821,55.452 83.200,55.684 83.200 C 56.206 83.200,57.999 81.161,58.000 80.567 C 58.000 80.329,58.720 79.555,59.600 78.848 C 60.480 78.141,61.200 77.414,61.200 77.234 C 61.200 77.053,61.965 76.114,62.900 75.148 C 63.835 74.181,66.234 71.682,68.231 69.595 C 70.228 67.508,73.094 64.720,74.601 63.400 C 76.107 62.080,78.186 60.145,79.220 59.100 C 80.254 58.055,81.307 57.200,81.559 57.200 C 81.811 57.200,82.218 56.759,82.464 56.219 C 82.710 55.680,83.471 54.972,84.155 54.646 C 85.548 53.982,87.200 52.555,87.200 52.015 C 87.200 51.821,87.807 51.462,88.549 51.217 C 89.291 50.972,90.641 50.085,91.550 49.246 C 92.459 48.407,93.882 47.414,94.712 47.040 C 95.542 46.665,96.572 45.837,97.002 45.198 C 97.565 44.360,98.326 43.906,99.732 43.568 C 100.961 43.273,102.053 42.685,102.683 41.977 C 103.234 41.359,104.645 40.399,105.820 39.843 C 106.994 39.287,108.151 38.465,108.392 38.016 C 108.632 37.567,109.137 37.198,109.514 37.196 C 110.572 37.190,114.111 35.413,114.955 34.465 C 115.370 33.998,116.360 33.495,117.155 33.347 C 119.372 32.936,121.898 31.738,122.356 30.881 C 122.640 30.351,123.550 29.956,125.273 29.617 C 126.836 29.310,128.556 28.608,129.847 27.751 C 131.384 26.731,132.752 26.230,135.159 25.807 C 137.636 25.372,138.754 24.953,139.902 24.031 C 141.135 23.039,142.116 22.707,145.401 22.168 C 147.601 21.807,150.018 21.158,150.773 20.726 C 152.833 19.548,155.088 18.907,158.200 18.614 C 162.824 18.180,166.103 17.528,167.439 16.778 C 170.610 14.997,193.409 14.024,213.800 14.799 " stroke="none" fill="#987f34" fill-rule="evenodd"></path></g></svg>